<svg xmlns="http://www.w3.org/2000/svg" width="293.384" height="293.387"><defs><clipPath clipPathUnits="userSpaceOnUse" id="a"><path d="M0 792h612V0H0z"/></clipPath><clipPath clipPathUnits="userSpaceOnUse" id="b"><path d="M0 792h612V0H0z"/></clipPath><clipPath clipPathUnits="userSpaceOnUse" id="c"><path d="M0 792h612V0H0z"/></clipPath><clipPath clipPathUnits="userSpaceOnUse" id="d"><path d="M0 792h612V0H0z"/></clipPath></defs><g clip-path="url(#a)" transform="matrix(1.33333 0 0 -1.33333 -254.82 622.406)"><path d="M410.152 356.783c0-60.212-48.809-109.019-109.02-109.019-60.209 0-109.018 48.807-109.018 109.02 0 60.207 48.81 109.02 109.017 109.02 60.212 0 109.021-48.813 109.021-109.02" fill="#fcd213"/><path d="M410.152 356.783c0-60.212-48.809-109.019-109.02-109.019-60.209 0-109.018 48.807-109.018 109.02 0 60.207 48.81 109.02 109.017 109.02 60.212 0 109.021-48.813 109.021-109.02z" fill="none" stroke="#fcd213" stroke-width="2"/></g><g clip-path="url(#b)" transform="matrix(1.33333 0 0 -1.33333 -254.82 622.406)"><path d="M402.77 356.783c0-56.134-45.504-101.636-101.638-101.636-56.132 0-101.634 45.502-101.634 101.636 0 56.132 45.502 101.637 101.634 101.637 56.134 0 101.638-45.505 101.638-101.637" fill="#2057af"/><path d="M402.77 356.783c0-56.134-45.504-101.636-101.638-101.636-56.132 0-101.634 45.502-101.634 101.636 0 56.132 45.502 101.637 101.634 101.637 56.134 0 101.638-45.505 101.638-101.637z" fill="none" stroke="#2057af"/><path d="M248.975 292.26c-6.894-5.092-15.953-5.238-17.56-4.24 1.463 1.467 135.79 135.795 135.79 135.795l6.664-6.662L248.975 292.26" fill="#fcd213"/><path d="M248.084 294.727a1.98 1.98 0 00-2.796-.002 1.98 1.98 0 000 2.799c.77.769 2.024.77 2.799 0a1.981 1.981 0 00-.003-2.797" fill="#244ba6"/><path d="M248.084 294.727a1.98 1.98 0 00-2.796-.002 1.98 1.98 0 000 2.799c.77.769 2.024.77 2.799 0a1.981 1.981 0 00-.003-2.797z" fill="none" stroke="#244ba6" stroke-width=".25"/><path d="M361.361 408a1.975 1.975 0 00-2.794-.002 1.977 1.977 0 102.794.002" fill="#244ba6"/><path d="M361.361 408a1.975 1.975 0 00-2.794-.002 1.977 1.977 0 102.794.002z" fill="none" stroke="#244ba6" stroke-width=".25"/><path d="M353.58 292.26c6.894-5.092 15.953-5.238 17.56-4.24-1.463 1.467-135.79 135.795-135.79 135.795l-6.664-6.662L353.58 292.26" fill="#fcd213"/><path d="M354.47 294.727a1.98 1.98 0 012.797-.002 1.98 1.98 0 010 2.799 1.985 1.985 0 01-2.8 0 1.981 1.981 0 01.004-2.797" fill="#244ba6"/><path d="M354.47 294.727a1.98 1.98 0 012.797-.002 1.98 1.98 0 010 2.799 1.985 1.985 0 01-2.8 0 1.981 1.981 0 01.004-2.797z" fill="none" stroke="#244ba6" stroke-width=".25"/><path d="M241.196 408.006a1.975 1.975 0 012.794-.002 1.977 1.977 0 11-2.794.002" fill="#244ba6"/><path d="M241.196 408.006a1.975 1.975 0 012.794-.002 1.977 1.977 0 11-2.794.002z" fill="none" stroke="#244ba6" stroke-width=".25"/></g><g clip-path="url(#c)" transform="matrix(1.33333 0 0 -1.33333 -254.82 622.406)"><path d="M283.233 425.287l-15.625 12.375c6.235 1.467 12.743 1.521 19.113 1.731 8.152.27 16.314.391 24.469.294 6.219-.074 12.623-.049 18.769-1.14 4.21-.75 7.539-3.333 11.42-4.984.725-.308 3.22-1 3.015-2.123-.183-1.003-2.932-1.646-3.684-1.928-6.29-2.362-12.574-3.567-19.227-4.475z" fill="#16326c"/><path d="M316.942 444.732c-2.013 1.18-4.149 1.75-6.01 3.13-.945.701-1.927 1.662-2.973 2.168-2.65 1.278-4.483 2.923-7.412 1.22-2.614-1.524-4.912-2.115-7.277-4.036-1.468-1.192-2.83-1.133-4.488-2.066-1.829-1.03-6.792-1.654-8.75-2.365-3.44-1.248-5.069-2.519-8.319-4.303.5-.205 1.04-.039 1.52-.21.508-.184 2.832-.607 3.315-.858.876-.455 2.864.624 3.801.421 2.87-.622 3.232-.162 6.203-.237 2.993-.075 6.726-1.446 9.578-.665 3.316.908 4.018.79 7.38.525 3.891-.307 8.744.107 11.304 3.42" fill="#31932f" stroke="#31932f" stroke-width=".25"/><path d="M338.615 435.026c-1.223 2.418-2.503 5.105-5.137 6.211-1.408.592-2.94.765-4.35 1.405-1.644.746-3.178 1.608-4.894 2.191-2.209.751-4.94 3.266-7.023 1.35-1-.92-1.612-2.17-2.656-3.077-1.124-.975-2.443-1.824-3.72-2.583-2.897-1.718-8.56-3.403-9.572-4.463 1.371-1.034 5.296-.068 7 .03 2.592.15 5.19.266 7.831.265 5.015 0 9.666-1.06 14.677-1.062 1.446 0 2.77-.316 4.214-.267 1.222.041 2.464.258 3.63 0" fill="#31932f" stroke="#31932f" stroke-width=".25"/><path d="M276.368 431.527s35.231 4.265 61.161 5.572l.406-.718c-25.929-1.308-56.3-6.064-56.3-6.064z" fill="#ee5732"/><path d="M276.368 431.527s35.231 4.265 61.161 5.572l.406-.718c-25.929-1.308-56.3-6.064-56.3-6.064z" fill="none" stroke="#ee5732" stroke-width=".25"/><path d="M280.58 456.117s22.211-22.334 33.797-21.138c11.586 1.2 15.3 14.32 15.3 14.32s3.553-9.123 6.462-12.45" fill="none" stroke="#ee5732"/><path d="M276.981 455.6s21.868-21.715 35.47-20.814c9.281.797 14.021 14.474 14.021 14.474s4.155-9.722 6.98-12.691M281.034 454.838s-12.089-10.227-19.533-13.79M276.675 455.724s-5.881-6.521-17.52-12.694M284.665 452.367v-20.723M287.651 449.848v-17.65M290.842 446.58V432.83M294.032 444.259v-11.506M297.154 441.94v-8.728M300.413 439.784v-6.368M303.807 438.268v-4.366M272.768 452.294v-21.591M269.305 449.606v-21.824M265.64 447.15v-14.956M319.533 438.035l.044-2.583M322.01 440.822v-5.26M332.124 443.584v-7.008M333.98 439.872v-3.296M324.22 444.135v-8.31" fill="none" stroke="#ee5732"/><path d="M330.233 446.664h-.993v4.023h.993z" fill="#ee5732" stroke="#ee5732" stroke-width=".25"/><path d="M330.328 443.238h-1.186v4.026h1.186zM326.774 446.664h-.994v4.023h.994z" fill="#ee5732" stroke="#ee5732" stroke-width=".25"/><path d="M326.872 443.238h-1.187v4.026h1.187z" fill="#ee5732" stroke="#ee5732" stroke-width=".25"/><path d="M329.373 445.73h-2.9v1.231h2.9zM329.373 448.924h-2.9v1.231h2.9zM329.373 442.308h-2.9v1.231h2.9zM329.373 438.427h-2.9v1.23h2.9z" fill="#ee5732" stroke="#ee5732" stroke-width=".25"/><path d="M331.39 431.99l-7.098.154.029.893 7.097-.156z" fill="#ee5732"/><path d="M331.39 431.99l-7.098.154.029.893 7.097-.156z" fill="none" stroke="#ee5732" stroke-width=".25"/><path d="M281.773 449.909h-1.357v6.412h1.357z" fill="#ee5732" stroke="#ee5732" stroke-width=".25"/><path d="M281.903 444.456h-1.617v6.412h1.617z" fill="#ee5732" stroke="#ee5732" stroke-width=".25"/><path d="M282.068 439.004h-1.947v6.412h1.947z" fill="#ee5732" stroke="#ee5732" stroke-width=".25"/><path d="M282.218 430.259h-2.247v8.978h2.247zM277.408 449.909h-1.357v6.412h1.357z" fill="#ee5732" stroke="#ee5732" stroke-width=".25"/><path d="M277.538 444.456h-1.617v6.412h1.617z" fill="#ee5732" stroke="#ee5732" stroke-width=".25"/><path d="M277.703 439.004h-1.947v6.412h1.947z" fill="#ee5732" stroke="#ee5732" stroke-width=".25"/><path d="M277.854 430.259h-2.247v8.978h2.247z" fill="#ee5732" stroke="#ee5732" stroke-width=".25"/><path d="M280.601 437.111h-3.604v1.641h3.604zM280.601 448.745h-3.604v1.641h3.604zM280.601 453.833h-3.604v1.642h3.604zM280.601 443.29h-3.604v1.642h3.604z" fill="#ee5732" stroke="#ee5732" stroke-width=".25"/><path d="M344.356 434.701s-1.007 1.312-5.33 3.477c2.394 1.156 18.722-4.909 28.18-14.364.97-.968 6.662-6.662 6.662-6.662s2.611-1.138 6.241-4.769c3.63-3.629 13.822-18.766 15.522-36.989-1.16-1.162-2.394-2.705-2.394-2.705l-.895 3.295.916 1.047-2.547 2.381 1.435 1.678-4.059 3.731 1.833 2.226-4.975 3.6 1.767 2.291s-6.15 3.36-7.396 4.19c-3.699 4.347-8.075 8.526-12.488 12.938-1.315 1.315-5.949 5.791-6.722 6.567.697 3.935 1.16 7.181-.693 9.035-8.032 8.03-15.058 9.033-15.058 9.033" fill="#fcd213"/><path d="M326.992 439.816h-1.427v4.023h1.427z" fill="#ee5732" stroke="#ee5732" stroke-width=".25"/><path d="M327.101 432.472h-1.646v7.49h1.646zM330.449 439.816h-1.427v4.023h1.427z" fill="#ee5732" stroke="#ee5732" stroke-width=".25"/><path d="M330.56 432.472h-1.646v7.49h1.646z" fill="#ee5732" stroke="#ee5732" stroke-width=".25"/><path d="M376.825 408.18a2.748 2.748 0 00-3.883.006 2.745 2.745 0 000 3.879 2.744 2.744 0 003.883.006 2.755 2.755 0 000-3.891" fill="#244ba6"/><path d="M376.825 408.18a2.748 2.748 0 00-3.883.006 2.745 2.745 0 000 3.879 2.744 2.744 0 003.883.006 2.755 2.755 0 000-3.891z" fill="none" stroke="#244ba6" stroke-width=".25"/><path d="M255.003 429.38c4.712 0 6.797-1.926 10.149-1.926 2.502 0 8.972-.997 17.219.363 3.655.602-5.3 4.332-10.148 8.363-3.86 3.21-11.868 8.78-13.714 8.2-2.683-.844-5.728-2.978-7.243-5.101-2.872-4.017-3.104-3.125-3.828-5.572-.725-2.81-.893-4.326 7.565-4.326" fill="#31932f"/><path d="M255.003 429.38c4.712 0 6.797-1.926 10.149-1.926 2.502 0 8.972-.997 17.219.363 3.655.602-5.3 4.332-10.148 8.363-3.86 3.21-11.868 8.78-13.714 8.2-2.683-.844-5.728-2.978-7.243-5.101-2.872-4.017-3.104-3.125-3.828-5.572-.725-2.81-.893-4.326 7.565-4.326z" fill="none" stroke="#31932f" stroke-width=".25"/><path d="M258.2 434.701s1.006 1.312 5.328 3.477c-2.394 1.156-18.722-4.909-28.18-14.364l-6.662-6.662s-2.61-1.138-6.24-4.769c-3.63-3.629-13.823-18.766-15.523-36.989 1.16-1.162 2.394-2.705 2.394-2.705l.895 3.295-.916 1.047 2.547 2.381-1.435 1.678 4.06 3.731-1.834 2.226 4.975 3.6-1.767 2.291s6.15 3.36 7.396 4.19c3.7 4.347 8.075 8.526 12.488 12.938 1.315 1.315 5.95 5.791 6.722 6.567-.697 3.935-1.16 7.181.693 9.035 8.032 8.03 15.058 9.033 15.058 9.033" fill="#fcd213"/><path d="M225.73 408.18a2.748 2.748 0 013.883.006 2.745 2.745 0 010 3.879 2.744 2.744 0 01-3.883.006 2.755 2.755 0 010-3.891" fill="#244ba6"/><path d="M225.73 408.18a2.748 2.748 0 013.883.006 2.745 2.745 0 010 3.879 2.744 2.744 0 01-3.883.006 2.755 2.755 0 010-3.891z" fill="none" stroke="#244ba6" stroke-width=".25"/></g><g clip-path="url(#d)" transform="matrix(1.33333 0 0 -1.33333 -254.82 622.406)"><path d="M373.622 356.672c0-40.493-32.827-73.323-73.322-73.323-40.494 0-73.32 32.83-73.32 73.323 0 40.495 32.826 73.322 73.32 73.322 40.495 0 73.322-32.827 73.322-73.322" fill="#31932f"/><path d="M252.573 327.835l1.74-2.484c1.126-1.612 1.898-2.57 2.315-2.875a2.213 2.213 0 011.363-.45c.492.007.988.185 1.488.535.56.391.907.857 1.043 1.397.135.54.058 1.114-.232 1.722-.153.299-.706 1.13-1.658 2.491l-1.834 2.62zm-11.935-3.354l16.63 11.635 4.942-7.064c1.243-1.777 1.997-3.171 2.261-4.186.265-1.013.184-2.03-.24-3.049-.427-1.018-1.132-1.872-2.115-2.56-1.248-.873-2.535-1.228-3.86-1.065-1.328.164-2.606.901-3.838 2.21.083-1.02.036-1.943-.14-2.769-.177-.825-.63-2.09-1.364-3.794l-1.822-4.298-2.809 4.013 1.931 4.952c.686 1.766 1.086 2.925 1.2 3.477.113.554.107 1.052-.017 1.495-.125.442-.457 1.05-.997 1.822l-.477.681-6.938-4.855zM257.818 303.745l11.086 17.002 12.592-8.21-1.878-2.879-9.162 5.974-2.458-3.77 8.52-5.555-1.876-2.88-8.521 5.555-2.996-4.593 9.489-6.188-1.877-2.88zM280.341 298.286l3.98-.425c-.036-1.359.24-2.42.831-3.183.59-.764 1.494-1.272 2.713-1.524 1.29-.267 2.32-.195 3.087.216.768.411 1.227.983 1.38 1.715.096.471.042.898-.165 1.286-.207.387-.629.773-1.264 1.16-.436.26-1.445.771-3.029 1.532-2.038.98-3.409 1.947-4.115 2.904-.992 1.345-1.325 2.805-.999 4.38.21 1.011.692 1.9 1.448 2.662s1.721 1.262 2.896 1.501c1.174.237 2.524.198 4.05-.119 2.492-.515 4.254-1.45 5.287-2.803 1.033-1.354 1.393-2.948 1.08-4.785l-4.048.646c.04 1.058-.175 1.868-.646 2.433-.47.564-1.27.964-2.397 1.197-1.164.241-2.124.19-2.88-.153-.489-.22-.787-.587-.893-1.103-.098-.47.017-.914.345-1.33.417-.53 1.552-1.228 3.405-2.093 1.852-.864 3.195-1.639 4.027-2.325.831-.686 1.422-1.51 1.773-2.474.351-.962.397-2.072.136-3.328-.235-1.138-.772-2.138-1.61-3.002-.838-.862-1.884-1.416-3.14-1.66-1.255-.244-2.746-.187-4.47.17-2.509.52-4.317 1.5-5.422 2.937-1.105 1.438-1.558 3.295-1.36 5.568M316.66 297.981l4.13-.544c-.208-2.287-.914-4.086-2.118-5.393-1.203-1.31-2.877-2.156-5.02-2.542-2.652-.475-4.994.04-7.027 1.544-2.032 1.506-3.33 3.831-3.896 6.973-.597 3.324-.203 6.061 1.182 8.208 1.386 2.148 3.477 3.472 6.272 3.974 2.442.44 4.555.073 6.34-1.097 1.06-.69 1.961-1.795 2.702-3.31l-3.827-1.673c-.423.993-1.06 1.722-1.917 2.188-.855.465-1.818.602-2.888.41-1.479-.266-2.582-1.013-3.312-2.242-.729-1.227-.88-3.032-.453-5.413.454-2.525 1.231-4.243 2.332-5.15 1.102-.91 2.38-1.235 3.833-.973 1.072.192 1.933.7 2.582 1.52.65.822 1.012 1.995 1.084 3.52M320.363 312.26l3.427 2.24 6.014-9.2c.955-1.46 1.617-2.38 1.985-2.756a3.283 3.283 0 012.145-.988c.828-.06 1.722.225 2.682.852.975.637 1.58 1.317 1.814 2.039.235.72.213 1.404-.065 2.049-.278.646-.856 1.64-1.735 2.985l-6.145 9.398 3.427 2.24 5.833-8.921c1.333-2.041 2.182-3.541 2.548-4.504.364-.964.487-1.898.367-2.803-.119-.905-.484-1.803-1.094-2.692-.61-.89-1.587-1.773-2.932-2.652-1.622-1.061-2.975-1.68-4.058-1.851-1.083-.174-2.064-.121-2.942.16-.878.28-1.609.698-2.193 1.254-.86.827-1.912 2.19-3.154 4.09zM352.775 311.817l-16.644 11.616 8.603 12.325 2.818-1.966-6.259-8.969 3.69-2.576 5.821 8.341 2.82-1.967-5.823-8.34 4.498-3.14 6.483 9.29 2.82-1.968zM253.337 368.611l-18.51 8.328 2.262 5.025 13.983-2.663-11.283 8.663 2.264 5.033 18.509-8.327-1.397-3.108-14.573 6.55 13.085-9.855-1.46-3.242-16.05 3.264 14.567-6.562zM257.74 396.469c1.558-1.69 3.09-2.646 4.598-2.87 1.507-.224 2.803.165 3.886 1.163 1.083.999 1.573 2.25 1.47 3.756-.103 1.506-.953 3.124-2.548 4.854-1.576 1.71-3.091 2.675-4.543 2.892-1.451.219-2.738-.188-3.857-1.221-1.12-1.032-1.63-2.29-1.53-3.774.1-1.483.94-3.083 2.524-4.8m-2.698-2.676c-1.401 1.52-2.372 2.985-2.914 4.393a9.654 9.654 0 00-.635 3.198c-.028 1.09.138 2.072.497 2.944.475 1.165 1.258 2.25 2.35 3.259 1.98 1.824 4.192 2.602 6.637 2.334 2.445-.27 4.787-1.618 7.026-4.046 2.22-2.41 3.369-4.837 3.444-7.284.075-2.447-.874-4.58-2.846-6.397-1.997-1.842-4.21-2.63-6.635-2.363-2.427.267-4.735 1.588-6.924 3.962M269.635 418.323l3.443 1.32 3.936-10.264c.624-1.629 1.072-2.669 1.342-3.119.445-.719 1.035-1.208 1.77-1.464.734-.257 1.581-.202 2.543.167.977.375 1.63.88 1.955 1.513a2.89 2.89 0 01.268 1.98c-.147.684-.508 1.776-1.083 3.276l-4.02 10.484 3.443 1.32 3.816-9.953c.873-2.275 1.396-3.918 1.57-4.928.174-1.01.135-1.935-.118-2.773-.252-.838-.723-1.609-1.414-2.314-.69-.704-1.71-1.315-3.059-1.833-1.629-.624-2.944-.889-3.945-.793-1.002.095-1.875.383-2.62.863-.744.481-1.334 1.058-1.77 1.731-.64 1-1.369 2.56-2.18 4.68zM293.81 405.21v20.298h3.569l7.509-13.615v13.615h3.406V405.21h-3.681l-7.397 13.313V405.21zM315.557 403.063l5.614 15.896-5.112 1.806 1.144 3.24 13.687-4.834-1.145-3.24-5.097 1.8-5.614-15.896zM337.002 400.466l2.519 7.517-6.496-4.512zm.559-10.51l-3.2 2.419 1.515 4.633-5.821 4.399-3.983-2.767-3.121 2.358 17.894 11.918 3.129-2.365zM338.18 388.025l15.98 12.514 2.275-2.904-15.982-12.513zM342.907 382.37l18.695 7.902 1.39-3.287-9.617-12.219 12.541 5.302 1.327-3.136-18.696-7.905-1.434 3.391 9.383 11.998-12.263-5.185z" fill="#fcd213"/><path d="M311.143 314.001h-21.705v85.375h21.705z" fill="#16326c" stroke="#16326c" stroke-width=".25"/><path d="M342.686 344.744l-10.853-18.797-73.936 42.687 10.852 18.798z" fill="#16326c"/><path d="M342.686 344.744l-10.853-18.797-73.936 42.687 10.852 18.798z" fill="none" stroke="#16326c" stroke-width=".25"/><path d="M331.831 387.432l10.854-18.798-73.936-42.686-10.855 18.796z" fill="#16326c"/><path d="M331.831 387.432l10.854-18.798-73.936-42.686-10.855 18.796z" fill="none" stroke="#16326c" stroke-width=".25"/><path d="M291.05 373.416c1.382-4.581 1.715-8.492.018-13.047-2.436-6.548-5.404-12.602-5.623-19.748-.22-7.103 2.038-15.661 8.618-19.46 5.62-3.248 12.34-2.034 16.76 2.233 11.598 11.186.89 25.867-2.046 38.139-1.437 6.005.249 11.042 1.586 16.841 1.224 5.304.492 10.939-4.257 14.292-4.326 3.053-10.177 2.535-13.273-1.946-3.052-4.418-2.835-10.365-2.22-15.449z" fill="#2057af"/><path d="M291.05 373.416c1.382-4.581 1.715-8.492.018-13.047-2.436-6.548-5.404-12.602-5.623-19.748-.22-7.103 2.038-15.661 8.618-19.46 5.62-3.248 12.34-2.034 16.76 2.233 11.598 11.186.89 25.867-2.046 38.139-1.437 6.005.249 11.042 1.586 16.841 1.224 5.304.492 10.939-4.257 14.292-4.326 3.053-10.177 2.535-13.273-1.946-3.052-4.418-2.835-10.365-2.22-15.449z" fill="none" stroke="#ee5732" stroke-width="2"/><path d="M299.988 330.035c.741.122 1.39.372 1.997.96 1.401 1.351 2.022 2.703 2.074 4.526.09 3.101-1.4 7.316-3.517 12.928-.458 1.216-.918 2.45-1.365 3.695l-.03.012c-1.63-4.163-3.095-8.103-3.21-11.857l-.002-.034c-.114-3.94 1.01-8.646 3.376-10.016.188-.106.381-.193.58-.258z" fill="#16326c"/><path d="M299.988 330.035c.741.122 1.39.372 1.997.96 1.401 1.351 2.022 2.703 2.074 4.526.09 3.101-1.4 7.316-3.517 12.928-.458 1.216-.918 2.45-1.365 3.695l-.03.012c-1.63-4.163-3.095-8.103-3.21-11.857l-.002-.034c-.114-3.94 1.01-8.646 3.376-10.016.188-.106.381-.193.58-.258z" fill="none" stroke="#16326c" stroke-width="2"/><path d="M299.192 391.007c-1.424-.251-2.628-1.04-3.482-2.276-1.227-1.777-1.869-4.155-1.959-7.27-.06-2.093.148-4.177.316-5.593l.388-1.647c.93-3.143 1.333-5.793 1.26-8.328-.065-2.242-.514-4.448-1.369-6.746-.006-.02-1.406-3.646-1.406-3.646-1.977-5.03-3.838-9.77-3.998-14.988l-.002-.044c-.17-5.854 1.547-13.201 6.871-16.278 4.041-2.334 9.096-1.642 12.584 1.72 7.081 6.832 3.912 15.235.243 24.964-1.222 3.248-2.489 6.606-3.264 9.842-1.438 6.005-.24 10.927 1.028 16.14l.555 2.317c.635 2.756 1.113 7.823-2.87 10.634-1.489 1.05-3.274 1.488-4.895 1.199z" fill="none" stroke="#ee5732" stroke-width="2"/><path d="M299.804 387.563h-.002c-.502-.09-.887-.351-1.211-.82-.833-1.205-1.272-2.966-1.343-5.383-.052-1.813.129-3.645.275-4.898.042-.183.328-1.394.329-1.404 1.009-3.451 1.444-6.401 1.36-9.266-.076-2.631-.595-5.205-1.587-7.867l-1.42-3.683c-1.867-4.752-3.624-9.227-3.764-13.836l-.002-.039c-.134-4.62 1.127-10.839 5.123-13.147 2.674-1.544 6.052-1.058 8.402 1.21 2.14 2.065 3.068 4.304 3.144 6.944.109 3.742-1.488 8.285-3.741 14.263-1.263 3.351-2.57 6.815-3.397 10.266a27.196 27.196 0 00-.75 7.193c.107 3.7.93 7.084 1.782 10.586l.08.33.006.017.466 1.956c.192.834.303 1.654.325 2.424.062 2.122-.55 3.65-1.81 4.54-.72.508-1.565.737-2.265.613z" fill="none" stroke="#ee5732" stroke-width="2"/><path d="M298.504 372.954c.476 3.808 1.586 6.663 1.904 9.201.263 2.107-.168 3.235-1.428 4.125M301.162 357.898l-1.692-4.916c-1.756-4.473-3.41-8.683-3.533-12.684l-.002-.033c-.114-3.94 1.01-8.646 3.376-10.016 1.31-.755 3.008-.474 4.224.7 1.4 1.351 2.022 2.704 2.074 4.526.091 3.102-1.4 7.316-3.517 12.93-.725 1.924-1.457 3.887-2.12 5.88" fill="none" stroke="#ee5732" stroke-width="2"/><path d="M309.213 365.957s-4.923-.996-9.3-.704c-4.371.296-8.715 1.766-8.715 1.766-.653.27-1.201.851-1.172 1.88.028 1.03.623 1.508 1.219 1.394 0 0 4.633-1.537 8.572-1.758 3.937-.224 9.443.699 9.443.699.514.03 1.138-.645 1.24-1.529.105-.884-.675-1.611-1.287-1.748" fill="#2057af"/><path d="M309.213 365.957s-4.923-.996-9.3-.704c-4.371.296-8.715 1.766-8.715 1.766-.653.27-1.201.851-1.172 1.88.028 1.03.623 1.508 1.219 1.394 0 0 4.633-1.537 8.572-1.758 3.937-.224 9.443.699 9.443.699.514.03 1.138-.645 1.24-1.529.105-.884-.675-1.611-1.287-1.748z" fill="none" stroke="#ee5732" stroke-width="2"/><path d="M309.186 362.716s-5.055-.991-9.55-.696c-4.49.299-8.951 1.772-8.951 1.772-.671.272-1.234.853-1.206 1.882.029 1.029.64 1.508 1.252 1.393 0 0 4.759-1.541 8.804-1.765 4.043-.227 9.696.69 9.696.69.527.03 1.169-.644 1.276-1.53.107-.883-.692-1.61-1.321-1.746" fill="#2057af"/><path d="M309.186 362.716s-5.055-.991-9.55-.696c-4.49.299-8.951 1.772-8.951 1.772-.671.272-1.234.853-1.206 1.882.029 1.029.64 1.508 1.252 1.393 0 0 4.759-1.541 8.804-1.765 4.043-.227 9.696.69 9.696.69.527.03 1.169-.644 1.276-1.53.107-.883-.692-1.61-1.321-1.746z" fill="none" stroke="#ee5732" stroke-width="2"/><path d="M309.532 359.309s-5.25-.986-9.922-.687c-4.665.306-9.304 1.783-9.304 1.783-.697.273-1.283.854-1.254 1.883.028 1.03.662 1.508 1.298 1.39 0 0 4.947-1.544 9.15-1.772 4.202-.232 10.076.68 10.076.68.548.03 1.214-.647 1.327-1.531.111-.885-.719-1.61-1.37-1.746" fill="#2057af"/><path d="M309.532 359.309s-5.25-.986-9.922-.687c-4.665.306-9.304 1.783-9.304 1.783-.697.273-1.283.854-1.254 1.883.028 1.03.662 1.508 1.298 1.39 0 0 4.947-1.544 9.15-1.772 4.202-.232 10.076.68 10.076.68.548.03 1.214-.647 1.327-1.531.111-.885-.719-1.61-1.37-1.746z" fill="none" stroke="#ee5732" stroke-width="2"/><path d="M418.283 240.231H184.06v232.456h234.223z" fill="none" stroke="#fff" stroke-width=".97"/><path d="M206.111 363.206l14.898.241.073-4.502-10.118-2.868 10.205-2.508.073-4.51-14.898-.243-.045 2.794 11.728.191-11.776 2.767-.047 2.896 11.68 3.138-11.728-.19zM213.847 339.106l5.075 2.993-5.79 1.004zm-4.82-6.486l-.577 3.217 3.1 1.877-1.05 5.857-3.546.612-.563 3.139 15.675-3.081.561-3.128zM218.652 331.07l.735-2.1c.476-1.36.83-2.19 1.064-2.489.234-.298.524-.494.872-.588.349-.092.734-.065 1.156.082.472.166.81.426 1.012.78.202.355.26.775.177 1.261-.05.241-.274.937-.677 2.086l-.775 2.214zm-9.1-.003l14.048 4.918 2.09-5.97c.525-1.5.78-2.636.767-3.405-.014-.769-.273-1.47-.775-2.105s-1.168-1.098-2-1.389c-1.053-.368-2.032-.363-2.935.016-.904.38-1.661 1.154-2.271 2.325-.144-.739-.36-1.382-.647-1.932-.288-.548-.86-1.352-1.716-2.413l-2.14-2.675-1.187 3.393 2.339 3.12c.837 1.111 1.35 1.85 1.542 2.22.19.366.285.72.286 1.055 0 .338-.114.832-.342 1.484l-.201.575-5.865-2.053zM214.871 317.122l13.422 6.436 1.3-2.71-13.423-6.437zM217.353 311.752l12.64 7.87 1.546-2.483-5.22-10.429 8.44 5.256 1.477-2.371-12.64-7.869-1.594 2.56 5.07 10.227-8.243-5.131zM272.145 272.077l2.385-1.916c-1.004-1.354-2.134-2.21-3.388-2.572-1.255-.36-2.627-.252-4.118.325-1.845.715-3.117 1.933-3.817 3.651-.7 1.721-.626 3.674.22 5.86.896 2.311 2.188 3.876 3.878 4.693 1.689.816 3.507.848 5.452.096 1.7-.658 2.885-1.696 3.558-3.112.4-.838.545-1.874.43-3.108l-3.033.411c.115.784-.008 1.485-.368 2.105-.36.618-.912 1.072-1.657 1.361-1.03.398-2.01.352-2.936-.139-.928-.49-1.712-1.563-2.353-3.218-.68-1.756-.848-3.129-.505-4.12.343-.99 1.02-1.68 2.03-2.07.746-.29 1.479-.302 2.2-.036.72.266 1.394.861 2.022 1.79M279.33 271.968c-.342-1.651-.22-2.982.368-3.992.586-1.01 1.466-1.637 2.64-1.88 1.174-.241 2.225-.018 3.153.673.927.689 1.566 1.88 1.916 3.572.345 1.67.236 2.993-.327 3.967-.563.974-1.451 1.586-2.665 1.838-1.214.25-2.278.036-3.193-.643-.915-.68-1.545-1.857-1.892-3.535m-3.055.527c.306 1.487.786 2.688 1.44 3.604a7.01 7.01 0 001.77 1.719c.696.47 1.415.779 2.158.923.987.198 2.075.172 3.262-.072 2.149-.445 3.73-1.467 4.745-3.066 1.015-1.6 1.277-3.588.786-5.961-.486-2.356-1.507-4.065-3.062-5.13-1.555-1.065-3.403-1.376-5.545-.934-2.17.449-3.757 1.466-4.764 3.054-1.007 1.588-1.27 3.542-.79 5.863M291.854 277.065l3.003-.119-.321-8.057c-.052-1.279-.048-2.109.012-2.49.104-.615.39-1.116.859-1.504.469-.389 1.123-.6 1.962-.633.852-.033 1.502.115 1.949.446.447.332.724.75.832 1.253.109.503.186 1.344.233 2.521l.329 8.23 3.004-.122-.313-7.812c-.071-1.786-.203-3.045-.394-3.776-.192-.73-.516-1.34-.973-1.83-.457-.49-1.057-.872-1.799-1.143-.743-.272-1.703-.384-2.88-.337-1.42.057-2.491.264-3.211.621-.721.357-1.284.807-1.689 1.348-.406.541-.665 1.102-.777 1.683-.162.86-.21 2.122-.143 3.786zM306.363 261.828l-1.732 14.786 2.905.34 7.208-9.165-1.156 9.874 2.773.325 1.732-14.786-2.996-.352-7.089 8.945 1.128-9.642z" fill="#fcd213"/><path d="M324.443 264.745l-3.219 11.951-4.267-1.15-.657 2.433 11.432 3.078.654-2.432-4.257-1.148 3.218-11.949z" fill="#fcd213"/><path d="M337.049 268.892l-2.467 5.762-8.406 5.783 3.24 1.386 5.539-4.037.838 6.766 3.186 1.363-1.633-10.101 2.457-5.742zM367.704 296.057l1.483 2.314c.876-.487 1.652-.678 2.33-.575.674.105 1.278.49 1.81 1.158.563.707.825 1.37.788 1.985-.037.615-.27 1.096-.704 1.439a1.436 1.436 0 01-.888.338c-.315.005-.693-.124-1.136-.385-.3-.18-.938-.63-1.91-1.348-1.25-.925-2.294-1.443-3.13-1.551-1.176-.154-2.228.139-3.156.877a4.082 4.082 0 00-1.3 1.805c-.27.727-.306 1.495-.108 2.3.198.808.63 1.629 1.294 2.463 1.086 1.364 2.228 2.132 3.425 2.305 1.197.173 2.35-.154 3.461-.981l-1.667-2.27c-.678.388-1.272.533-1.78.436-.51-.098-1.01-.454-1.5-1.07-.506-.635-.76-1.244-.764-1.83a1.122 1.122 0 01.452-.927c.277-.22.602-.301.973-.241.47.076 1.267.54 2.388 1.39 1.122.852 2.032 1.418 2.73 1.698.697.28 1.412.364 2.146.252.734-.111 1.471-.462 2.211-1.052a4.654 4.654 0 001.472-2.021c.31-.813.355-1.65.136-2.51-.22-.861-.705-1.764-1.458-2.71-1.096-1.375-2.28-2.16-3.552-2.351-1.272-.193-2.62.162-4.046 1.062M380.816 305.23l-13.045 7.341 1.38 2.451 5.133-2.888 2.705 4.807-5.134 2.889 1.38 2.45 13.044-7.34-1.379-2.451-5.705 3.21-2.705-4.807 5.705-3.21zM388.149 319.071l-14.041 5.187 3.574 9.674 2.374-.878-2.598-7.035 3.106-1.147 2.42 6.551 2.375-.877-2.421-6.552 3.812-1.407 2.69 7.284 2.375-.878zM384.975 337.223l.41 2.042c.267 1.324.374 2.163.319 2.517a1.529 1.529 0 01-.463.898c-.256.245-.605.413-1.045.5-.493.1-.917.059-1.27-.126-.352-.185-.614-.493-.784-.924-.08-.218-.23-.886-.456-2.004l-.434-2.154zm7.915-4.462l-14.674 2.954 1.168 5.802c.294 1.459.639 2.492 1.035 3.1.397.609.972 1.044 1.726 1.305.754.262 1.564.306 2.432.13 1.1-.221 1.95-.705 2.545-1.45.596-.746.868-1.737.813-2.972.494.52 1.003.928 1.528 1.225.526.297 1.425.659 2.698 1.086l3.199 1.09-.663-3.296-3.596-1.341c-1.283-.48-2.1-.82-2.448-1.021-.35-.201-.61-.437-.778-.707-.17-.27-.317-.721-.444-1.355l-.112-.56 6.127-1.232zM395.414 347.648l-14.915 1.264.237 2.801 14.915-1.262zM395.934 354.191l-14.966-.27-.172 9.561 2.53.045.122-6.748 3.547.063-.106 5.828 2.53.045.106-5.827 6.358.115zM395.393 367.499l-14.781-2.362-1.51 9.442 2.5.399 1.065-6.665 3.503.56-.92 5.755 2.499.399.92-5.755 6.28 1.004z" fill="#fcd213"/></g></svg>