<svg xmlns="http://www.w3.org/2000/svg" width="525.606" height="892.013"><defs><linearGradient x1="0" y1="0" x2="1" y2="0" gradientUnits="userSpaceOnUse" gradientTransform="scale(629.8075 -629.8075) rotate(-85 .117 -.335)" spreadMethod="pad" id="a"><stop offset="0" stop-color="#f47f8b"/><stop offset=".506" stop-color="#f47f8b"/><stop offset=".525" stop-color="#f47f8b"/><stop offset=".64" stop-color="#e47b8f"/><stop offset=".848" stop-color="#585da8"/><stop offset="1" stop-color="#2958ad"/></linearGradient><linearGradient x1="0" y1="0" x2="1" y2="0" gradientUnits="userSpaceOnUse" gradientTransform="matrix(0 427.67719 427.67719 0 306.21 140.434)" spreadMethod="pad" id="c"><stop offset="0" stop-color="#a47990"/><stop offset=".146" stop-color="#a47990"/><stop offset=".853" stop-color="#5570ac"/><stop offset="1" stop-color="#5570ac"/></linearGradient><linearGradient x1="0" y1="0" x2="1" y2="0" gradientUnits="userSpaceOnUse" gradientTransform="matrix(0 74.98837 74.98837 0 314.197 484.81)" spreadMethod="pad" id="e"><stop offset="0" stop-color="#f47f8b"/><stop offset=".657" stop-color="#e2ae35"/><stop offset="1" stop-color="#e2ae35"/></linearGradient><linearGradient x1="0" y1="0" x2="1" y2="0" gradientUnits="userSpaceOnUse" gradientTransform="matrix(0 90.29603 90.29603 0 413.92 456.134)" spreadMethod="pad" id="f"><stop offset="0" stop-color="#f47f8b"/><stop offset=".601" stop-color="#f47f8b"/><stop offset="1" stop-color="#e2ae35"/></linearGradient><linearGradient x1="0" y1="0" x2="1" y2="0" gradientUnits="userSpaceOnUse" gradientTransform="matrix(0 31.75727 31.75727 0 294.795 533.107)" spreadMethod="pad" id="g"><stop offset="0" stop-color="#f47f8b"/><stop offset=".281" stop-color="#e2ae35"/><stop offset="1" stop-color="#e2ae35"/></linearGradient><linearGradient x1="0" y1="0" x2="1" y2="0" gradientUnits="userSpaceOnUse" gradientTransform="matrix(0 66.36992 66.36992 0 177.588 473.06)" spreadMethod="pad" id="h"><stop offset="0" stop-color="#f47f8b"/><stop offset=".927" stop-color="#e2ae35"/><stop offset="1" stop-color="#e2ae35"/></linearGradient><linearGradient x1="0" y1="0" x2="1" y2="0" gradientUnits="userSpaceOnUse" gradientTransform="matrix(0 37.66989 37.66989 0 249.676 447.657)" spreadMethod="pad" id="i"><stop offset="0" stop-color="#f47f8b"/><stop offset=".438" stop-color="#f47f8b"/><stop offset="1" stop-color="#e2ae35"/></linearGradient><linearGradient x1="0" y1="0" x2="1" y2="0" gradientUnits="userSpaceOnUse" gradientTransform="matrix(0 95.23596 95.23596 0 346.416 408.487)" spreadMethod="pad" id="j"><stop offset="0" stop-color="#f47f8b"/><stop offset=".612" stop-color="#f47f8b"/><stop offset="1" stop-color="#e2ae35"/></linearGradient><linearGradient x1="0" y1="0" x2="1" y2="0" gradientUnits="userSpaceOnUse" gradientTransform="matrix(0 27.93707 27.93707 0 132.493 492.492)" spreadMethod="pad" id="k"><stop offset="0" stop-color="#f47f8b"/><stop offset=".876" stop-color="#e2ae35"/><stop offset="1" stop-color="#e2ae35"/></linearGradient><linearGradient x1="0" y1="0" x2="1" y2="0" gradientUnits="userSpaceOnUse" gradientTransform="matrix(0 2.59321 2.59321 0 327.745 564.864)" spreadMethod="pad" id="l"><stop offset="0" stop-color="#f47f8b"/><stop offset=".281" stop-color="#e2ae35"/><stop offset="1" stop-color="#e2ae35"/></linearGradient><clipPath clipPathUnits="userSpaceOnUse" id="b"><path d="M0 792h612V0H0z"/></clipPath><clipPath clipPathUnits="userSpaceOnUse" id="d"><path d="M0 792h612V0H0z"/></clipPath><clipPath clipPathUnits="userSpaceOnUse" id="m"><path d="M0 792h612V0H0z"/></clipPath><clipPath clipPathUnits="userSpaceOnUse" id="n"><path d="M0 792h612V0H0z"/></clipPath><clipPath clipPathUnits="userSpaceOnUse" id="o"><path d="M0 792h612V0H0z"/></clipPath><clipPath clipPathUnits="userSpaceOnUse" id="p"><path d="M0 792h612V0H0z"/></clipPath><clipPath clipPathUnits="userSpaceOnUse" id="q"><path d="M0 792h612V0H0z"/></clipPath></defs><path d="M121.435 732.877c-6.627 0-11.999-5.373-11.999-12v-575.97c0-6.626 5.372-11.999 11.999-11.999h367.48c6.628 0 12 5.373 12 11.999v575.97c0 6.627-5.372 12-12 12z" fill="url(#a)" transform="matrix(1.33333 0 0 -1.33333 -143.454 979.347)"/><g clip-path="url(#b)" transform="matrix(1.33333 0 0 -1.33333 -143.454 979.347)"><path d="M500.915 144.907c0-6.627-5.372-12-12-12h-367.48c-6.627 0-12 5.373-12 12v575.97c0 6.627 5.373 12 12 12h367.48c6.628 0 12-5.373 12-12z" fill="none" stroke="#2958ad"/></g><path d="M326.9 567.958l-.007-2.497c-18.851-2.462-18.525-2.315-22.549-3.825-3.596-1.348-30.92-14.214-30.92-14.214l-1.838-1.839s-6.835-.052-10.88-2.299c-2.115-1.175-4.898-1.118-7.865-1.06-2.71.053-5.574.106-8.226-.779-8.414-2.806-28.933-5.454-31.724-4.751-20.075 5.058-14.888 1.451-29.273-2.145-14.385-3.597-41.174-13.619-45.669-12.72-4.495.899-26.359 9.808-26.359 9.808l-.091-391.204h388.834s2.463 361.854-2.697 364.114c-5.221 2.286-11.002 4.462-11.002 4.462l-.944 4.141s-1.046-4.389-2.439-3.658c-2.321 1.218-4.761 2.999-4.761 2.999l-13.13 3.853s.441 4.005-.739 5.599c-.403.544-.377-.432-.756-1.406-.382-.986-1.18-1.971-3.257-1.387-1.013.284-2.435.225-4.261.863-8.969 3.134-57.457 23.812-57.893 25.988-.434 2.169-4.171 1.982-6.329 1.796-.753-.066-1.314-.131-1.474-.096-.433.094-3.128-.37-6.835-.834-7.747-.97-19.915-1.94-25.08 2.182-5.225 4.168-17.737 13.545-17.737 13.545l-2.941.391-4.108 1.447-4.752 1.073v2.606z" fill="url(#c)" transform="matrix(1.33333 0 0 -1.33333 -143.454 979.347)"/><g clip-path="url(#d)" transform="matrix(1.33333 0 0 -1.33333 -143.454 979.347)"><path d="M111.59 531.637s21.864-8.909 26.36-9.808c4.494-.899 31.283 9.123 45.667 12.72 14.385 3.596 9.2 7.203 29.274 2.145 2.791-.703 23.31 1.945 31.723 4.751 5.56 1.855 12.046-.409 16.091 1.84 4.046 2.247 10.88 2.298 10.88 2.298l1.84 1.84s27.323 12.864 30.918 14.213c4.025 1.51 3.7 1.362 22.55 3.825l.006 2.496 2.3.154v-2.606l4.751-1.073 4.107-1.447 2.942-.39s12.511-9.377 17.736-13.545c7.64-6.096 30.58-1.059 31.916-1.349.621-.135 7.217 1.227 7.803-1.7.435-2.176 48.924-22.855 57.892-25.988 1.827-.638 3.248-.579 4.262-.864 4.131-1.16 3.202 3.887 4.013 2.794 1.18-1.594.74-5.598.74-5.598l13.128-3.854s2.441-1.78 4.762-3c1.392-.73 2.44 3.66 2.44 3.66l.942-4.14s5.782-2.178 11.002-4.464c5.161-2.26 2.698-364.114 2.698-364.114H111.5z" fill="none" stroke="#516fa6"/></g><path d="M311.543 554.198c-3.734-1.602-17.07-18.138-18.138-22.406-1.067-4.268 11.736-6.402 16.271-7.736 4.534-1.333 8.535-5.067 5.868-4.801-6.891.689-14.937-16.537-17.604-20.538-2.669-4.001 5.068-3.2 8.001-6.401 2.934-3.201.268-4.535 5.336-6.935 5.067-2.401 20.27 3.468 20.804 4.801.533 1.334 4.001 24.539 2.668 25.873-1.333 1.333-9.07 8.001-10.67 10.403-1.724 2.587 2.134 33.341 2.134 33.341s-10.936-4.001-14.67-5.601" fill="url(#e)" transform="matrix(1.33333 0 0 -1.33333 -143.454 979.347)"/><path d="M362.507 545.737c-1.374.177 5.192-4.499 5.192-4.499 1.361-.972 5.516-.961 9.505-.949 3.105.01 6.111.019 7.626-.435 3.461-1.038-.375-2.974.173-5.71.519-2.596.692-8.998.692-8.998 2.423-3.635 4.326-8.133 4.326-11.768 0-3.634-2.423-5.883-1.383-10.382 1.039-4.5-3.116-4.5 5.537-14.882 8.652-10.383 13.152-11.075 11.421-8.653-1.731 2.423-3.807 13.152-1.904 16.267 1.127 1.844 1.344.958 2.087.072.513-.61 1.276-1.219 2.758-.937 3.634.692 7.268-.174 12.287-6.576 5.019-6.404 14.016-15.92 17.823-19.727 3.807-3.807 21.458-11.595 24.4-12.287 2.941-.691 2.596 1.385 2.25 2.076-.346.692-8.133 2.25-8.133 3.116 0 .865-2.423 5.191-4.326 6.575-1.904 1.385 3.634 2.942 3.287 5.537-.347 2.596-7.441 2.078-8.132 2.77-.691.692 0 2.942 0 3.807 0 .865-18.343 15.92-19.208 17.131-.865 1.211-3.461 8.133-6.23 7.441-2.77-.693-7.614 1.73-11.074 2.077-3.461.346-2.943 6.921-4.154 7.96-1.211 1.038-.865 7.96-2.25 8.826-1.385.864-3.461 11.074-3.461 12.805 0 1.112 1.644.937 3.463.762 1.01-.097 2.075-.194 2.941-.07 2.422.346.864 1.557 0 2.423-.865.864-11.768 6.921-11.768 6.921s-26.996-1.557-33.745-.693" fill="url(#f)" transform="matrix(1.33333 0 0 -1.33333 -143.454 979.347)"/><path d="M303.099 560.633c-1.269-.577-12.574-6.033-14.65-7.072-2.076-1.038-9.031-4.042-11.972-5.599-2.942-1.557-6.749-3.46-8.652-3.287-1.904.172-4.673-1.558-5.711-1.904 0 0 6.403-4.673 9.171-5.191 3.067-.575 11.248-5.365 11.595-4.326.346 1.038 15.574 11.766 16.612 13.67 1.039 1.903 7.96 7.441 11.594 10.556 3.634 3.116 18.18 7.383 16.206 7.383-2.424 0-16.918-.923-24.193-4.23" fill="url(#g)" transform="matrix(1.33333 0 0 -1.33333 -143.454 979.347)"/><path d="M212.388 535.902s-10.434 4.516-17.03 2.015c-5.895-2.235-40.442-12.32-38.567-12.588 1.506-.215 4.909-3.364 5.5-4.321 2.421 1.528 27.331 9.316 25.836 8.07-1.607-1.339-20.623-17.944-25.979-19.551-5.357-1.607-13.66-10.446-23.301-14.195-9.643-3.749-4.286-5.089-21.963-14.195-17.676-9.106-6.963-11.784 5.892-1.339 12.857 10.445 12.053 4.82 17.142 8.838 2.628 2.075 7.327.792 10.926-.491 3.369-1.201 5.773-2.402 4.608-.847-2.411 3.214 42.049 34.282 46.066 34.817 4.018.536-3.481-8.035-.267-8.838 3.214-.803-8.035-8.035-10.981-8.571-2.946-.536-20.891-23.301-18.749-20.89 2.143 2.41 6.429.267 6.696 2.677.268 2.411 7.232.268 11.517 5.09 4.286 4.82 11.249 1.071 13.124.802.917-.131.744 1.214 1.082 2.557.352 1.403 1.26 2.806 4.542 2.533 0 0 1.34-5.625 1.34-6.428 0-.804 5.088 2.41 5.624 3.75.535 1.339-3.482 12.587-3.482 14.998 0 2.41-2.411 7.767-2.411 7.767l1.072 4.821s-1.875 2.679-.803 6.428c1.071 3.75 1.339 3.482 5.088 4.018 3.75.535 12.588-.536 14.731-2.143 2.142-1.608 17.944-7.232 17.944-7.232s-.803 4.285-.803 6.16-3.213 4.286-4.821 4.821c-1.606.536-.916 4.994-.916 4.994-8.156-2.424-28.657-3.527-28.657-3.527m-50.24-15.126c.264-.106.288-.003.143.232-.182-.115-.237-.195-.143-.232" fill="url(#h)" transform="matrix(1.33333 0 0 -1.33333 -143.454 979.347)"/><path d="M242.054 480.091c-4.554-4.284-9.106-4.017-14.463-5.624-3.061-.919-6.385-.437-9.521.044-2.352.36-4.599.721-6.549.492-4.553-.536-7.232-.804-10.446-3.214-1.767-1.326-5.561-.869-8.884-.413-2.718.373-5.123.747-5.846.145-1.607-1.339-4.821-7.232-5.357-8.035-.535-.804-3.749-4.553-4.553-5.893 0 0-3.214-6.963.268-5.088 3.482 1.874 11.249-4.285 13.66-4.821 2.411-.535 5.356 6.964 9.641 7.499 2.18.272 4.013-1.466 5.501-3.204 1.436-1.678 2.548-3.355 3.338-3.224 1.607.268 8.838 12.052 20.087 11.249 11.249-.802 7.5 1.34 7.767 2.143.268.804-14.194 4.285-11.516 7.232 1.551 1.705 5.076 1.435 8.186 1.166 2.261-.196 4.303-.391 5.205.172 2.143 1.339 13.392-2.41 16.338-4.82 1.538-1.259 4.829.914 8.043 3.089 2.94 1.988 5.815 3.978 7.223 3.338 2.947-1.338 2.679-1.874 13.928-2.678 11.248-.804 14.462-5.089 14.462-5.089 5.357-2.678 16.606-14.194 18.481-13.659 1.875.536 6.16-.268 5.356 1.875-.803 2.143-2.143 7.231-2.678 8.571-.536 1.338 5.892 8.57 4.285 9.641-1.608 1.071 1.607 8.571-1.874 6.696-3.482-1.875-7.768-8.839-10.714-10.178-1.444-.656-2.18.23-2.934 1.116-.783.924-1.587 1.846-3.226 1.027-3.214-1.607-10.445 5.624-12.052 6.696-1.606 1.071-5.892 6.428-9.91 4.285-4.017-2.142-9.374-1.339-11.517-2.143-2.142-.804-9.642 3.75-11.785 4.553-2.142.804-9.909-3.214-11.516-3.214-1.607 0 .535 2.947-.268 4.822-.199.464-.398.682-.654.682-.778 0-2.081-2.011-5.506-5.236" fill="url(#i)" transform="matrix(1.33333 0 0 -1.33333 -143.454 979.347)"/><path d="M341.413 494.286c.535-2.945-2.946-17.676-3.214-19.819-.267-2.143-5.892-11.784-9.374-13.123-3.481-1.34-.536-6.161-.536-6.161-2.413 0-13.39-7.499-16.067-11.516-2.678-4.018-29.195-3.214-34.55-1.072-5.357 2.143 0 0-8.839-2.678-8.838-2.678-12.053 0-14.463-6.964-2.41-6.964-20.891-13.659-16.605-14.462 4.285-.804 2.945-12.857 4.285-9.374 1.339 3.481 15.534 3.214 19.551 5.892 1.871 1.247 2.988.111 4.378-1.024 1.592-1.303 3.545-2.605 7.407-.315 3.535 2.094 8.031 1.372 11.609.651 3.74-.755 6.478-1.509 6.068.955-.548 3.287 3.884 2.839 7.1 2.391 1.5-.209 2.736-.419 3.077-.248 1.072.536 1.605 10.177 4.016 11.517 1.118.621 2.815-.258 4.553-1.137 2.005-1.015 4.064-2.03 5.357-.738 2.411 2.411-.268.804 3.749 5.089 2.742 2.926 3.988 2.355 7.657 1.784 1.705-.265 3.931-.53 7.074-.444 9.911.268 22.23 7.23 23.301 9.373 1.071 2.143 4.821 1.339 8.035 2.41 3.214 1.072 6.428-2.946 6.965-5.624.535-2.679-3.214-4.821-1.072-5.624 2.143-.804 3.482 1.607 5.357 3.749 1.874 2.143 4.017 1.34 6.16 2.679 2.142 1.339 2.677 1.874-2.143 6.428-4.82 4.552.267 6.963 0 7.231-.111.11.052-.098.673-.305.888-.297 2.713-.593 6.022.037 5.624 1.072 19.017-2.142 24.373-3.481 5.357-1.34 10.981-7.5 14.463-9.91 2.054-1.422 4.2-.701 6.385.02 1.52.501 3.058 1.003 4.596.784 3.748-.536 2.678 3.749 4.821 4.82 1.178.589 3.653.287 6.177-.015 2.064-.248 4.161-.494 5.607-.253 3.214.536 2.947.536.269 3.214-2.678 2.679-7.768 3.482-12.053 2.946-4.285-.535-6.697 3.75-9.107 5.089-2.41 1.339-1.338-2.946-1.606-3.214-.13-.13-1.898 1.755-3.805 3.639-2.027 2.003-4.214 4.006-4.766 3.592-1.071-.802-2.143-3.214-3.749-1.339-1.607 1.875-8.303 4.018-8.036 1.875.269-2.142.804-2.946-4.017-5.892-4.822-2.947-8.303 6.16-12.053 7.499-3.749 1.339-6.962 12.32-9.105 13.392-2.142 1.071-4.553 7.499-10.178 12.588-5.624 5.088-4.821-.268-7.231-1.875s9.642-9.374 9.106-13.124c-.535-3.749 7.766-10.177 3.481-9.374-4.284.804-14.998 12.856-16.605 13.659-1.606.804-3.214 6.429-3.75 11.249-.536 4.822-12.052 13.124-14.194 13.928a.977.977 0 01-.34.062c-2.1-.001-4.721-6.644-4.214-9.437" fill="url(#j)" transform="matrix(1.33333 0 0 -1.33333 -143.454 979.347)"/><path d="M146.335 518.992c-12.999-6.5-34.275-13.935-34.499-15.5-.5-3.5 0-10.999 0-10.999s35 19.499 39.5 23.499c3 2.667 2.429 4.437-.052 4.437-1.241 0-2.959-.442-4.949-1.437" fill="url(#k)" transform="matrix(1.33333 0 0 -1.33333 -143.454 979.347)"/><path d="M327.292 567.416v-2.553l.906.001v2.593z" fill="url(#l)" transform="matrix(1.33333 0 0 -1.33333 -143.454 979.347)"/><g clip-path="url(#m)" transform="matrix(1.33333 0 0 -1.33333 -143.454 979.347)"><path d="M498.795 82.324c0-7.635-5.373-13.824-12-13.824H123.04c-6.627 0-12 6.19-12 13.824v635.361c0 7.635 5.373 13.825 12 13.825h363.755c6.627 0 12-6.19 12-13.825z" fill="none" stroke="#231f20" stroke-width="6"/><path d="M112.336 456c14.983-6.465 218.183-82.955 253.409-95.455" fill="#231f20" fill-rule="evenodd" stroke="#231f20" stroke-width="3"/><path d="M113.472 256.129s31.111-2.392 53.056-8.646c21.944-6.254 36.411-2.576 64.497-13.346 29.188-11.196 4.096-.978 39.322-7.79 34.756-6.723 28.353-1.164 55.625-11.481 27.273-10.316 12.5-10.316 26.136-16.047 13.637-5.73 27.274-3.437 42.046-6.877 14.773-3.438 46.591-18.337 46.591-18.337l26.137-8.025 4.545 2.293 22.727-14.901 4.545-5.731-3.644-76.29-381.295-.4z" fill="#231f20" fill-rule="evenodd"/><path d="M113.472 256.129s31.111-2.392 53.056-8.646c21.944-6.254 36.411-2.576 64.497-13.346 29.188-11.196 4.096-.978 39.322-7.79 34.756-6.723 28.353-1.164 55.625-11.481 27.273-10.316 12.5-10.316 26.136-16.047 13.637-5.73 27.274-3.437 42.046-6.877 14.773-3.438 46.591-18.337 46.591-18.337l26.137-8.025 4.545 2.293 22.727-14.901 4.545-5.731-3.644-76.29-381.295-.4z" fill="none" stroke="#231f20" stroke-width="2"/><path d="M111.2 437.818s150-100 246.01-82.568" fill="none" stroke="#231f20" stroke-width="3"/></g><g clip-path="url(#n)" transform="matrix(1.33333 0 0 -1.33333 -143.454 979.347)"><path d="M289.334 389.525c.045.193.088.39.133.582l-.643.758.088.387-.193.044-.123 1.252c-.065.014-.129.03-.194.043l.159 1.596c-.065.014-.129.03-.194.043l.264 1.163-.445 5.197c-.207.502-.829.545-1.225.891l.043.193-.387.088c-.084.085-.103.305-.299.477l-.062.625.193-.044c.016.064.03.13.045.195.514-.336.758-.559 1.656-.785.235 1.132.416 2.072.274 2.995l-.194.044.133.582c-.064.013-.129.03-.193.043l.088.388c-.065.014-.129.03-.194.043.045.195.088.39.131.582-.062.015-.127.03-.193.044.09.388.176.776.266 1.163-.067.014-.129.03-.194.044.043.195.086.388.131.581-.064.016-.127.03-.193.045.045.194.09.387.133.581l-.194.044c.043.194.088.387.133.582l-.346.282c.059.258.117.517.178.775l-.193.044.088.388-.196.045c-.004.272-.011.544-.015.818l-.196.045.073 1.207c-.116.094-.231.187-.344.281l.088.388-.299.475.088.388-.194.044.088.388-.343.282-.123 1.251-.344.282c.029.13.058.258.09.388l-.301.475.088.388-.193.044.087.388-.341.282c-.041.417-.082.834-.125 1.251-.113.095-.229.188-.342.282l.088.387-.299.476.088.387c-.064.016-.129.03-.195.045l.09.387-.345.283-.123 1.25c-.115.095-.228.19-.343.283-.147.405.091.432-.211.863.244.907.658 1.147 1.322 1.331.038.447.102.513-.017.818l-.194.045.088.387-.344.282.089.387-.345.283c.032.13.061.26.09.387l-.344.282-.062.626-.193.044.087.387c-.113.095-.228.19-.343.283l.088.387-.342.282.088.387-.344.282.088.388c-.114.094-.229.19-.344.282l.088.388-.342.281-.062.627c-.065.014-.129.03-.194.043l.088.39-.344.28.088.388-.342.282.088.387-.343.283.088.387-.344.283.088.387-.344.282c-.039.417-.08.834-.121 1.251l-.344.282.088.388-.494.52c.031.128.06.257.09.387l-.494.52c-.02.208-.042.416-.061.625-.115.094-.231.188-.344.283l.088.387c-.113.094-.228.188-.344.282l.088.388-.342.282-.062.625-.492.52.088.388-.494.52.087.388-.492.52.088.386-.492.521c-.213.513-.19.912-.512 1.34-.33.473-1.092.44-1.654.784l.043.193-.776.178c.016.064.03.13.045.193l-.773.176.043.193-.775.178.044.193c-.257.06-.515.118-.776.176l.045.195-.968.22c-1.552.898-3.771 1.55-5.355 2.443l-2.281.722c-.463.26-1.936 1.155-2.821 1.05-.013-.064-.029-.129-.043-.194l-.388.09c-.014-.066-.03-.13-.043-.195-.129.03-.258.06-.389.088l-.043-.194-.389.088c-.013-.065-.029-.129-.043-.194-.129.03-.259.06-.388.088l-.475-.299c-.131.03-.26.06-.389.088l-.281-.343-4.274-.862c-.224.8-.451 1.598-.677 2.397-1.169.514-2.647 1.062-3.7 1.658l-2.281.723-.105.431-.387.09c.013.064.029.128.043.192l-1.313.503-.404.91c-.179.106-.358.215-.537.325-.086.222-.17.445-.256.67-.129.028-.258.058-.387.088.014.064.03.128.043.193l-.386.088c.013.064.029.13.043.193-.178.11-.358.218-.537.326l.089.39-.344.28c.014.065.03.13.043.194l-.386.088c-.299.35-.338.827-.748 1.191l.088.387-.389.087c.006.444.002.58-.211.864l.486 2.133.194-.045.52.494.388-.089c.172.165.346.33.519.493l.581-.133.283.344.582-.133.281.344 1.877.185c.372.145.66.597 1.189.75.282 1.26-.072 1.31-.334 2.113l-.582.132.645 3.726-.344.281.619 2.714.256 3.815-.193.044c.009.338.017.676.027 1.013-.064.014-.129.03-.194.043l.089.39c-.066.013-.131.028-.196.042l.133.582c-.113.094-.228.19-.344.282l.133.581-.193.045.088.387-.194.045.088.387-.299.476.088.387c-.263.332-.529.664-.793.996l.09.388c-.465.65-.929 1.298-1.392 1.948l-.854 1.621-2.793 2.063-1.506.546c-1.995 1.216-4.934 2.541-7.619 2.346-.76-.055-1.256.344-1.832.01-1.246.242-.945.058-1.224.89l-.194.043-.017.821c-1.043-.104-2.086-.205-3.127-.309l-.522-.492-.387.088a72.258 72.258 0 00-.282-.344c-.129.03-.259.06-.388.088l-.519-.492-.388.088-.282-.344-.389.09c-.172-.166-.345-.33-.518-.494a44.1 44.1 0 00-.388.088 81.367 81.367 0 01-.519-.494c-.705-.29-1.264-.248-1.817-.809l-.387.088c-.214-.405-.271-.45-.564-.687l-.193.044a44.1 44.1 0 01-.088-.388l-.433-.105-.044-.193-.431-.107-.088-.387c-.223-.085-.448-.169-.67-.255l-.088-.387a34.01 34.01 0 01-.432-.107 7.608 7.608 0 00-.045-.193c-.49-.287-.646-.036-1.144-.555-.065.015-.13.031-.195.044l.486 2.132c-.114.095-.229.19-.344.282l-.255.67c-.179.11-.358.217-.537.326l-.255.67c-.341.395-.235-.148-.494.52-.318.277-1.133.394-1.118.46-.869.631-.812-.01-1.339-.513-.064.016-.13.03-.195.045-.108-.18-.271-.733-.271-.733s-2.612.563-3.975.884c-.246.028-.857.07-1.264-.46-.774-.855-.863-1.793-1.181-3.706.041-.936.407-1.14.407-1.14s3.981-1.387 5.903-1.893l-.458-1.118c-.066.014.161-.849.36-1.1.189-.313 2.346-1.519 2.881-1.677-.187-.79-.396-2.248-.811-2.668-.209-.022-.418-.04-.626-.063-.38-.213-.584-.898-.741-1.46l2.387-1.157c-.285-1.327-.109-.842.467-1.533.172-.205.199-.66.404-.906-.467-1.683-3.189-3.273-4.502-3.664.068-.43.051-1.133.272-1.489.289-.797 1.502-1.252 2.254-1.736-.04-.648-.008-1.717-.379-2.563-.012-.029-.321 0-.283-.343l.792-.996c-.211-.24-.477-.506-.757-.643l-.221-.969.538-.327.854-1.62c.12-.943-.793-1.25-.441-1.939-.239-1.373.639-1.424 1.108-2.29l2.847-.038.043.195 3.576-.407c-.111-.966.49-3.113-.107-4.052l-.193.044c-.124-.243-.247-.488-.37-.732l-.431-.105c-.031-.129-.06-.258-.09-.388l-.194.044c-.292-.237-.345-.283-.564-.686-.709-.03-1.269-.489-1.814-.81l-.282-.344c-.13.03-.259.06-.388.088-.014-.064-.03-.129-.043-.193a85.53 85.53 0 01-.67-.256c-.125-1.217.572-1.707.588-2.783l.195-.045c.066-.3-1.426-.735-1.622-.854l-1.947-1.39a44.1 44.1 0 00-.388.088l-.282-.344-.388.088-.52-.493c-.128.03-.257.06-.387.088-.095-.115-.189-.228-.282-.343l-.625-.06-.045-.195-.387.09a58.54 58.54 0 00-.281-.345c-.209-.022-.418-.04-.627-.063-.014-.064-.03-.129-.043-.193-.131.03-.259.06-.389.088l-.281-.343-.389.09c-.332-.267-.664-.53-.996-.794-.128.03-.258.06-.387.088l-.996-.793a43.62 43.62 0 00-.386.09c-.332-.266-.665-.53-.997-.793l-.387.088-.995-.793-.389.088-.52-.493-.386.088a431.88 431.88 0 00-.76-.642l-1.857-1.004c-.031-.129-.06-.258-.09-.388l-.475-.3-.389.09a81.24 81.24 0 00-.519-.494l-.387.088-1.516-1.285c-.349-.94-.701-1.879-1.05-2.819l-.58.132c-.016-.064-.03-.129-.045-.194-.561-.027-.451.055-.715-.449-.461-.02-.518-.052-.863-.21-.014-.066-.03-.13-.043-.195l-.389.09-.475-.3c-.129.03-.257.058-.388.087l-.282-.342-.819-.018c-.095-.114-.188-.229-.282-.344l-.387.09-.283-.345-.387.088-.282-.343c-.13.03-.259.06-.388.088l-.519-.493c-.129.03-.26.06-.388.088a32.31 32.31 0 01-.282-.344c-.338.01-.676.02-1.014.028l-.045-.194c-.128.03-.258.06-.386.088-.014-.064-.03-.129-.043-.193l-.582.132-.045-.195c-.745.307-1.492.612-2.237.918.014.065.03.13.043.194-1.043.54-4.476-.117-5.004-.492-1.367.49-1.015 1.302-1.822 1.841l-1.937.442c.013.064.029.13.043.194l-2.668.812-.045-.194-1.25-.123c-.016-.064-.03-.129-.045-.194-.194.044-.387.09-.581.132-.015-.064-.031-.129-.044-.193-.129.03-.259.06-.388.088l-.044-.194c-.746-.082-2.892 1.115-3.357 1.376-.387.09-.775.177-1.162.264.015.065.029.13.045.194-1.403.77-2.294-.135-3.428.17l-3.699 1.656c-.066.428.082 1.202-.035 1.64l-.344.282-.061.625c-.891.422-1.764 1.742-3.311 1.568l-.044-.193-.388.088-.044-.194c-.482-.084-2-.158-2.607.186.013.065.029.13.043.195-.258.06-.516.117-.775.176a54.53 54.53 0 00-.106.432l-.387.088c-.086.222-.17.447-.256.67l-1.656.784.045.194c-.129.03-.258.06-.389.088.016.064.029.13.045.193l-.969.221.044.194c-.938.526-2.78.556-3.532.601-2.24.132-4.02 1.455-6.008 1.367-1.523-.066-2.6 1.348-3.726.645-.58-.02-.635-.219-1.102-.36l-.352-1.55c.749-.397 1.012-1.14 1.198-1.905l.193-.043-.221-.97c.065-.014.129-.03.194-.043l-.088-.389c.113-.094.228-.188.344-.28l-.221-.97c.064-.016.129-.029.193-.044l1.155-2.098.386-.089c.028-.533.159-.697.362-1.099.064-.016.129-.03.193-.045l-.088-.388s.27-.423.299-.475l.344-.283-.221-.969c.064-.014.129-.03.193-.043-.007-.338-.017-.676-.025-1.014l.73-.37.106-.432.581-.133-.044-.193.387-.088c-.014-.065-.03-.13-.043-.194.322-.074.645-.148.968-.22.782-.455 2.102-1.538 3.549-1.42l.045.194 1.207-.072.282.344.388-.088.043.193.389-.087.281.342c.194-.044.389-.089.582-.13l.044.192c.355.151.394.191.863.211l.089.388c.813-.02 1.426-.06 2.131-.486l.775-.176-.043-.194c.932-.222 2.055-.519 2.756-.423.078.668.023.752-.361 1.101.074.323.148.645.221.97 1.619-1.155 3.128-2 5.744-2.532.193-.4.103.018.344-.28.084-.226.17-.448.254-.67.065-.017.128-.03.194-.046.02-.209.042-.416.061-.625l.493-.52a44.1 44.1 0 01-.088-.388l.195-.044-.089-.388c.066-.014.128-.029.193-.044l.255-.669.926-.415c-.015-.064-.029-.13-.045-.194l.732-.369c-.015-.066-.031-.13-.044-.194l.775-.177-.045-.194.389-.087c-.016-.065-.03-.13-.045-.196.566-.196 1.134-.392 1.701-.59.033-.79.611-1.987.783-2.828l.924-.414.043.194 1.402-.116.704-1.382.388-.088.106-.432.386-.089c-.013-.064-.029-.129-.043-.194l.581-.132-.044-.194.387-.088c-.013-.065-.029-.129-.043-.194l3.919-.689c.035-.144.072-.287.106-.432l.731-.369a6.85 6.85 0 00-.045-.195l.538-.325.106-.432.388-.088-.045-.194.388-.088.106-.432c.244-.125.486-.248.73-.37l.106-.433c.683-.515 2.216-.348 2.757-.423 2.674-.372 5.36-1.27 7.69-1.139l1.551-.354c.015.065.029.13.045.194l1.549-.353c1.207-.07 2.415-.14 3.621-.212l.044.194 1.014-.028.043.195.82.016.044.194.581-.132.044.194a44.1 44.1 0 00.388-.088l.044.194.581-.133c.016.064.029.13.045.194l.818.017c.016.064.03.13.045.194.194-.044.387-.089.582-.132.014.065.03.13.043.194l.389-.088.043.193.582-.133.043.195.82.016.044.196.581-.133c.016.063.03.13.045.193l.387-.088c.016.065.029.13.045.194l.581-.133.044.193.82.02.043.192.389-.089c.013.065.029.13.044.195l.581-.132c.013.064.029.13.043.193l.82.018.043.193.582-.133c.016.065.029.13.045.194l.818.018c.016.064.03.13.045.194l.582-.132c.014.064.03.128.043.193l.821.018c.013.064.029.128.043.193l.582-.132c.013.064.029.13.043.193.273.007.546.013.82.018l.043.194.582-.132.045.193.818.017.045.195c.193-.044.387-.089.582-.132l.043.192.82.02c.014.062.03.127.043.192l.582-.133c.014.065.03.13.043.195l.821.016c.013.065.029.13.044.195.194-.044.387-.089.581-.132.015.063.029.13.045.193l.386-.089.045.195c.77.095 1.539.193 2.309.29-.184-.503-.365-1.005-.547-1.507l.193-.043-.088-.389.344-.282-.088-.388.342-.28.018-.82.194-.044.061-.626.343-.282.019-.82.343-.282c-.031-.129-.06-.258-.089-.387.115-.093.229-.188.343-.283l-.087-.387.193-.045-.088-.386.344-.283.017-.819c.065-.014.129-.029.194-.045.019-.207.041-.416.06-.625.116-.093.23-.187.344-.282l.018-.819.537-.326.3-.475c-.031-.13-.06-.26-.089-.389l.343-.28a175.94 175.94 0 00-.176-.776l.194-.045-.088-.387c.065-.016.129-.029.193-.045l-.027-1.014.344-.28-.088-.388c.115-.094.228-.189.344-.283-.016-.064-.03-.129-.045-.193l.388-.088-.044-.194.582-.132-.045-.194.582-.132-.045-.194c.244-.125.488-.248.732-.37l-.045-.194c.258-.06.517-.118.776-.176a8.976 8.976 0 01-.045-.196c.194-.043.388-.088.582-.13-.016-.065-.03-.13-.045-.196.194-.043.389-.088.582-.13l-.043-.196c.193-.043.387-.088.58-.13l-.045-.196.732-.369-.044-.194c.194-.045.387-.09.582-.133-.016-.064-.03-.129-.045-.193l.388-.09c-.015-.062-.029-.129-.045-.193.324-.072.647-.147.97-.22l-.044-.194c.064-.016.129-.03.194-.045-.293-.367-.631-.803-1.04-.986-.222-1.407.413-1.858.782-2.828l-.088-.386.344-.284-.088-.386c.064-.016.129-.03.193-.045l.063-.625c.07-.186.238-.045.104-.432-.064.014-.128.03-.193.043-.06-.258-.118-.515-.177-.775l-.193.045a99.198 99.198 0 01-.133-.582l-.194.045-1.199-2.58c-.064.013-.129.03-.193.042l-.459-1.119-.194.045-.087-.386c-.067.013-.131.03-.196.042-.043-.193-.088-.386-.133-.582l-.192.045-.132-.582c-.064.016-.13.032-.195.045l-.132-.582-.194.045-.131-.582-.195.045-.088-.389-.194.045c-.045-.193-.088-.388-.132-.582l-.194.045-.133-.582c-.064.016-.129.03-.193.045l-.133-.582c-.064.016-.129.03-.193.045l-.133-.582a6.722 6.722 0 00-.193.045c-.889-3.604-2.647-5.969-3.535-9.57-.321-1.407-1.829-1.942-1.782-3.055.035-.813-.453-1.059-.127-1.654-.351-1.549-.819.08-1.271-1.909-1.889-1.132-1.475-2.435-3.363-3.568l-.088-.387-.432-.105-.371-.73a30.262 30.262 0 00-.432-.108l-.088-.387-.431-.105-.371-.73-.432-.106-.369-.733-.195.045a95.759 95.759 0 00-.326-.537l-.43-.105c-3.075-3.649-6.148-7.299-9.221-10.948l-.432-.105c-.107-.18-.216-.357-.326-.537-.064.014-.129.03-.193.043l-.369-.73-.432-.106-.371-.73-.432-.106-.371-.732c-.142-.036-.287-.07-.431-.106l-.327-.537c-.064.016-.129.03-.193.045l-.088-.389c-.064.016-.129.03-.193.045l-.09-.387-.432-.107-.369-.73c-.144-.036-.289-.07-.431-.106l-.372-.73a67.623 67.623 0 00-.431-.106l-.326-.537c-.065.014-.129.03-.194.043l-.088-.387-.195.045-.088-.388c-.142-.036-.287-.07-.431-.106l-.37-.73c-.144-.036-.289-.07-.431-.106l-.653-1.076c-.144-.035-.289-.068-.431-.104l-.088-.388-.477-.299-.088-.389c-.064.016-.129.03-.195.045-.028-.129-.058-.258-.088-.389a4.481 4.481 0 01-.193.045l-.088-.386c-.064.013-.129.03-.193.043l-.089-.387c-.066.014-.13.03-.195.043l-.087-.387c-.065.014-.129.03-.194.043l-.088-.387-.195.045-.088-.388-1.684-2.47-.087-.388-.432-.105c-.217-.36-.434-.717-.652-1.074-.065.013-.129.03-.194.043l-.088-.387c-.064.014-.129.03-.194.043l-1.755-5.918-.013.002.005-.03c.9-1.068 1.723-2.873 1.723-4.687 0 1.814-.823 3.62-1.723 4.687.097-.513.174-1.04.241-1.574.4-.662.697-1.36.878-2.099.022.111.034.154.033.111.066-.004.132-.004.198-.006-.006-.248-.011-.848-.016-1.557a9.274 9.274 0 00-.009-1.332c-.008-1.019-.015-1.988-.023-2.32.066-.002.133-.002.199-.006l-.025-1.189c.066-.004.132-.004.198-.006l.156-1.99c.066-.002.132-.002.199-.006a4733.35 4733.35 0 00-.51-5.158l.199-.002a55.317 55.317 0 01-.008-.399c.066-.002.132-.004.198-.004l.182-.8.393-.205c-.003-.133-.005-.268-.009-.399.066-.002.133-.004.198-.004l-.008-.398c.066 0 .133-.002.199-.004l-.013-.596c.066-.002.133-.004.198-.004l-.555-16.49c-.2.006-.397.01-.596.014l.121-3.58c.051-.188.433-1.764.354-1.998-.066.003-.131.003-.199.005l-.009-.396-.603-.387-.013-.594-.199.004.29-4.976-.989.22c-.54-.453-1.08-.906-1.62-1.357-.056-2.236-.068-3.93.475-5.578l.199-.002c.183-.734 1.776-1.232 1.87-1.98l-.198.027-.139-.985c-.065.01-.131.02-.197.028l-.055-.393c-.141-.047-.283-.095-.422-.14a53.06 53.06 0 00-.056-.393l1.096-1.52-.417-.705c-.145-.025-2.115-.28-2.254-.33l-.052-.392-.446-.344-.053-.39c-.066.007-.132.017-.197.023l-.053-.393c-.065.008-.131.016-.196.026l-.053-.395c-.065.01-.132.018-.196.027l-.315-2.365c-.206-.037-.411-.078-.617-.119l-.026-.197c-.337-.022-.674-.045-1.011-.065l-.025-.197c-.133.018-.264.033-.395.051l-.025-.195-.618-.12-.249-.369-.395.055a48.152 48.152 0 00-.473-.54l-.394.05-.472-.537a14.747 14.747 0 00-2.403-1.487l-.249-.367c-.131.018-.263.035-.394.051l-.025-.195c-.197.025-.395.05-.592.078l-.026-.198c-.13.016-.263.036-.394.051l-.025-.195-.789.103c-.01-.064-.018-.13-.026-.195-1.117.15-2.233.295-3.35.444a7.38 7.38 0 01-.025-.194l-.396.051a5.988 5.988 0 00-.026-.199l-.789.105a4.505 4.505 0 00-.025-.199c-.731.033-1.463.062-2.193.092l-.827-1.694c-.428-.939-.513-4.69-.285-5.175.236-.233.474-.463.709-.696-.017-.133-.034-.26-.05-.396l.367-.248a6.6 6.6 0 00-.028-.196c.256-.105.51-.203.763-.302-.007-.065-.017-.133-.025-.199.309-.32.409-.524.906-.719.399-.444 1.273-.174 1.944-.459l-.026-.197 2.956-.393-.026-.197c.262-.035.526-.07.788-.108.72-.092 1.445-.187 2.167-.283 2.35-1.006 5.288-.494 7.198-.152.328-.045.656-.09.984-.13l.026.194c.263-.033.526-.068.789-.103.01.064.017.13.025.197.33-.043.658-.09.986-.129l.027.193c.263-.033.524-.068.788-.103l.026.2c.263-.036.527-.07.788-.108.008.068.016.132.026.197l1.8-.037.025.195c.864-.047 3.171 1.883 4.03 1.963a9.689 9.689 0 002.776.44l-.172-1.792c1.879-.298 4-.334 6.168-.298l2.584.041c1.422.435 3.261.966 4.953 1.07.06.885.68 1.711.353 2.79l-2.119 8.315c-.066-.002-.133 0-.199-.004-.002.198-.006.4-.01.596l-.199-.004-.006.4c-.066-.003-.131-.003-.197-.005-.143.596-.283 1.19-.426 1.783l-.199-.004-.006.4c-.066-.003-.133 0-.199-.005l-.217 1.191a6.605 6.605 0 00-.199-.004l-.006.397c-.066-.002-.133-.002-.199-.002l-.217 1.187c-.067 0-.133 0-.199-.004-.004.133-.006.268-.008.4-.067-.003-.131-.003-.197-.003.048 1.06.097 2.121.148 3.181l.199.004-.025 1.59c-.024 1.666 1.038 2.818.842 4.184-.133.004-.265.006-.398.008l.073 3.378.402.192.009.394c.134.065.268.13.402.192l.008.398.402.19.009.396c.133.065.267.127.401.19l.009.4c.201.125.403.256.605.383l.003.2c.462.313 1.028.35 1.41.763.065 0 .131-.002.198-.004l-.186.6c-.066.003-.132.003-.199.005l.009.397-.393.207.008.398c-.131.07-.262.137-.392.207l.007.4c-.13.067-.261.135-.392.206l.009.394c-.067.004-.133.004-.2.006l.268 3.176c.066 0 .133-.004.198-.004l.014.596c.065-.002.132-.004.198-.004l.013.594.199-.002.013.595c.067-.002.133-.004.199-.004l.224 1.188.199-.004.009.398.199-.005.017.794c.066 0 .131 0 .199-.003l.276 3.572c.065-.002.132-.004.198-.004l.009.396.198-.003.009.396c.066 0 .132-.002.198-.004l.423 1.184.199-.002.087 3.972c.097.516.471 1.764.254 2.58-.066 0-.133 0-.198.004l.021.993a6.603 6.603 0 01-.199.003l.008.4c-.065 0-.132.001-.197.003l.025 1.193c-.066 0-.133.002-.199.004l-.087 5.17.065 2.98c.067 0 .132 0 .199-.005l.035 1.591c.065-.002.132-.004.197-.004l.014.594.402.192.017.797c.066-.002.133-.006.198-.006l.228 1.386c.067-.002.132-.002.198-.005l.002.015c.005.276.008 3.408.013 3.606l.199-.004.012.595.2-.003c.003.2.007.396.012.595.067-.002.132-.002.198-.006l.018.797c.066-.002.133-.004.199-.004.001.067-.114-.68-.265-1.687.214.435.315.945.629 1.248.223.084.446.17.67.256.26.185.358-.608.424-1.588.483-.266 1.078-.135 1.68.015.008.375.016.651.024.688l.195-.045c.168.438.335-.133.502.305.064-.014.129.978.193.965.029.128.059-.75.089-.622.065-.013.13-.029.194-.042l.133.58c.064-.016.128-.03.193-.045l.176.775.194-.043.132.58.194-.043.132.582.195-.045.132.582c.064-.015.129-.029.193-.045l.133.582.431.106.133.582.194-.045.088.387c.065-.014.129-.03.195-.043l.131.58c.064-.016.13-.029.195-.045l.088.387c.064-.014.129-.03.193-.043l.133.582.193-.045.088.387c.065-.014.129-.03.194-.043l.459 1.12.431.104.088.387c.246.197 1.511.377 1.922.38l2.432 3.522.431.106.133.58c.065-.014.129-.03.194-.043l.132.582c.145.035.288.07.432.103.139.311.275.618.414.926l7.094 4.297c1.189.748 2.379-1.527 3.568-.779.569.357 1.002.838 1.666 1.05.215.178-.019.036.238.147.227-.602.704-.797 1.135-1.277l.256-.67.389-.088c.035-.143.07-.287.103-.432l.539-.326c.134-.303.27-.605.405-.908l.386-.088c.086-.223.172-.445.256-.67l.388-.088c.085-.223.171-.445.255-.67l.388-.088.255-.67.388-.088.404-.906.194-.045c.042-.416.082-.834.123-1.25.065-.015.129-.029.193-.045l-.088-.388c.065-.014.129-.03.195-.043l.122-1.252c.066-.014.13-.03.195-.043-.045-.194-.09-.389-.133-.582l.193-.045.018-.819c.065-.013.129-.029.193-.042l-.087-.389c.064-.016.128-.029.193-.045l-.088-.387c.064-.013.129-.029.193-.045l-.088-.386c.065-.014.129-.03.194-.043l.123-1.254c.064-.014.129-.03.193-.043l-.07-1.207c.064-.016.129-.03.193-.045l.018-.817c.064-.015.129-.029.193-.045l-.088-.386.344-.283-.027-1.014.343-.28.018-.822c.065-.013.129-.029.193-.043l-.087-.386c.064-.016.129-.03.193-.045l.123-1.252c.064-.014.129-.03.193-.043l-.07-1.207c.064-.016.129-.03.193-.045.042-.416.084-.834.123-1.25.065-.016.13-.029.196-.045-.075-.322-.149-.647-.221-.969l.193-.043-.089-.389c.066-.013.13-.029.195-.044l-.133-.58c.064-.016.129-.03.193-.045l-.158-1.594.194-.045-.071-1.207.194-.043-.133-.582c.064-.014.129-.029.193-.045l-.131-.58.194-.045-.133-.58c.064-.016.129-.029.193-.045l-.132-.582.195-.043-.133-.582c.064-.016.129-.029.193-.045l-.053-2.025.194-.045-.16-1.594c.065-.016.131-.029.195-.045l-.088-.387c.065-.013.128-.029.193-.043l-.132-.582.193-.045.018-.818c.064-.016.128-.029.193-.045l-.131-.58c.113-.096.229-.189.343-.283l.122-1.252.193-.043-.088-.387.196-.045c.04-.418.08-.834.122-1.25l.194-.045c-.023-.402-.049-.804-.072-1.207.065-.015.131-.029.195-.045l-.09-.386c.067-.014.13-.03.196-.045-.045-.194-.09-.387-.133-.582.064-.014.129-.03.193-.043l-.176-.776c.065-.013.129-.029.194-.043l.123-1.252c.064-.013.129-.029.193-.043l-.133-.582.194-.045-.088-.386c.064-.016.13-.03.195-.045-.029-.129-.058-.258-.089-.387l.343-.283.018-.818.642-.758.018-.82.344-.282.017-.82c.113-.094.229-.188.344-.28l-.089-.39c.114-.094.229-.188.345-.28l-.09-.39.344-.279.017-.82.493-.522a53.936 53.936 0 00-.089-.387l.194-.045.017-.818c.066-.016.13-.029.194-.045l-.131-.58c.064-.016.129-.029.193-.045l-.088-.387.194-.045-.088-.386c.221-.526.439-1.053.66-1.578.113-.094.229-.188.344-.282l.122-1.252c.165-.172.329-.345.493-.519l-.132-.582.343-.28.123-1.25c.857-1.013 1.715-2.023 2.571-3.033l-.071-1.209c.065-.013.129-.029.194-.043l-.07-1.207.193-.045-.088-.386c.064-.016.129-.03.193-.045l-.07-1.207.344-.282c.371-.648.402-.978 1.33-1.322-.406-1.17-1.309-1.637-1.975-2.404l-.088-.387c-.064.014-.129.03-.195.043l-.088-.387-.474-.3-.088-.387c-.21-.022-.419-.04-.627-.06-.345-.174-.216-.446-.759-.643-.007-.338-.017-.676-.025-1.014.064-.016.129-.029.193-.045-.103-.453-.207-.904-.308-1.355.064-.016.129-.03.193-.045l-.176-.776.194-.045a31.73 31.73 0 01-.089-.386c.27-.606.54-1.209.809-1.815l.927-.414-.045-.195.386-.088-.042-.193.386-.088.106-.432.537-.326.019-.82c.063-.014.129-.03.192-.043.054-.483-.668-1.78-.871-2.045a9.27 9.27 0 00-.194.045c-.322-.81-.642-1.62-.963-2.432l-.193.045-.37-.732-1.744.398-.327-.537-.431-.106-.088-.388-.195.045-.088-.389-.431-.105-.088-.387a54.53 54.53 0 01-.432-.106 44.1 44.1 0 00-.088-.388c-.621-.334-1.24-.668-1.859-1.004a110.17 110.17 0 01-.326-.535c-.066.013-.129.03-.195.043l-.176-.776c.179-.107.358-.217.537-.326l3.701 2.826.389-.088.06-.625c.065-.013.129-.029.194-.045l-.37-.73-.194.045-.132-.582c-.065.013-.131.03-.194.043l-.132-.58-.194.045-.089-.389-.194.045c-.044-.195-.087-.389-.132-.582-.065.014-.129.03-.194.043l-.132-.58c-.065.013-.129.03-.194.043l-.088-.387-1.384-.703-.282-.346-.386.09c-.413-.314-.824-.629-1.235-.94l-.387.086c-.253-.214-.505-.429-.759-.642-.127.03-.258.06-.387.088l-.281-.344c-.13.03-.259.06-.389.088l-.52-.494-.386.09-.522-.494-.386.087-.283-.343c-.258.058-.516.12-.774.177-.52-.089-.9-.46-1.533-.466l-.089-.387c-1.059.01-1.974-.465-2.978-.545l-1.162.264-.045-.194c-.452.104-.904.205-1.357.31l-.043-.195-1.551.352a13.397 13.397 0 00-.044-.193c-.272-.006-.546-.012-.819-.016-.412-.314-.822-.629-1.235-.943l-.193.045-.088-.389c-.301-.219-.701-1.477-.679-2.088l.193-.043c-.072-.322-.147-.646-.221-.969a15.047 15.047 0 00-.431-.105l-.502-1.313c-.065.014-.129.03-.194.043l.66-1.576c.809-.558 2.222-1.03 3.118-1.527.453-.102.904-.205 1.357-.309 1.531-.845 4.58-2.226 6.65-2.125.84-.19 1.68-.383 2.52-.572l.043.193 4.502-.82.045.191.386-.087.045.195.582-.133c.014.064.03.13.043.193l.821.018c.013.064.029.13.043.193l.388-.088c.014.065.03.13.043.194.194-.043.389-.088.582-.13.014.061.03.128.043.192.418.041.834.082 1.252.121.014.067.03.131.044.196l5.99-.549c-.023-.899.187-1.188.617-1.772-.015-.064-.029-.129-.045-.193.18-.109.36-.217.537-.326-.013-.065-.029-.129-.043-.193l11.91-2.303c.343 1.476 1.706 3.765 1.624 5.336l-.196.045.311 1.357c-.067.014-.131.03-.195.043.087.39.177.775.265 1.164-.064.014-.129.03-.193.043l.176.775-.194.045.176.774-.193.045.132.582c-.066.013-.13.03-.195.043.059.26.117.517.178.775l-.194.045-.017.818-.193.045c.007.338.015.676.025 1.014l-.344.281.133.582c-.064.014-.129.03-.193.043l.22.97c-.064.015-.129.028-.195.044.045.193.09.387.133.582-.065.014-.129.03-.194.043.12.517.237 1.033.354 1.551l-.193.045.175.775c-.064.014-.128.03-.193.043.147.646.293 1.293.441 1.937-.099 1.938 1.348 4.436.311 5.842l.131.58c1.051.442 2.101.881 3.152 1.321.104.453.207.904.309 1.357-.088.9-1.205 3.354.107 4.053l.574 2.52c-.658.693-1.314 1.386-1.972 2.077l.574 2.52c-.064.016-.129.03-.193.045l.088.39c-.165.17-.331.344-.495.518l.09.387-.344.281 1.032 3.64c-.11 2.1.248 4.624.099 6.704l.266 1.162c-.064.016-.131.03-.195.045l.177.775c-.066.014-.129.03-.193.043l.113 1.401-.193.045.176.775c-.065.014-.129.03-.194.043l.178.775-.195.045c.058.258.119.516.178.776l-.194.045.131.58a4.481 4.481 0 00-.193.045l.019 3.664c-.064.013-.129.03-.193.043l.025 1.013c-.064.016-.129.03-.193.045l-.018.82-.193.043.133.582c-.065.014-.129.03-.196.043l.09.39c-.066.013-.129.028-.195.042l.133.582c-.065.014-.129.03-.194.043l-.017.82c-.065.014-.129.03-.194.045.043.194.088.387.133.58l-.195.045c.029.13.061.258.09.387l-.195.045c.044.193.089.387.132.582-.064.014-.129.03-.193.043l-.018.82c-.064.014-.129.03-.193.043.043.194.088.39.133.582l-.195.045c.031.13.06.258.089.387-.066.014-.13.03-.195.043l.133.582-.193.045.087.387-.193.044-.141 2.071c-.064.013-.128.03-.193.043l-.018.82c-.064.014-.126.03-.191.043.043.195.088.39.129.582-.061.016-.127.03-.191.045l.484 2.131.193-.043c.016.064.03.13.045.193l-.193.043c-.358.936-1.856 1.465-2.121 2.32l.133.581a4.61 4.61 0 00-.196.045l.133.58-.193.045.088.386c-.065.014-.129.03-.194.043l.071 1.21-.195.042c.045.194.088.39.134.582-.065.014-.13.03-.194.043l.088.39c-.065.012-.129.028-.196.044l.073 1.205-.196.045.09.386c-.066.016-.129.032-.193.045l.07 1.207c-.064.016-.129.03-.193.045.269.89.539 1.78.811 2.668l-.345.282-.123 1.252-.341.281.088.388-.196.045c.061.258.119.516.178.774l-.193.045.052 2.025c-.064.016-.129.03-.193.045l.309 1.357c-.065.014-.129.03-.194.043l.088.39-.195.042c.025.402.049.805.072 1.207l-.192.045c.028.13.057.258.087.387l-.193.045.071 1.207c-.065.013-.129.03-.194.043l.088.388c-.064.014-.129.03-.193.043l.07 1.205c-.064.016-.129.03-.193.045l.088.39c-.065.013-.129.028-.194.042l.07 1.207c-.064.016-.128.03-.193.045l.088.387-.193.045.07 1.207c-.064.013-.129.03-.193.043l.087.388c-.064.014-.128.03-.193.043l.131.582c-.064.016-.129.03-.193.045.031.13.06.258.089.387l-.195.045c.029.13.061.258.09.386-.115.094-.23.188-.344.284-.17.502.045 1.064-.035 1.638-.064.014-.129.03-.193.043.093 1.61.189 3.22.283 4.828-.065.014-.129.03-.193.043-.086.381.048.778-.168 1.06l-.387.087-.299.476.088.387-.494.52c.01.338.019.675.027 1.013-.064.016-.129.03-.193.045l-.018.82c-.064.014-.129.028-.193.044.043.193.088.386.133.58l-.196.045c.075.322.149.646.221.968-.064.016-.129.03-.193.045.043.194.088.387.133.58l-.194.045.088.387c-.064.016-.131.03-.195.045.045.193.09.387.133.582-.065.014-.129.03-.194.043l.088.39c-.064.012-.129.028-.193.042l.308 1.357c-.064.014-.129.03-.193.043.072.324.146.646.221.97-.065.014-.129.028-.194.044.176.775.352 1.55.53 2.326-.065.013-.131.03-.196.043.061.26.119.517.178.775-.064.016-.129.03-.193.045l.75 3.295.881 3.875a6.786 6.786 0 00-.194.045c.104.451.205.904.309 1.355l-.194.045.176.776c-.064.013-.129.03-.193.043l.221.968-.344.284c.045.193.09.386.133.582-.065.013-.129.03-.194.043l.088.388-.344.282.133.582c-.064.013-.129.03-.193.043l.088.388c-.065.014-.129.03-.194.043.043.194.088.39.133.582-.066.014-.131.03-.195.045.207.902.412 1.81.617 2.713.066-.016.131-.029.195-.045.256.824.51 1.65.768 2.477-.066.013-.131.03-.193.043l.13.58c-.064.015-.128.031-.193.045l.264 1.164c-.065.013-.129.03-.194.043l.176.775c-.062.014-.129.03-.193.043.058.26.119.518.178.775l-.194.045.176.776-.193.045.175.773c-.091.883-.314 1.846-.158 2.891l-3.531.6c.57.341 1.078-.069 1.832-.01l.043.195c.324-.074.646-.149.971-.22 1.504.118 3.441-.03 4.914.103.322-.075.644-.147.968-.22.014.063.03.128.043.192.338-.007.676-.017 1.014-.027l.281.344.821.017c.093.116.187.23.281.344l.82.018c.094.113.188.228.281.343l1.252.123c.094.114.188.23.282.342.129-.029.259-.058.386-.088l.045.196c.129-.032.26-.06.389-.09l.281.344.819.017.283.344.818.017.283.344c.416.041.834.082 1.251.121.094.116.189.231.283.344l.818.018.283.343.387-.087c.013.064.029.128.043.193l.388-.088c.127.045.206.23.477.3l1.736 6.74-.193.042" fill="#231f20" fill-rule="evenodd"/><path d="M205.678 494.513c.29 1.109.242 2.083-.106 2.174-.348.09-.866-.735-1.156-1.844-.29-1.11-.24-2.083.106-2.174.348-.091.866.735 1.156 1.844" fill="#f3f2d1" fill-rule="evenodd"/><path d="M249.468 465.805c1.992-.579 4.362 3.497 5.462 5.043 1.1 1.545 4.763 4.123 7.035 2.898 5.724-3.085 2.644-9.694 2.644-9.694s-.26 13.04-7.271-1.983c-1.542-3.306-6.206-6.514-9.924-1.29-2.931 4.117-5.856 9.785-6.524 12.171-.67 2.384-.741 3.353-1.058 4.303-.315.95.654 1.024.896 1.041.24.02 1.942-10.51 8.74-12.489" fill="#231f20" fill-rule="evenodd"/></g><g clip-path="url(#o)" transform="matrix(1.33333 0 0 -1.33333 -143.454 979.347)"><path d="M305.691 382.795c.886 1.05 2.1 3.025 4.034 2.297 1.933-.73 3.764-1.223 5.706-3.008 1.946-1.785 1.418-1.342 3.736-1.795 2.316-.453 3.371-.443 6.422-.914 3.05-.47 3.192-1.187 4.201-2.486 1.005-1.295.571-2.88.671-3.114.104-.236 8.638-1.13 10.65-.876 2.014.253 11.731.76 12.482 1.478.753.715-2.479 1.553-2.782 2.693-.307 1.14-1.706 12.957-1.37 13.819.335.86-4.414 3.119-3.718 4.008.696.888 2.49 10.837 2.133 13.645-.357 2.809 2.24 10.783 3.576 11.392 1.336.61 2.817 4.61 2.817 4.61s-2.08 3.95-3.719 4.482c0 0-3.217 4.59-2.799 5.313.42.723-5.729-1.158-8.229-.292-3.232 1.119-1.27 4.338-1.27 4.338l-1.306 1.864.586.917s-1.278.085-.972.836c.307.75.271 1.147.56 1.75.248.528-2.613 1.366-2.75 2.229.197 1.722 3.037 5.499 4.264 6.609l-.885 2.114s.86.61.332.862c-.527.25-3.109.783-2.58 1.476.528.693 1.5 1.277 1.584 1.61.084.333.395 2.502.674 3.14.277.64 3.633 2.858 2.234 2.62-1.397-.24-2.31-.341-3.033-1-.724-.663-.829-1.325-1.424-1.685-.596-.364-4.512-.454-4.789-.074-.276.384-2.732 3.72-.739 9.216 0 0 3.913 1.326 4.6.242l.721-.574 3.294.408 2.398-2.305s8.492 7.45 13.44 7.386c4.947-.063 10.12.763 16.698-5.502 6.578-6.265.408-4.475 2.412-3.561 2.002.914 4.061 1.577 4.477.883.416-.697 2.761-11.57 2.761-11.57s-4.642-1.55-5.505-1.214c-.86.336-1.442 2.726-1.14-.777.298-3.503 1.495-3.922.91-4.365-.587-.444-5.035-1.215-6.12-2.242-1.086-1.028-3.23-4.39-3.79-6.138-.559-1.751 1.456-4.06 2.353-5.675 1.033-1.861 1.18-2.026 1.507-1.78 2.171 1.63 5.446 4.048 5.558 4.493.112.446 2.12 4.667 2.093 5.502-.026.834-.88 4.003.79 5.475 1.667 1.47 7.124 5.298 16.071 2.81 8.947-2.49 5.53-1.51 7.472-3.653 1.942-2.145 14.446-5.056 16.354-11.563 1.908-6.507-1.035-5.058-.176-7.284.858-2.224 12.296-10.776 13.76-16.7 1.465-5.923 3.716-5.9 3.625-10.485-.09-4.586-5.345-7.164-5.658-10.748-.312-3.586 1.475-17.155.465-22.102-1.008-4.945-2.706-7.002-6.13-10.277-3.427-3.274-3.563-2.412-3.563-2.412l1.41-4.727s-.846-7.115-2.407-10.504l-2.416 1.197s1.258 5.95 1.566 7.17c.308 1.223.477 2.364-1.439 3.2-1.917.838-7.013-4.854-10.264-4.155-3.253.702 2.485-11.261-4.396-19.812-2.507-3.115-1.076-12.731-2.19-14.813l3.241-6.371-.475-1.89-1.558-1.026 1.716-3.978.327-4.338-.842-4.278.86-2.7 1.195-9.518s1.64-1.95 2.332-2.477c.695-.53 4.035-8.41 4.722-12.248.688-3.838 8.061-18.693 8.061-18.693l1.551-3.7-.614-1.027s.131-5.115.993-5.924c.86-.806 5.183-9.46 2.707-9.9-2.474-.441-4.566 2.486-3.208.842 1.356-1.643 1.601.092 4.443-3.418 2.845-3.508.822-6.264 2.162-5.615 1.34.65-1.126-.411-.6-1.528.523-1.117 1.768-6.785 2.055-7.802.291-1.016 2.955-5.213 4.35-8.186.824-1.77 1.187-2.365 1.187-2.365l.317-1.725s-15.524-7.176-15.715-6.39c-.19.79-.807 2.025-.807 2.025s-6.025-2.526-8.328-6.035c-2.304-3.51-23.696 2.53-23.742 3.334-.046.8-.967.86-1.189 2.685-.22 1.826-.768 5.354.566 6.119 1.334.766 6.536 2.1 7.48 1.696.94-.408 2.41.02 2.947.627.541.607 1.99 3.33 2.937 2.812.95-.521 1.555-1.06 1.853-.24.296.822.655 2.564 1.383 1.918.725-.65.12-.108 1.035-.055.915.053.304.707 1.314 1.108 1.01.404.368-.438 1.432 1.002 1.067 1.439.647.728-.085 1.488-.733.762-.315 1.473-.185 3.203.131 1.73.974 3.04.713 3.602-.265.556 3.576 1.33 2.604 1.22-.972-.111-1.504-1.277-2.03-.552-.528.722-22.166 30.279-22.914 31.058-.749.779-12.528 22.537-10.393 19.28 2.135-3.256-7.528 14.726-6.415 14.445 1.112-.28-3.032 9.273-3.778 11.945-.746 2.67-4.339 3.375-4.58 3.713-.238.338-2.524-.504-4.292-1.916-1.765-1.41-2.825-1.62-3.704-2.633-.88-1.014-8.144-7.807-7.853-8.654.29-.846.3-1.465-.704-1.203-1.003.26-1.994.886-2.089.31-.102-.576.975-8.35.441-9.744-.53-1.391-.295-2.707-1.332-3.17-1.038-.463-3.97-2.04-4.809-2.947-.839-.906.395-.89 1.084-4.22.69-3.331-2.265-8.606-3.22-12.264-.52-2.01 2.01-.524.734-4.823 0 0-.646-2.33-3.013-3.386-2.37-1.06-2.544.726.092-6.172 2.638-6.9-.048-5.26-.333-6.008-.287-.75.108-4.213-.888-4.57-.997-.354-2-.092-2.096-.668-.1-.58-1.006-8.084-1.006-8.084l-.704-2.8s-3.126-1.751-7.568-.54c-4.449 1.21-7.214 2.636-7.964 2.924-.748.287-.67 2.095-.67 2.095s1.183.53-4.174 1.598c-5.36 1.068-4.036.684-6.373.35-2.336-.332-9.374 2.115-10.469 2.779-1.099.664-7.116 3.21-7.334 4.89-.218 1.678-.588 2.31-.389 4.446.204 2.129.623.986 1.037.46.413-.525.633 4.546 3.352 3.628 2.716-.918 1.053-.772 4.047-.321 2.997.45 4.232.467 5.17.354.937-.113 2.656.21 3.971.445 1.317.23 6.88 1.295 7.841.926.964-.367-.866.947-.416 2.123.452 1.178 6.446 11.4 5.823 12.008-.629.607-4.379 5.232-4.153 7.109.228 1.879 1.685 5.369 1.156 6.553-.529 1.185-.246 9.299.798 9.142 1.045-.152 2.937 22.44 3.306 23.405.37.963 2.264 7.845 3.268 9.179 1 1.338 7.113 10.9 8.2 10.854 1.087-.05 1.786 2.752 1.564 3.45-.224.7 5.267 3.507 5.8 4.9.532 1.392 3.731 2.377 4.141 3.447.41 1.07 3.507 4.674 3.507 4.674s4.37 3.726 5.874 4.133c1.505.406 6.604 2.476 6.797 2.783.198.304.254 1.943.254 1.943s2.225.859 2.531 1.137c.307.277.675 4.558.675 4.558s.777.278 1.921 2.944c1.145 2.668-2.43 3.677-3.045 4.195-.614.518-6.223-.453-24.547 9.283l-.7-2.258s-3.242.78-3.638.665c-.397-.118-2.785.248-2.785.248l-1.659.345-2.23-.515-2.557-.547s-4.058 1.767-4.98 2.094c-.924.33-2.019 1.699-2.019 1.699l-1.492 3.207-.938.49-.458 2.484.536 1.344-.354 2.248.7 2.256.884 1.053z" fill="#231f20"/><path d="M331.614 466.2c.15-2.1-.146-3.831-.66-3.868-.515-.036-1.053 1.638-1.2 3.736-.15 2.1.145 3.833.66 3.87.513.036 1.052-1.637 1.2-3.737" fill="#fff"/></g><g clip-path="url(#p)" transform="matrix(1.33333 0 0 -1.33333 -143.454 979.347)"><path d="M483.581 306.571c-1.334-.194-2.678-.376-3.999-.572-2.039-2.342-6.829-8.279-7.732-8.718-1.102-.534-2.02-6.02-2.832-8.17-.815-2.15-5.33-16.08-4.606-18.12.721-2.034-2.062-12.774-2.022-14.91.03-1.592-1.164-11.207-1.967-16.946 7.647-6.003 15.905-11.48 25.371-12.842-.152 1.353-.78 2.412-1.03 3.905-.389 2.295 1.05 3.096 1.451 4.386.403 1.29-.887 1.685-2.723 4.043-1.837 2.36.492 1.04 1.672 1.743 1.186.71 1.956 9.44 3.205 11.174 1.246 1.735 1.15 11.302 1.981 12.596.831 1.303 5.187 1.124 6.282 2.088.354.312 1.235 1.447 2.294 2.918v18.437c-4.85 6.247-11.534 14.176-15.345 18.988M473.191 335.945c0-.014.02.018.046.068-.013.057-.038.052-.046-.068" fill="#231f20"/><path d="M487.975 371.113c-3.85 4.043-14.27 3.427-19.297.682l.28.05 1.313-4.367s2.475 1.666 2.94.533c2.002-4.845 4.225-9.389 4.225-9.389l-1.841-5.632c-1.841-1.744-11.373-14.364-12.177-15.275.003-.217-.363-1.282-2.165-.44-1.548.72-4.05-1.605-4.05-1.605l-2.047-.196s-1.978-2.01-4.006-2.812c-2.026-.802-2.681-1.01-5.492-1.78-2.811-.767-2.001-1.406-2.532-1.852-.53-.44.412-6.09-.323-5.874-.735.213 2.576-4.136 2.576-4.136s7.857-3.085 10.3-2.21c2.448.878 5.57 1.358 6.703 1.824 1.13.47.863 4.328.642 6.981-.221 2.648.212.728.212.728l6.86 5.763s.743-1.91.373-5.604c3.723 4.531 7.575 8.858 11.435 13.176 8.275 9.408 12.552 23.82 6.07 31.435" fill="#231f20"/><path d="M497.917 407.495l-7.386 1.687s-.74.428-2.875 3.05c-2.134 2.62-1.609 1.822-1.609 1.822l-1.582-.859-2.266.524c-.944.25-.584 2.906-.672 4.635-.079 1.641.419 3.61 1.06 4.72.645 1.108 3.049 5.935 3.442 6.103.392.166 3.836.144 4.458.87.618.73-.894 1.013-.894 1.013l.947 9.13c-.167.391-.776 5.982-4.232 8.874-8.393 6.647-3.972 3.677-9.407 5.753-5.983 2.286-15.016-1.365-15.799-1.699-.788-.335.059.953.059.953l-1.705.297s-1.275-2.027-1.869-2.373c-.597-.344-4.504-4.696-4.504-4.696s-.143.775-.477 1.561c-.334.786-1.323.273-1.323.273l-1.406-1.06-1.894.308-4.113 1.595c-2.904-3.649-1.651-5.065-1.904-6.007-.248-.942 4.351-.844 5.291-1.096.944-.249 1.409-2 1.409-2l3.541-1.558s.964.131-.083-1.336c-1.05-1.466-1.645-1.81-1.478-2.205.165-.394 3.455.168 3.406-.594-.047-.763-.152-2.478-.414-3.612-.26-1.133.489-1.369.825-2.156.332-.786-3.348-4.577-3.777-5.316-.429-.739 2.396-1.489 2.325-2.63-.071-1.147-.32-2.089-.32-2.089l.883-1.202s-.325.251-.812-.716c-.332-.658 2.294-1.97 1.754-2.598-1.368-1.587-.348-2.837.694-3.31 1.698-.773 2.471.385 4.824-.285 2.056-.586 2.207-1.476 3.48-2.514 1.277-1.035 5.153-6.444 5.153-6.444s.93-.439-.13-2.096c-1.059-1.658-1.452-1.825-2.595-4.817-1.144-2.99-.832-7.22-.832-7.22s2.638-9.927 2.959-10.904c.32-.978 1.803-4.898 1.803-4.898l-4.205-2.99 1.24-1.61 4.456 1.893c4.299 3.785 14.329 6.68 18.973 3.584 8-6 7-21 1-32-2.813-5.062-5.618-10.13-8.252-15.37.107-.873.177-1.857.182-2.956.026-5.742-1.37-3.555-.655-4.362.714-.812-1.596-4.113-4.168-8.545-2.572-4.435-4.562-5.652-5.074-7.724-.379-1.54 17.233-15.599 26.057-22.78V403.43c-2.452 7.126-1.509 4.065-1.509 4.065" fill="#231f20"/><path d="M479.31 359.96s12.071-13.077 16.095-15.089c4.023-2.012 1.51 28.669 1.51 28.669l-20.12 12.071z" fill="#231f20"/><path d="M444.557 446.332c-.253-1.319-.83-2.317-1.291-2.229-.461.088-.63 1.229-.377 2.548.252 1.32.83 2.319 1.29 2.23.462-.088.63-1.23.378-2.549" fill="#fff"/><path d="M467.086 408.75c-1.796-7.559-7.058-15.594-6.103-27.435.959-11.92 8.316-12.169 8.937-21.651M471.334 406.809s-3.667-3.75-7.917-8.25" fill="none" stroke="#231f20"/><path d="M470.117 358.03c.531-2.05.384-3.862-.329-4.046-.713-.185-1.72 1.326-2.252 3.375-.53 2.05-.384 3.861.33 4.045.712.186 1.72-1.326 2.251-3.375" fill="#231f20"/><path d="M468.259 360.34s2.187-.197 2.498-.23c.626-.065 1.695-2.57.702-3.59-.207-.212-2.217-1.298-2.217-1.298z" fill="#231f20"/></g><text transform="matrix(1.33333 0 0 1.33333 46.26 90.562)" style="-inkscape-font-specification:Impact" font-weight="400" font-size="55" font-family="Impact" fill="#fff"><tspan x="0 39.435001 67.375 97.019997 112.86 142.67 152.35001 182.82001 212.85001 242.935 272.745 299.36499" y="0">MARIN COUNTY</tspan></text><text transform="matrix(1.33333 0 0 1.33333 23.064 851.919)" style="-inkscape-font-specification:Impact" font-weight="400" font-size="51" font-family="Impact" fill="#fff"><tspan x="0 26.367001 47.583 73.490997 100.98 129.23399 157.539 166.515 195.89101 204.867 232.356 253.57201 279.939 308.19299 336.09" y="0">SEARCH &amp; RESCUE</tspan></text><text transform="matrix(1.33333 0 0 1.33333 44.042 136.9)" style="-inkscape-font-specification:Impact" font-weight="400" font-size="36" font-family="Impact" fill="#fff"><tspan x="0 18.612 38.591999 53.568001 72.972 83.339996 97.667999 111.96 118.008 136.62 142.95599 162.864 177.84 195.01199 213.3 232.70399 249.3 275.112 290.08801 309.60001" y="0">SHERIFFS DEPARTMENT</tspan></text><g clip-path="url(#q)" transform="matrix(1.33333 0 0 -1.33333 -143.454 979.347)"><path d="M434.825 337.028c-7.3 1.814-50.039 12.797-58.007 14.78-5.983 1.49-38.006 8.745-38.006 8.745l-.247-.994s-4.295-14.443-.886-20.576c3.41-6.136 9.885-12.68 17.521-15.99 7.638-3.31 109.628-31.139 112.037-32.797 2.408-1.658 21.325-4.95 22.405-6.278 0 0 3.544-.89 9.481-2.384v38.108c-23.766 6.554-60.672 16.483-64.298 17.386z" fill="none" stroke="#231f20" stroke-width="4"/><path d="M467.39 289.202l21.768-91.06 8.958 8.474v74.476z" fill="none" stroke="#231f20" stroke-width="6"/><path d="M437.373 336.743c-5.237-15.32-6.571-18.789-9.474-22.816-2.903-4.03-3.789-9.508-6.25-9.846-2.459-.339-13.642 4.344-14.09 4.455-.449.111-.026 19.003 3.439 21.47M499.204 316.712c-4.348-11.746-11.36-34.225-19.64-32.794" fill="none" stroke="#231f20" stroke-width="4"/><path d="M338.139 349.835c74.187-34.337 74.138-34.504 82.887-37.234 7.492-2.338 65.204-18.589 74.707-20.479.885-.176 2.39-.527 4.398-1.019v14.399z" fill="#231f20"/><path d="M338.139 349.835c74.187-34.337 74.138-34.504 82.887-37.234 7.492-2.338 65.204-18.589 74.707-20.479.885-.176 2.39-.527 4.398-1.019v14.399z" fill="none" stroke="#231f20" stroke-width="2"/><path d="M493.667 243.009c-23.72 5.9-47.804-8.844-53.794-32.93-5.99-24.09 8.381-48.398 32.099-54.297 9.751-2.424 19.559-1.354 28.151 2.414v82.666a43.948 43.948 0 01-6.456 2.147" fill="#231f20"/><path d="M493.667 243.009c-23.72 5.9-47.804-8.844-53.794-32.93-5.99-24.09 8.381-48.398 32.099-54.297 9.751-2.424 19.559-1.354 28.151 2.414v82.666a43.948 43.948 0 01-6.456 2.147z" fill="none" stroke="#231f20" stroke-width="2"/><path d="M440.78 183.071l-1.674-.08-1.127 4.734 1.94.511zM437.432 189.51l-.706 3.808 2.408.39.938-4.191M439.854 208.214l-2.64.657.927 3.732 2.642-.66zM485.264 201.71l-2.641.658.927 3.728 2.64-.657zM439.513 195.32l-2.708-.22-.313 3.83 2.712.22zM439.485 202.01l-2.718.15.21 3.837 2.715-.146zM443.394 219.566l-2.357 1.36 1.922 3.33 2.358-1.36zM441.282 214.015l-2.572.889 1.251 3.63 2.573-.886zM446.223 224.55l-2.202 1.603 2.262 3.104 2.205-1.602zM454.68 234.76l-1.664 2.155 3.038 2.35 1.667-2.15zM449.854 230.35l-1.866 1.983 2.803 2.627 1.864-1.983zM460.132 238.696l-1.53 2.25 3.176 2.164 1.532-2.25zM469.688 242.216l-.565 2.66 3.756.8.566-2.663zM443.844 178.49l-2.383-1.314-1.853 3.366 2.382 1.314zM447.478 172.977l-2.063-1.778-2.511 2.904 2.06 1.78zM481.883 244.389l.216 2.712 3.829-.303-.216-2.717zM488.772 244.397l.562 2.66 3.758-.792-.563-2.662zM495.34 243.061l.947 2.553 3.604-1.34-.948-2.555zM499.71 341.218c-10.992 5.568-19.671 6.95-21.186 7.072-1.515.119-15.417 4.352-15.417 4.352l-5.1 1.265.662 3.705s-2.978 3.578-4.558 4.485c-1.577.909-2.612 1.939-3.703 1.694-1.091-.243-3.763.419-5.398.055-1.636-.368-1.943-.55-3.82-2.917-1.878-2.37-1.514-2.977-2.238-7.953-.72-4.978-.725-.85-.725-.85s-13.897.104-18.631.766c-4.736.66-7.464-.981-7.464-.981l-5.397-3.041-4.672.905 1.878 1.336.483 1.943.848 2.368s-1.701 1.455-2.25 2.362c-.546.91-2.67 1.698-2.67 1.698l-1.518.119-.002 2.063-.852.728-1.395-.428-.488 1.154-1.698-.61s-1.336 1.88-1.034 3.096c.304 1.213-.85.725-.85.725l-5.825-.614-3.094-.002.057 2.305-7.588 1.629c-1.64.666-9.038-3.166-11.341-4.141-2.305-.974-5.877-9.108-6.175-13.42-.3-4.307.85-8.221.85-8.221l140.732-39.736v36.886c-.138.067-.29.138-.42.203" fill="#231f20"/><path d="M447.563 309.41s1.163-9.35 1.15-13.198l21.766-91.063" fill="none" stroke="#231f20" stroke-width="6"/><path d="M464.608 303.728s-1.137-4.546-5.682-10.228" fill="none" stroke="#231f20" stroke-width="4"/></g></svg>