<svg version="1.1" id="Outlines" xmlns="http://www.w3.org/2000/svg" x="0" y="0" viewBox="0 0 298.1 290.6" xml:space="preserve"><style>.st3{fill:#157656}.st4{fill:#00b085}.st5{fill:#0077bd}.st9{fill:#a2752b}.st10{fill:#231f20}.st12{fill:none}.st13{fill:#a2772b}</style><circle cx="149.1" cy="139" r="87.6" fill="#fff"/><circle cx="149.1" cy="138.9" r="48.6" fill="#e45525"/><path d="M184.6 156.6H187c.4 0 1.6.1 2 .1s1.1-.1 1.4-.1h1.3c.4 0 2 0 2.5.1v.1c-9.9 25-38.1 37.3-63.1 27.4-13.6-5.4-24-16.5-28.5-30.4l.9-.3 1 .3c.3.1.6 0 .8-.1.3-.2.7-.2 1-.1.3.2.7.3 1.1.2.3-.1.6-.2.9-.2.3.1.6.2.9.2h1.4c.3 0 .6 0 .9-.1.2-.1.4-.1.6-.1.3.2.6.2.9.2.4-.1.8-.2 1.2-.2.3.2.6.3.9.2.4 0 .6-.1.8-.1h.3l-.1 5-.4.1v.9l-.4.1.1 3.4c.4.1.7.1 1.1.1.5-.1 1-.1 1.5-.1.8.1 1.5.2 2.3.1.3 0 .9-.1 1.2-.1l1 .1c.2 0 1.1-.2 1.4-.2s1 .1 1.2.1.5-.1.5-.1l-.1-3.4-.3-.1v-.8l-.5-.2.1-5h.4c.3.1.6.1.9.1.3-.1.5-.1.8-.1.2.1.5.1.8.1.5 0 .7-.1.9-.1.2-.1.5-.2.8-.1.3.1.6.2.9.2.3 0 1.4.1 1.4.1l-.2.2c-.1.1-.3.2-.6.6-.3.3-.6.6-1 .9-.3.3-.3.4-.3.4h.4c.2 0 .8.1 1.1.1s.6-.2.9-.2.5.1.8.1h3.5c.3.1.6.1.9 0 .2-.1.5-.2.8-.1.3.1.5.2.8.2.3.1.5 0 .8-.1.2-.1.4-.1.6-.1.2.1.3.1.5.1H145.8c.3-.1.6-.1.9-.1.2 0 .4.1.7.1h.7c.2.1.4.2.6.2.2 0 .5.1.7.1h2.3c.2 0 1 .1 1.3.1h1.6c.4 0 1 .1 1.5.1s.6-.2.9-.2c.2 0 .4 0 .6.1h.6c.2-.1.4-.1.5-.1l.8.2h1.6c.3.1.5.1.8.1.2 0 .5 0 .7-.2.3 0 .5 0 .8.1h2.2c.4 0 .8 0 1.1-.1.2 0 .5 0 .7.1h1.2c.4 0 .5 0 1 .1.4 0 .7-.1 1.1-.1.2 0 .4.1.7.1h2c.3-.1.6-.2.9-.1.3.1.5.1.8.1h4.1v2h-.3v.8l-.4.1v2.5c.3.1.7.1 1 0 .3-.1.6-.2.9-.1.4.1.7.2 1.1.2h.8c.2 0 .7-.2.9-.2.3.1.6.1.9.2.3-.1.6-.1.9-.1.4.1.7.1 1.1 0l-.1-2.5-.3-.1-.1-.7-.3-.1v-1.9h-.7zm-66.1-2v2.4l.9-1-.1-.6-.8-.8zm1.1-.7l.7 1 .8-1h-1.5zm2.5.5l-.9 1v.5l.9.9v-2.4zm-1 3.1l-.8-1-.8 1h1.6zm60-.3l1-.1-.5-.7-.5.8zm1.1-1l.8.9v-.7c-.3 0-.6-.1-.8-.2zm-2 .3l.1.5.4-.5h-.5zm-61.7 1.9v.6h.4l-.1.9 3.1-.1v-.8l.4-.1-.1-.6-3.7.1zm61.7-.5v.5h.4v.7h1.9l.1-.7.3-.1v-.6l-2.7.2zm-8.1 15.5h1.5c.2 0 .5 0 .7.1s.5.1.8.1c.3 0 .6-.1.8-.2.2-.1.4-.1.6-.1h.6c.2 0 .4 0 .6-.2.1-.1.1-.3-.1-.4h-.1c-.2 0-.4 0-.6-.1-.2 0-.7.1-.9.1-.2 0-.4.1-.6.1-.2 0-.3-.1-.5-.1-.3 0-.5-.1-.8-.1-.2 0-.5.1-.7.2-.2.1-.3.1-.5.1s-.5.1-.6.1l-.6.3c-.2.1.3.1.4.1zm-2-2.4c.2 0 .5-.1.8-.1s.5.1.8.1h.9c.2 0 .4-.1.6-.2h.4c.1 0 .4-.1.6-.2s.5-.1.7-.2.2-.2 0-.2h-2.7c-.2 0-.4.2-.7.2-.2 0-.4 0-.6-.1-.3-.1-.5-.1-.8-.1-.3 0-.6.2-.9.4-.2.1 0 .2.2.2.3.1.5.1.7.2zm-1.7.4c-.2.1-.4.1-.6.2-.2 0-.3.2-.1.2.1.1.2.1.4.1s.4-.1.6-.1.8.1.9.1.4-.1.6-.1c.2 0 .3 0 .4-.1.2-.1.1-.3-.3-.3h-1c-.2-.1-.3-.1-.5-.1-.1.1-.2.1-.4.1zm-4.4-2.1c.3 0 .7 0 1 .1.3 0 .7.1 1 .1.3-.1.6-.1.8-.3.2 0 .5.1.7.1h1c.3 0 .6 0 .9.1.3 0 .5-.2.7-.3.2-.1.4-.1.5 0H172.4c.4 0 0-.3-.2-.3s-.5-.1-.6-.1c-.2 0-.4-.1-.7-.1h-.7c-.3 0-.5.1-.8.1-.2 0-.4.1-.6.1-.4-.1-.7-.1-1.1-.2-.2-.1-.5-.1-.8-.1-.1.1-.3.1-.5.1h-.8c-.1 0-.3 0-.4-.1-.2-.1-.5-.1-.7 0-.3.1-.6.2-.9.4 0 .3.3.4.4.4zm4-1.7c.2 0 .4-.1.5-.1.2 0 .4 0 .6.1.2 0 .6.1.8.1h1.5c.2 0 .4-.2.6-.2s.1-.2 0-.2-.2-.1-.4-.1-.5-.1-.7-.1c-.1-.1-.3-.1-.4-.1-.2 0-.3.1-.5.1h-.5c-.2 0-.2-.1-.6-.1-.2 0-.3.1-.4.2-.1 0-.3.1-.4.1-.2.1-.2.3-.1.3zm.5-1.2c.2 0 .4-.1.5-.1.2.1.5.1.7.1.3 0 .3-.1.6-.1s0-.2-.2-.4c-.2-.1-.5-.2-.7-.1-.3 0-.6.1-.9.4-.1.2-.1.2 0 .2zm-6.4.5h1.1c.1 0 .5.1.8.1.2 0 .4 0 .6-.1.2 0 .4-.1.5-.1.2 0 .5.1.7.1s.7-.1.8-.1c.3 0 .6-.1.9-.2.2-.1-.1-.2-.3-.2-.2 0-.4-.1-.5-.1h-.6c-.2 0-.3.1-.6.1s-.6 0-.8-.1c-.3 0-.5 0-.7.1-.2.1-.4.1-.6 0-.2-.1-.4-.1-.6 0l-.6.3c-.2.2-.2.2-.1.2zm3.1-1.7h.6c.2 0 .4 0 .6-.1h1.4c.3-.1.5-.3.7-.3s.6 0 1-.1 0-.1-.4-.3c-.3-.1-.5-.1-.8-.1-.2 0-.4.1-.6.1-.2.1-.5.1-.7 0-.3 0-.6 0-.8.1-.3.1-.8.2-1 .3s-.1.4 0 .4zm-.8-1.5h.6c.3 0 .7 0 1 .1.3.1.6.1.9-.1.2-.1.7-.2 1-.3s0-.2-.2-.2h-.6c-.2 0-.4-.1-.6-.1s-.4.1-.6.1c-.2 0-.4-.1-.6-.1-.2 0-.5.1-.7.2-.2.1-.4.1-.6.2-.4.2.2.3.4.2zm-6.5-2.2h.8c.2 0 .3 0 .6-.1l1-.1c.2 0 .4 0 .6.1h1.1c.2 0 .8.1.9.1s.4.1.8.1c.3 0 .5 0 .8-.1.2 0 .5-.2.7-.2s.6-.1.9-.1.3-.2.1-.2c-.2 0-.3-.1-.5-.1h-.9c-.3 0-.7-.1-1-.2-.3-.1-.6-.1-.9-.1h-.8c-.4 0-.5.1-.9.1s-.4-.1-.8-.1c-.3 0-.6 0-.9.1-.4.1-1 .3-1.3.3s-.5.5-.3.5zm2-2.7c.1 0 .3 0 .4-.1h.7c.2 0 .4 0 .6.1.2 0 .5 0 .7-.1.3-.1.6-.1.9-.2h.7c.4 0 0-.1-.4-.3-.3-.1-.7-.2-1-.2-.2 0-.4 0-.6.1-.2.1-.4.1-.6 0-.3-.1-.6 0-.9.1-.2.1-.3.2-.5.3.1.1-.1.2 0 .3zm-8 .2c.3.1.4 0 .7 0s.4.2.6.2h.8c.4-.1.8-.1 1.1-.3.3 0 .7.1 1 .2.2 0 .5-.1.7-.1h.8c.2 0 .5-.1.8-.1s.1-.4-.1-.3c-.3 0-.5-.1-.7-.2-.2-.1-.5-.1-.8 0-.3 0-.5 0-.8-.1-.2-.1-.5-.1-.7-.3-.2-.1-.5 0-.7.1-.2.1-.4.2-.7.2-.3 0-.5 0-.7-.1-.3-.1-.6-.1-.8.1-.3.1-.5.3-.7.4s-.1.2.2.3zm7.7 4c.3 0 .7-.1 1-.2.4-.1.8 0 1.1.3.3.1.7 0 .9-.3.1-.2.4-.3.6-.4.4-.1.4-.1.1-.1h-.7c-.3 0-.6.1-.9.2-.3 0-.5 0-.8-.1-.4 0-.7 0-1.1.2-.2.1-.6.2-.8.2-.2.2.2.2.6.2zm.7 1.8c.2-.1.5-.1.7 0 .3.1.5.1.8.1.3 0 .5-.1.7-.2.4-.1.3-.1.1-.1s-.2-.1-.4-.1h-.6c-.3-.1-.5-.1-.8-.1-.1 0-.4.2-.5.4-.3.1-.2.2 0 0zm-.7 4.4c.2 0 .4.1.5.2.2 0 .4-.1.6-.1h.6c.4 0 .8-.1 1.2-.2.4-.1.3-.1 0-.2-.2-.1-.4-.1-.7-.1-.3.1-.7.1-1 0-.2-.1-.4-.1-.7 0-.3 0-.6.2-.9.4-.4.2.2 0 .4 0zm2 2.4c.5.1.5 0 .9.1s.8 0 1.2-.2c.4-.2.8-.2 1.1 0 .3.1.6.1.9 0 .4-.1.7-.1 1.1-.1.5 0 .1-.4-.1-.4s-.2-.1-.6-.1c-.3-.1-.7-.1-1-.1-.3.1-.5.1-.8.1-.2-.1-.4-.2-.7-.2h-.6c-.3-.1-.5 0-.8.1-.4.1-.5.3-.9.5s-.2.3.3.3zm2.5 3.8h.6c.3 0 .7.1 1.1.1.3-.1.6-.1.9-.2h1c.2 0 .4.1.5.1.1 0 .4 0 .8-.1.2 0 .5.1.7.1.3 0 .5-.1.7-.1.3 0 .5 0 .8-.1.2-.1.5-.1.7-.1.3 0 .6 0 .9-.1.3-.1.2-.4 0-.4s-.4-.1-.7-.1h-.9c-.4 0-.6.1-1 .1s-.4-.2-.7-.2h-1c-.4 0-.4.2-.8.2-.3 0-.6 0-.9-.1-1 0-1.9.3-2.7.7-.3.2-.1.3 0 .2zm-9.9-1.4c.3.1.5.1.8.1.4-.1.7-.1 1.1-.1.4 0 1-.1 1.4-.1.4 0 .7-.1 1.1-.2.4 0 .9.1 1.2.4.4.1.8 0 1.2-.1.5-.1.8-.3 1.2-.4h1.2c.3-.1.5-.2.7-.4.2-.1.3-.4 0-.4-.3-.1-.6-.1-.9-.1-.3 0-.7.1-1 .2H161c-.4 0-.8-.2-1.2-.3-.3-.1-.6-.1-.9-.1-.4 0-.5.1-1 .1-.3 0-.7-.1-1-.2-.4-.1-.8 0-1.1.1-.4.1-.7.4-1 .5s-.6.4-1 .6.1.4.4.4zm1.1-2.5c.2 0 .4.1.6.1.2 0 .4-.1.7-.2.3 0 .5.1.8.1h1.6c.2-.1 0-.3-.2-.3s-.7-.1-1-.1c-.3 0-.6 0-.8-.1-.3-.1-.6 0-.8.1-.3.1-.6.2-.8.3-.5.2-.3.2-.1.1zm-2.2-1.6c.3 0 .6 0 .9.1.3.1.6.1.8 0 .2-.1.5-.1.7 0 .4 0 .8-.1 1.1-.1s.7-.1.8-.1c.3 0 .6 0 .9-.1.3-.1.2-.1-.1-.1s-.5-.1-.7-.1h-.8c-.3 0-.6-.1-.9-.2-.3-.1-.6 0-.9.1-.2.1-.5.1-.7 0h-.7l-.9.3c-.4.3.2.3.5.2zm0-2.2h.5c.3 0 .5 0 .8-.1.3-.1.6-.1.9 0 .3.1.5.1.8 0h.5c.3 0 .6 0 .8.1.3.1.5 0 .7-.2.3-.1.5-.1.8 0 .3 0 .6-.1.9-.2.3-.1.3-.4-.1-.4s-.2-.1-.6-.1-.5-.2-.7-.2c-.3 0-.6.1-.9.2-.3.1-.6.1-.9 0-.3-.1-.5-.1-.8 0-.3.1-.7.2-1 .3-.3.1-.6.1-.9 0-.3 0-.6.1-.7.3-.2.2-.2.3-.1.3zm-22.6-.7h.7c.3 0 .7.1 1 .1.4.1.8.1 1.1-.1.3-.1.6-.1.9.1.4 0 .8 0 1.2-.1h.9c.3 0 .3-.2.2-.2-.1 0-.3-.1-.4-.1-.2-.1-.5-.1-.7-.1h-1c-.4 0-.4-.2-.6-.2-.2 0-.3 0-.5.1-.3 0-.6 0-.9-.1-.3 0-.6 0-.9.1-.4.1-.7.2-1 .4-.3.1-.1.2 0 .1zm2.3-2.1c.2.1.5.1.8 0 .3-.1.5-.1.8-.2.4 0 0-.2-.3-.2s-.5-.1-.7-.2c-.2-.1-.5 0-.7.1-.4.2-.1.3.1.5zm1.7-1.3c.2.1.4.1.6.2.3 0 .4-.2.7-.2s.5.1.8.1c.4 0 .8-.1 1.1-.1h1.4c.4.1.7.1 1.1.1.4-.1.5-.1.8-.2.3-.1.7-.1 1-.1.4 0 .2-.2-.1-.3-.3-.1-.6-.1-.9-.1-.3 0-.7.1-1 .1-.3 0-.6-.1-.8-.2h-.8c-.3 0-.5 0-.8-.1-.3-.1-.6-.1-.8 0-.3.1-.6.2-.9.2h-.8c-.4-.1-.4.2-.6.4s-.1.2 0 .2zm1.3 2.1h.5c.2 0 .5.1.8.1h.9c.3 0 .5 0 .7.2.3 0 .6.1.9.1.2 0 .5 0 .7-.2.2 0 .3 0 .5-.1.2 0 .4 0 .6.1.2 0 .6-.1.9-.1s0-.1-.3-.2-.4-.1-.9-.3c-.3-.1-.7 0-1 .1-.3 0-.5 0-.8-.1-.3-.1-.5-.1-.8-.1-.5 0-.7.2-1 .2-.3 0-.6-.1-.8-.1-.3 0-.6.1-.9.3-.2 0-.1.1 0 .1zm2 2.1c.3 0 .3.1.6.1.2 0 .4 0 .6-.1h.7c.2 0 .4.1.6.1.3 0 .6 0 .9-.1.3 0 .4-.1.6-.1.2 0 .5-.1.7-.2.3-.1-.1-.1-.4-.1-.3 0-.5-.1-.8-.2-.2-.1-.4-.1-.5 0-.2.1-.4.1-.7.1-.2 0-.5 0-.6-.1-.3-.1-.7-.1-1 .1l-.9.3c-.3.1 0 .2.2.2zm-6.2 1.7h.6c.3 0 .6-.1.9-.1.3 0 .6 0 .9.1.2 0 .3.1.5.2.3.1.7.1 1 0 .2-.1.5 0 .7.1.2.1.4.1.6.1.2 0 .4-.1.6-.1.3 0 .6-.1.8-.2.2 0 .5 0 .7.1h.6c.3 0 .6-.1.8-.2.2 0 .4-.1.6-.1.3-.1.2-.2-.1-.2-.2 0-.5-.1-.7-.2l-1.1-.3c-.3-.1-.7 0-1 .1-.3.1-.6.1-.9.2-.3 0-.6 0-.9-.1-.3 0-.4-.1-.6-.1h-.7c-.2 0-.5.1-.7.2h-.8c-.3 0-.6 0-.9.1-.4.1-.4.1-.8.3s-.2.2-.1.1zm2.4 2.4c.1 0 .2.1.3.2.1.1.3.1.4.1h.5l.8-.1c.3 0 .4-.1.7-.1.3 0 .5-.1.8-.1.2-.1.2-.1.1-.1-.2 0-.3-.1-.5-.2-.3-.1-.6-.1-.8-.1-.2-.1-.5-.1-.7 0-.2.1-.5.1-.8.1-.3 0-.6.1-.8.2-.2 0-.1.1 0 .1zm-8.6-1.5h.7c.2 0 .4.1.9.1.3 0 .7 0 1-.1.2-.1.5-.1.8.1.2.1.4.2.6.1.2 0 .6.1 1 .1h1c.3 0 .6-.1.8-.2.2-.1.1-.1 0-.1-.1-.1-.2-.1-.4-.1s-.5 0-.7-.1c-.2-.1-.5-.1-.8-.1h-.8c-.2.1-.3 0-.4-.1-.1-.1-.1 0-.5-.2-.3-.1-.7-.1-1 0-.3.1-.6.1-.8.1-.3 0-.4.1-.7.1-.2 0-.5.1-.7.3 0 .2-.1.3.2.3l-.2-.2zm-4.4 2h.5c.3 0 .5 0 .8.1h.8c.3 0 .6 0 .9.1.2.1.5.1.8 0 .2-.1.4-.1.6-.1.3.1.5.1.8.1.3 0 .6 0 .8-.1.3-.1.1-.1-.1-.3-.2-.1-.4-.1-.6-.1-.2 0-.5-.1-.8 0-.2 0-.4 0-.6-.1-.2-.1-.3-.1-.7-.2-.3-.1-.6 0-.8.1-.3.1-.7 0-1-.1-.2-.1-.4-.1-.7-.1-.3.1-.5.2-.8.4-.1.2 0 .3.1.3zm7.3 1.5c.3.1.7.2 1 .2.3 0 .6 0 .9-.1.2-.1.4 0 .6.1.2.1.3.1.5.1s.5.1.7.1c.2 0 .3 0 .5-.1.2 0 .4-.1.6-.1.2 0 .3 0 .4.1.2 0 .3-.1.7-.1.2 0 .5 0 .7.2.3.1.6.1.9.1.3 0 .6-.1.8-.3.2-.1.4-.1.6-.1.2 0 .7-.1.9-.1s.4-.1.6-.1h.7c.2.1.4.1.6.1.2 0 .2-.1-.1-.2-.2 0-.4-.1-.5-.1-.2-.1-.4-.2-.7-.2h-1c-.4 0-.6.1-1.2.1-.3 0-.7 0-1-.2-.2-.1-.4-.1-.6-.1-.2 0-.5.1-.8.1h-.5c-.2 0-.4-.1-.6-.1-.2 0-.4 0-.6-.1-.3-.1-.6-.1-.8 0-.2.1-.5.1-.8.2-.2.1-.4.1-.7.1-.2 0-.4.1-.5.2-.1.1-.4.1-.5 0-.3-.1-.5 0-.8.1-.3.2-.1.2 0 .2zm-3.4.8c.1.1.2.1.3.2.2.1.5.2.8.1.4 0 .4-.1.8-.1s.7-.1 1.1-.1c.4-.1.1-.2-.1-.3-.2-.1-.4-.1-.7-.1-.3 0-.6 0-.9-.1-.2-.1-.5 0-.7.1-.2.1-.4.2-.5.2-.2.1-.1.1-.1.1zm2.2 2.5c.2.1.5.3.7.3.3.1.3 0 .7.1.3.1.7.2 1 .2.6.1.6-.1 1.2 0s.7.1 1 .1 1.1 0 1.3-.1c.4 0 .8-.1 1.2-.2.5-.1 0-.4-.1-.4-.2 0-.4-.1-.6-.2-.3-.1-.6-.2-.9-.2-.3-.1-.4-.2-.9-.4-.3-.1-.7-.1-1-.1-.3 0-.6 0-.8.1-.3.1-.6.1-.9 0-.2-.1-.5-.1-.8 0-.4.1-.8.2-1.2.4-.1.3.1.4.1.4zm5.7 4.3c.1.2.4 0 .6 0 .3 0 .7 0 1 .2.2.1.6.1.8 0 .3-.1.7-.2 1-.2.5-.1.1-.4-.1-.4s-.6-.2-1-.3c-.2-.1-.4-.1-.6 0-.2.1-.4.1-.6.1-.3 0-.7 0-1 .1-.4 0-.2.2-.1.5zm2.5-3.8c.1.1.3.1.5.1h.9c.3 0 .7-.2 1.1-.2.3 0 .7.1 1 .1.4-.1.8-.2 1.1-.3.3 0 .7 0 1 .1.4.1.3-.1.5-.1h1.1c.4 0 .2-.4-.1-.3h-.7c-.3 0-.6-.1-.9-.2H137c-.3 0-.5.1-.7.2-.3.1-.6.2-.8.2-.5.1-.2.3-.2.4zm2.8 3.2c.1.1.3.1.4.1.2.1.4.1.7.1h.8c.3.1.6.1.9.1h2.3c.3 0 .7 0 1-.1h1c.3 0 .7 0 1 .1.2 0 .5 0 1 .1.3 0 .7 0 1-.1.3-.1.7-.1 1.1-.1h.9c.2 0 .5-.1.7-.1.2-.1.5-.1.9-.1s.2-.3.1-.3-.2-.1-.3-.1c-.4-.1-.8-.1-1.1-.2-.3-.1-.6-.1-.9-.1h-1.2c-.3 0-.7.1-1 .1-.2 0-.4 0-.6-.1-.2-.1-.4-.1-.7-.1H144.4c-.3 0-.5-.1-.8-.2-.3 0-.6-.1-.8-.2-.3-.1-.6-.1-.8 0-.3.1-.6.2-.9.2h-1.3c-.3 0-.5 0-.7.1-.3.1-.5.3-.8.4-.3.3-.3.4-.2.5zm4.8-2.7c.3.1.5.1.8.1.3.1.6.1.8 0 .1-.1.3-.1.5-.1h.5c.3 0 .4.1.6.1s.5-.1.8-.1c.3 0 .7 0 1-.1.4-.1.1-.3-.1-.3-.3-.1-.6-.1-.9-.1-.3 0-.6-.1-.8-.3-.1 0-.3-.1-.5-.1s-.5 0-.7-.1c-.2 0-.4 0-.7.1l-.6.3c-.3 0-.5.1-.8.1-.2.4.1.5.1.5zm-1.4-2.5c.1.1.2.2.4.2.2.1.9-.1 1.3-.1s.8.1 1.2.2c.3.1.7.1 1 .2.4 0 .5-.3.8-.3h.8c.1 0 .9-.1 1.2-.1.2 0 .4-.1.5-.1.2 0 .4 0 .6-.1.2-.1.3-.3 0-.3-.2-.1-.4-.1-.6-.1-.3.1-.5.1-.8.1-.3-.1-.5-.1-.8-.1-.4 0-.9-.1-1.3-.3-.3-.1-.6-.1-.9 0-.4.1-.4.1-1 .3-.3.1-.7.1-1 0-.5-.1-.9 0-1.4.2-.1.2 0 .2 0 .3zm9.1-.1c.2 0 .5.1.7.2.4.2.4-.2.6-.3h.5c.2 0 .5-.1.7-.2.3-.1.2-.2.1-.2s-.2-.1-.4-.1-.4-.1-.8-.2h-.8c-.3 0-.6.1-.7.4-.1.3 0 .4.1.4zm1.9 2.1c.3.2.6.3.9.3h1.9c.3 0 .7 0 1 .1.4.1.8 0 1.2-.1.4-.1.7-.1 1.1 0 .3.1.6.1.9.1h1.1c.3.1.6 0 .9-.1.3-.1.6-.1.9-.1.2 0 .3-.2.1-.2-.2-.1-.5-.1-.7-.1-.4 0-.5-.1-1.1 0-.5 0-.9-.1-1.3-.4-.3-.1-.7-.2-1.1-.1-.5 0-.7.3-1.1.3s-.6-.1-1.2-.1h-1.4c-.4 0-.7 0-1.1.1-.4.1-.7.2-1 .4-.1-.1 0-.1 0-.1zm1.3 3.9c.1.1.3.2.4.2.3 0 .7 0 1-.1.4 0 .7 0 1.1.1.5.1.9.1 1.4.1.4.1.8 0 1.1-.2.3-.2.6-.1.9.1.2.1.4.2.7.1.4 0 .5.1.8.1s.4-.1.7-.1h.9c.4-.1.7-.1 1.2-.2.3 0 .5-.2.6-.5 0-.3-.2-.3-.6-.4-.3-.1-.6-.1-.9 0-.3 0-.6 0-1 .1-.4 0-.8 0-1.1-.2-.2-.1-.5-.2-.8-.1-.3 0-.6.1-.9.1-.4 0-.8-.1-1.3-.2-.3-.1-.7 0-1 .1-.3.2-.6.2-.9.2-.4-.1-.8-.1-1.1 0-.3 0-.7.1-.9.3-.3.3-.4.4-.3.5zm10.6-3.3c.2.2.5.2.8.1.4 0 .8-.1 1.2-.1.3 0 .6.1.9.2.2.1.4.1.5 0 .4 0 .7 0 1.1-.1.3-.1.6-.1.9-.1.3.1.7 0 1-.1.3-.2 0-.5-.2-.6h-.8c-.3 0-.6-.1-.9-.2-.4 0-.7.1-1.1.3-.2.2-.5.2-.7 0-.3-.1-.7-.2-1-.1-.5 0-1 .1-1.6.3-.5.2-.3.2-.1.4zm-13.5-13.8c.2 0 .3.1.4.2.2.2.3-.1.6-.1s.3-.1.7-.2.1-.2-.1-.2c-.2-.1-.4-.2-.5-.2h-.6c-.2 0-.4.1-.6.2-.3.1-.1.2.1.3zm-2.5 1.2h.4c.2.1.5 0 .7-.1.2-.1-.2-.2-.4-.2s-.5 0-.7.1c-.4.1-.2.2 0 .2zm-4.4-1c.2 0 .3-.1.5-.1s.4 0 .6.1c.4.1.4 0 .7-.2.2-.1.4-.1.6.1h.9c.3.1.5.1.8 0 .3-.1.5 0 .8.1.3.1.7 0 1-.1.4-.1.2-.3 0-.4-.2-.1-.5-.2-.7-.2-.2 0-.5 0-.7-.1-.3 0-.7.1-1 .1-.3.1-.7.1-1 0-.3 0-.7 0-1 .2-.3 0-.6 0-.8-.1-.3 0-.6.1-.8.4-.4.2-.2.3.1.2zm.3 2.1c.3.1.5.1.8 0 .3-.1.6-.1.9 0 .4.1.7.1 1.1.1h2c.3-.1.6-.1.9-.2.2 0 .4 0 .6-.1.2 0 .5 0 .7.1.2 0 .2-.2.1-.2-.1-.1-.3-.1-.5-.1h-.8c-.2.1-.4.1-.6 0-.3-.1-.6 0-.8.1h-.8c-.3 0-.5-.1-.8-.2-.2-.1-.5-.1-.7-.1-.2 0-.4.1-.6.2-.2.1-.4 0-.6-.1-.2-.1-.3-.1-.5-.1s-.5.1-.6.3c0 .2-.1.3.2.3zm-1.7 2.8c.2 0 .4.1.6.1h1.1c.3.1.6.1.9.2.3 0 .7 0 1-.2.3-.1.7-.2 1-.2.2 0 .5-.1.8-.1.2 0 .9.1 1.3.1s.8 0 1.1-.1c.3-.1.1-.1-.2-.2-.3-.1-.6-.1-.9-.1-.3 0-.6 0-.9-.1-.3-.1-.5-.1-.8-.1h-.8c-.3-.1-.7-.1-1 0-.3 0-.5.1-.8.1-.2.1-.4.1-.6-.1-.3-.1-.5-.1-.8 0-.3.1-.6.2-.9.4-.3.3-.2.3-.1.3zm-.9 2.6c.1 0 .3.1.4.1.2 0 .5 0 .7.1.4.1.5 0 1 0 .3 0 .7 0 1-.2.2-.1.4-.1.6 0 .2 0 .4 0 .5-.1.1-.1.3-.1.5-.2h.8c.5 0 .6.2 1 .2.2 0 .5-.1.7-.2.2-.1.4-.1.6-.1l.6.1c.2 0 .4 0 .7-.1h.7c.3 0 .7 0 1-.1.2-.1.2-.2 0-.2-.1 0-.3-.1-.4-.1-.2-.1-.4-.2-.7-.2-.2 0-.5.1-.7.1-.3 0-.6 0-.9-.1-.2-.1-.5-.1-.8-.1-.3 0-.6 0-.9-.1-.4-.1-.4-.2-.8-.3-.4-.1-.8 0-1.1.1-.4.1-.6.2-1 .4-.3.1-.6.1-.9.1-.3 0-.6-.1-.9-.2-.3 0-.6.1-.8.3l-1.2.6c.2.1.2.2.3.2zm10.9-6.7c.2 0 .3 0 .5.1.3 0 .5 0 .8-.1.2-.1.5-.1.7-.1.2 0 .5 0 .7.1h2c.5 0 .4.1.5 0 .1-.1.3-.2.5-.2.3-.1.2-.2 0-.2-.1 0-.2 0-.3-.1-.3-.1-.5-.1-.8 0-.3.1-.7 0-1-.1-.2-.1-.5-.2-.7-.1-.3.1-.5.1-.9.2h-.9c-.2-.1-.4 0-.6.1-.2.1-.4.3-.6.4 0-.1-.1 0 .1 0zm0-2.2c.2 0 .4 0 .6-.1.2 0 .5 0 .7.1.3 0 .5 0 .8-.1.2 0 .4.1.6.1.2 0 .5-.1.7-.2.3-.1.1-.1.4-.1.2.1.3.1.5.1.3-.1.5-.2.6-.4.2-.2.1-.1-.2-.2-.2 0-.4 0-.5.1-.2 0-.5 0-.7-.2-.2-.1-.3-.1-.5-.1-.3 0-.6.1-.9.2-.3.1-.6.2-.8.1-.2-.1-.4-.1-.7 0-.3.1-.5.2-.8.3-.4.3-.2.4.2.4zm-9-.5h1.3c.4 0 .7 0 1.1-.1.4-.1.8-.1 1.1-.1.3 0 .5.1.8.3.2 0 .5-.1.7-.2.3-.1.5-.1.8-.2.2 0 .2-.2 0-.2-.1 0-.3 0-.4-.1h-.6c-.2-.1-.5-.1-.7-.1-.4 0-.7-.1-1.1-.3-.3 0-.7.1-.9.3-.2.1-.4.2-.6.2h-.6c-.3 0-.6.1-.9.2-.5.1-.2.3 0 .3zm5.3-1.5c.3 0 .6 0 .9-.1.3-.1.5-.1.8 0 .2.1.4.1.7.1h1.2c.2 0 .5-.1.7-.1.2 0 .4-.2.6-.2s.4.1.6.1c.1 0 .1-.1.1-.1 0-.1-.1-.1-.1-.1-.2-.1-.4-.1-.5-.1-.3 0-.3-.1-.6-.1s-.6-.1-.9-.1c-.2-.1-.5-.1-.7-.1-.3.1-.5.1-.8.2-.2.1-.5.1-.7 0-.2 0-.5 0-.7.1-.2.1-.5.2-.7.3s-.2.2.1.2zm-14.5.7h.5c.3 0 .2.1.6.1.3 0 .6-.1.8-.3.3-.1.6-.1.9.1.3 0 .7 0 1-.1.3 0 .1-.2-.1-.3-.3-.1-.7-.2-1-.3-.3-.1-.6 0-.9.1-.2.1-.5.1-.7 0-.2 0-.5 0-.7.1l-.6.3c-.1.2.1.3.2.3zm2.6-1.5c.2.1.3.1.5.1s.4 0 .6.1c.1 0 .4.1.8.1.3 0 .6 0 .9-.1.3 0 .4-.1.7-.1.3.1.5.1.8.3.2 0 .5 0 .7-.1.2 0 .7-.1 1-.2.2 0 .5 0 .7.1h.8c.3 0 .6 0 .9-.1.3-.1.6-.1.9-.1.4 0 .1-.3-.3-.3-.3 0-.6 0-.8.1-.3 0-.5-.1-.8-.2-.2-.1-.4-.1-.7-.1-.4 0-.8 0-1.2.1-.3.1-.6 0-.8-.1-.2-.1-.5-.1-.7 0-.2 0-.5 0-.7.1-.2.1-.4.1-.7.1-.2 0-.2-.1-.7-.1-.3-.1-.6-.1-.8 0-.3.1-.7.2-1 .3-.4 0-.2.1-.1.1zm3-1.8h1c.3 0 .2-.1-.1-.3-.3-.1-.6-.1-.8 0-.4.2-.3.4-.1.3zm3 .2h.8c.3 0 .5 0 .8.1.5.2.1-.1.7-.1h1c.4 0 .5-.1.9-.1s0-.2-.2-.3h-1.2c-.1 0-.2-.1-.6-.2-.2-.1-.5 0-.7.1-.4.1-.8-.1-1.4 0-.6.2-.4.4-.1.5zm5.5-.3h1c.3 0 .2-.2 0-.2-.1 0-.3-.1-.4-.1-.2-.1-.5-.1-.7 0-.3.1-.1.3.1.3zm.3 1.1h.9c.4-.1.1-.3-.2-.4-.3-.1-.7 0-1 .1-.8.2-.1.3.3.3z" fill="#004f7d"/><path class="st3" d="M122 152.6l.1-2.5-.2-.1-.7.9-.1.6zM120.3 152v.2l-.8.9 1.6-.1zM118.5 152.6l1-1 .1-.6-1-1-.1 2.6zM116.4 150.1c-2.4.1-6 .3-8 .3-2.1.1-4.3.3-6.4.7.2.9.5 1.8.8 2.6h-.1l.9-.3 1 .3c.3.1.6 0 .8-.1.3-.2.7-.2 1-.1.3.2.7.3 1.1.2.3-.1.6-.2.9-.2.3.1.6.2.9.2h1.4c.3 0 .6 0 .9-.1.2-.1.4-.1.6-.1.3.2.6.2.9.2.4-.1.8-.2 1.2-.2.3.2.6.3.9.2.4 0 .6-.1.8-.1h.3l.1-3.5zM132.8 149.8h-8.2v4h.4c.3.1.6.1.9.1.3-.1.5-.1.8-.1.2.1.5.1.8.1.5 0 .7-.1.9-.1.2-.1.5-.2.8-.1.3.1.6.2.9.2.3 0 1.4.1 1.4.1l-.2.2c-.1.1-.3.2-.6.6-.3.3-.6.6-1 .9-.3.3-.3.4-.3.4h.4c.2 0 .8.1 1.1.1s.6-.2.9-.2.5.1.8.1h3.5c.3.1.6.1.9 0 .2-.1.5-.2.8-.1.3.1.5.2.8.2.3.1.5 0 .8-.1.2-.1.4-.1.6-.1.2.1.3.1.5.1H145.6c.3-.1.6-.1.9-.1.2 0 .4.1.6.1h.6c.2.1.4.1.7.1.2 0 .5.1.7.1h2.3c.2 0 1 .1 1.3.1h1.6c.4 0 1 .1 1.5.1s.6-.2.9-.2c.2 0 .4 0 .6.1h.6c.2-.1.4-.1.5-.1l.8.2h1.6c.3.1.5.1.8.1.2 0 .5 0 .7-.2.3 0 .5 0 .8.1h2.2c.4 0 .8 0 1.1-.1.2 0 .5 0 .7.1h1.2c.4 0 .5 0 1 .1.4 0 .7-.1 1.1-.1.2 0 .4.1.6.1h2c.3-.1.6-.2.9-.1.3.1.5.1.8.1H178.9v-4.7s-1.7-.2-3.4-.3c-1.4-.1-5.9-.4-5.9-.4l-11-.5-9.4-.3-4.6-.1-2.6-.1M110.5 138v-2.4l-.3.2c-.2.1-.3.5-.6.8l-1.5.9.1.8v9.7l2.3-.1V138zM113.7 137.7v-4.4l-.4.3c-.4.3-.8.6-1.3 1l-.5.4v12.9l2.3-.1v-10.1h-.1zM105 148.3l2.2-.2v-9.6c-.4.2-.7.4-1.1.6-.6.2-.6.6-1.1.7v8.5zM116.3 147.7l.1-9.7c-.1-.5-.1-4.4 0-5.6-.2.1-.4.1-.6.1-.4 0-.8.1-1.2.2v4.1l.1 10.9h1.6zM104.1 148.4v-8.2c-.6.1-1.2.4-1.8.7-.5.3-1.8.8-1.8 1.1.1 2.3.4 4.5.9 6.7l2.7-.3zM118.7 137.4c0 .1.1.3.1.4l3.5.1.1-.3v-4.7c0-.3-.2-.5-.5-.6h-2.8c-.2.1-.4.3-.5.5v-.1c.1 1.3.1 4.4.1 4.7zM132.8 138.8v-4.9s-.3-.4-1-1.2-1.1-1.5-1.1-1.5v5.6l2.1 2zM130.8 138.2v9.1l2 .1v-7.2zM135.9 141.5v-4.1c-.9-.9-2-2.3-2-2.3V139.8l2 1.7zM139 140.4s-1.3-1.2-1.8-1.8l-.2-.2v3.9c.3.2.5.4.8.6l1.2.9.1.1-.1-3.5zM180.6 132.2c-.1-.2-.2-.5-.3-.7-.1-.3-.3-.5-.4-.8v1.3l.1.2h.6zM168.1 143.8v1l.1-.1.9-.5c.5-.3 1.1-.7 1.1-.7v-1.4c-.6.6-1.6 1.3-2.1 1.7zM176 135.6c-.4.6-1.5 2.1-1.8 2.5l.1 2.4.9-.9 1.1-1.2-.1-3.2-.2.4z"/><path class="st3" d="M197.6 136c-.2-3.1-.7-6.2-1.4-9.3l-.3.1h-.7c-.3 0-.6-.1-.9-.2-.4-.1-.8-.2-1.1-.3-.2-.1-.4-.2-.7-.3-.2-.1-.4-.2-.6-.2l-.6-.3c-.2-.1-.4-.1-.6 0-.3 0-.6.1-.9.3-.4.2-.3.1-.5-.1s-.4-.2-.6-.4c-.2-.2-.5-.3-.8-.4-.2-.1-.5-.3-.6-.5-.2-.2-.4-.3-.6-.5-.2-.1-.4-.3-.6-.4l-.9-.6c-.2-.2-.6-.4-.8-.6-.2-.1-.4-.1-.5 0-.2 0-.5.2-.7.3-.3.2-.6.3-.9.4-.4.1-.9.3-1.2.4-.3 0-.5 0-.7-.1-.3 0-.5.1-.8.2-.2.1-.7.4-1 .6-.2.1-.3.2-.5.1l-.8-.3c-.3-.2-.5-.3-.8-.5-.2-.2-.5-.3-.9-.4-.2 0-.4-.1-.5-.2-.1-.1-.2-.3-.4-.3-.2-.1-.4-.2-.6-.4l-.9-.6c-.2-.2-.5-.4-.8-.5-.2-.1-.5-.2-.8-.3-.3-.1-.6-.2-.8-.4l-.8-.4c-.3-.2-.6-.3-.9-.5-.2-.2-.3-.2-.4-.1-.2.1-.4.3-.6.4-.3.2-.6.6-.9.8s-.6.2-.9.4c-.3.2-.5.3-.8.4-.2.1-.5.2-.7.2-.3-.1-.5-.1-.8-.1-.3.1-.6.3-.9.5-.3.2-.4.1-.7.3s-.4.4-.6.5l-.9.3c-.4.1-.7.2-1.1.3-.3.1-.6.1-.9.1-.3 0-.6.1-.9.2-.3.2-.5.3-.8.3-.4.1-.6.2-.8.2s-.7.2-1 .3-.8.3-1.1.4-.6.1-1 .1c-.3.1-.5.2-.7.5-.2.1-.5.2-.8.2-.3.1-.6.2-.9.4-.3.2-.6.5-1 .7l-1.2.6c-.4.1-.7.1-1.1 0-.2-.1-.4-.1-.6 0-.2.1-.5.2-.7.4s-.8.5-1.1.6c-.3.2-.6.2-.9.2-.3 0-.6.1-.9.3-.3.1-.6.3-.8.5-.4.2-.9.4-1.3.5-.3-.1-.6-.3-.9-.5-.3-.1-.5-.3-.9-.4-.3-.2-.7-.4-1.1-.5-.2 0-.7-.3-1.1-.4-.3 0-.5 0-.8-.1-.2-.2-.5-.3-.8-.4-.2-.1-.8-.3-1.2-.5-.2-.2-.5-.2-.7 0-.2.1-.4.1-.8.3s-.9.3-1.2.5c-.4.2-.9.3-1.3.3h-.3c.4.7 1.4 2.1 2 3 .8 1.1 3.9 4.9 4.6 5.5.1.1.2.2.3.4.6.5 2.4 2.4 3.7 3.4.8.7 2.4 1.8 2.4 1.8.4.3 2.1 1.4 2.1 1.4 1.7 1 3.5 1.8 5.3 2.6 1.9.7 3.8 1.1 5.8 1.1 1.4-.1 2.7-.4 4-.8 1.7-.6 3.3-1.3 4.9-2.2l2-1.2 2-1.5c.6-.5 3.5-3.3 4.5-4.3.2-.3.4-.5.6-.8v.1c.2-.4.7-1 1.1-1.6l1-1.5s1.7-3.2 2.3-4.8c.3-.5.5-1.2.5-1.8h.7l.1.5h3.7l.1-.5.7-.1.1.6s1.2 2.8 1.9 4.2c.9 1.9 1.9 3.7 3.2 5.4 1.4 1.8 2.9 3.5 4.5 5.1 1.1 1 2.2 1.9 3.4 2.7.3-2.1.4-4.2.4-6.2-.4-.7-.4-1.7-.5-2.6z"/><path class="st3" d="M186.9 148.6l-.1-6.5s-.7-.8-1.2-1.5c-.4-.5-.8-1-1-1.2v5.6l.1 4.8 2.2.2v-1.4zM187.9 150.1l2.1.2v-5c-1.2-1.1-2-2.1-2-2.1l-.1 6.9zM190.9 146.2v4.2l2.1.2V148c-.3-.4-1.2-1.1-2.1-1.8z"/><path class="st4" d="M182.9 153.8l.1-1.8h-.4l-.4.6.1.5zM182.2 154l-.6-.6-.6.7zM182.1 154.7H181l.6.7zM181 152.7l-.8-.8v-.1 2l.7-.7zM183 155l-.8.9.1.4c.2 0 .4.1.6.1l.1-1.4z"/><path class="st3" d="M184.6 152.2v4.4h2.5c.4 0 1.6.1 2 .1s1.1-.1 1.4-.1h1.3l2.6.1c.4-1.1.8-2.2 1.1-3.3l-10.9-1.2zM133.8 141.1v6.4h2.1v-4.8zM126.7 132.2v-3c-.1 0-.2.1-.3.1-.3.2-.6.3-.9.4l-.6.3c.4.4 1.3 1.5 1.8 2.2zM129.4 136.8s-.8-1-1.5-1.7l-.2-.2-.1 2.5v9.9h2.1v-10.2l-.3-.3zM126.7 136v-2.3l-1.9-2.3-.2-.2.1 7.1v.2c0 .4.1 8.9.1 8.9h2l-.1-10.5c.1-.4 0-.7 0-.9zM128.5 134.3c.4.4 1 1 1.2 1.3l.1-6c-.1-.3-.3-.5-.4-.7l-.2-.2c-.2.1-.3.2-.5.3-.2.1-.5 0-.6-.1h-.3v4.4c.1.4.4.8.7 1zM122.4 142.2v-.8c0-.2-.2-.5-.5-.5h-.4v-.3h-1.9c0 .1-.1.2-.2.3-.3.1-.5.4-.6.8-.1.3-.1 5.8-.1 5.8l3.8.1-.1-5.4zM139.9 144.3c.3.2.6.3.8.5l1.2.6v-2.6c-.3-.2-.6-.4-.8-.6l-1.3-1 .1 3.1zM142 146.5l-1.2-.6c-.6-.3-.9-.5-.9-.5v2.2l1.2.1h.9v-1.2zM136.9 143.5l-.1 4 2.1.1-.1-2.7c-.1-.1-.5-.4-.9-.6s-1-.8-1-.8zM142.9 147.7h1.2v-.3l-1.1-.5zM145 144.9l-.3-.2c-.3-.2-1.1-.7-1.7-1.1v2.3l2 .8v-1.8zM189 143.1l1 .9v-4.4s-.5-.6-.9-1.2l-1.2-1.8-.1 5.3c.4.3.8.8 1.2 1.2zM193 146.8V143c-.3-.4-.6-.8-.9-1.1-.5-.5-1.1-1.2-1.1-1.2v4.2l2 1.9zM184.6 137.7l.2.1s.6.8 1 1.4c.2.2.6.7 1 1.3l.1-5.6s-.9-1.8-1.4-2.6-1.1-2.4-1.1-2.4v2.2l.1 4.9h.2l-.1.7zM183.1 136.6l-.3-.4-1.2-2.1h-.5c-.2.2-.3.3-.4.5-.2.3-.4.5-.6.8l.1 1.8h2.8l.1-.6zM170.1 148.7l.1-.1v-3.7l-2.1 1v2.7l1.7.1zM147.1 146.1c-.4-.1-.8-.3-1.2-.6v1.5c.4.2 1.6.5 2.1.6v-1.1c-.2-.2-.5-.3-.9-.4zM151.5 147.9c-.7-.2-2.5-.9-2.5-.9v.9h2.5zM165.1 147.3l.1 1.2 2 .1v-2.1l-1 .5c-.7.2-1.1.3-1.1.3zM165.1 145.7s-.1.6.7.2l1.4-.6v-.8l-2.1 1.2zM171.2 148.8l2 .1v-6.2l-2 1.5zM172.2 142.2c.3-.2.8-.6 1-.8v-2.1s-.7.6-1.4 1.4c-.2.2-.4.4-.7.6v1.5c.1 0 .7-.3 1.1-.6z"/><path class="st4" d="M181 155.9l-.1-.3-.6-.6v1.6h.5l.2-.7z"/><path class="st3" d="M181.8 145h-.7v.3h-.2c-.2.1-.4.2-.5.5-.1.3 0 3.6 0 3.6l2.6.2v-3.3c0-.3-.1-.5-.2-.8-.1-.1-.3-.1-.4-.1v-.3l-.6-.1zM177.9 138.2c-.2.2-.5.5-.7.8l-.1 6.3v3.8l1.5.2v-3.9l-.1-8c-.1.2-.3.5-.6.8zM174.2 142v6.9l2.1.1v-9.1l-1.3 1.3zM183.1 142.8l-.1-3c.1-.2-.1-.5-.3-.5h-2c-.2 0-.4.2-.4.5v3.2l2.6.1.2-.3zM179.1 129.8c-.2.4-.7 1.6-1 2.3-.2.6-.5 1.1-.9 1.6l.1 3.8c.4-.4.6-.7.7-.8.3-.4 1-1.2 1-1.2v-3.1l.1-.1v-2.5zM181.5 131.5l1.2-2.3h-2.2c.2.5.6 1.7.7 1.9 0 .2.1.3.3.4zM183.1 132.2c.2 0 .3-.2.3-.3l-.1-1.8-1.1 1.9.1.2h.8zM195.7 149.9c-.6-.4-1.2-.8-1.8-1.3v2.1l2 .4v.7c.1-.5.3-1 .4-1.5-.2-.2-.4-.3-.6-.4zM195.5 144.9c-.5-.4-1.1-.8-1.6-1.2l-.1 3.8s.6.5 1.2.9l1.5 1 .6-3.3-1.6-1.2zM164.1 147.5v.9l-2.8-.1z"/><path class="st5" d="M128.4 125.6l4.5 1.8c-.4.2-.9.3-1.2.5-.4.2-.9.3-1.3.3h-.3l-1.7-2.6z"/><path class="st5" d="M103.2 138.2c-.5.3-.9.6-1.4.9-.3.1 0 0-.7.4-.3.2-.5.5-.6.8v-1.5c0-1.5.1-2.9.2-4.4v-.7c2.8-26.7 26.8-46.1 53.5-43.3 20.2 2.1 36.9 16.5 42 36.2v.1h-1c-.3 0-.6-.1-.9-.2-.4-.1-.8-.2-1.1-.3-.2-.1-.4-.2-.7-.3-.2-.1-.4-.2-.6-.2l-.6-.3c-.2-.1-.4-.1-.6 0-.3 0-.6.1-.9.3-.4.2-.3.1-.5-.1s-.4-.2-.6-.4c-.2-.2-.5-.3-.8-.4-.2-.1-.5-.3-.6-.5-.2-.2-.4-.3-.6-.5-.2-.1-.4-.3-.6-.4l-.9-.6c-.2-.2-.6-.4-.8-.6-.2-.1-.4-.1-.5 0-.2 0-.5.2-.7.3-.3.2-.6.3-.9.4-.4.1-.9.3-1.2.4-.3 0-.5 0-.7-.1-.3 0-.5.1-.8.2-.2.1-.7.4-1 .6-.2.1-.3.2-.5.1l-.8-.3c-.3-.2-.5-.3-.8-.5-.2-.2-.5-.3-.9-.4-.2 0-.4-.1-.5-.2-.1-.1-.2-.3-.4-.3-.2-.1-.4-.2-.6-.4l-.9-.6c-.2-.2-.5-.4-.8-.5-.2-.1-.5-.2-.8-.3-.1 0-.1 0-.2-.1l10.3-7.5s-11.4 6.9-11.5 6.9l-1.1-.6c-.2-.2-.3-.2-.4-.1s-.4.3-.7.5l-.9.7c-.3.2-.5.2-.8.4-.3.2-.6.3-.9.4-.3.1-.6.2-.9.2-.3 0-.5-.1-.8-.1-.2.1-.4.2-.7.3l-.3-.3-.2-.3 8.6-13-10.5 11.7-2.4-1.2 4.5-17-6.5 16.2-2.6-.4-1.1-17.4-1.2 17.3-2.5.4-6.5-17 4.3 17.7-2.3 1.2-11.3-14.6 9.4 15.9-1.9 1.7-16.1-10.7 14.7 12.5-1.3 2.2-10.4-3s-1-1.9-1.7-3.4-1.4-3.6-1.4-3.6l-.1-.6h-1.4l-.1.7h-4.5l-.1-.7h-1.3s-1.1 1.9-2.9 4.2c-2.2 2.9-4.5 5.6-7.1 8.1-2.2 2-6 5-6 5l-.1 1c.3.1.6 0 .8-.2.6-.4 2.5-1.9 2.5-1.9l.1 5-.9 1.1z"/><path class="st5" d="M111.5 134.9l.4-.3c.5-.4.9-.8 1.4-1 .1-.1.3-.2.5-.4l-.1-2.3-2.2 2.2v1.8zM108.3 137.6c.5-.3 1-.7 1.4-1.1.2-.2.4-.4.7-.5v-1.8l-2.2 1.7.1 1.7zM105 138.3c.1.5.1 1.3.1 1.3.3-.1 2-.9 2.3-1l-.1-2.1-2.3 1.8zM101.6 140.3c.1.5.1.9.1.9.3-.1 1.2-.6 2.4-1.1v-1.2l-2.5 1.4zM114.7 132.6c.4-.1.8-.2 1.2-.2.2 0 .4-.1.6-.1v-2.7l.2-.3-.1-1.6-1.9 2.2v2.7zM124.6 130.2c.1 0 .1-.1.2-.1.2-.2.5-.3.8-.4.3-.1.6-.2.9-.4.1-.1.3-.1.4-.2l-.2-4.1-2.2-.9.1 6.1zM127.6 128.9h.3c.2.1.4.2.6.1l.6-.3-1.5-2.1v2.3zM105 131.8l2.3-2.1v5.7l-2.3 1.8zM108.2 128.8l2.3-2.4v6.2l-2.3 2zM111.4 125.3l2.3-2.8.1 6.9-2.4 2.4zM114.7 121.4l2.1-3v4.5l-.2.2.1 3-2.1 2.3zM118.6 119.3h3.1l-1.7 2.5z"/><path fill="#d2b460" d="M118.3 121.5l.4.1.6 1.1-1 .1z"/><path class="st5" d="M122.8 119.6l.1 3-2-.5zM124.4 119.9l1.8 3.7-1.7-.5-.1-.3zM120 125.5h1c.2.1 1.5 2.5 1.5 2.5v1.2l-.3.4-3.5-.1v-3.4l.3-.6h1z"/><path d="M149 288.2l-45.1-56.7-72.5.1 16.2-70.7-45.3-56.7 65.4-31.4L83.8 2.2 149 33.7l65.3-31.5 16 70.7 65.4 31.4-45.3 56.6 16.2 70.7-72.5-.1-45.1 56.7zm-.1-237.6c-48.6 0-88 39.4-88 88s39.4 88 88 88 88-39.4 88-88c0 0 0 0 0 0 0-48.6-39.4-88-88-88z" fill="#a2752b" stroke="#231f20" stroke-width="3" stroke-miterlimit="10"/><path d="M149 266.2l-38.3-47.8-61.2-.2L63 158.5l-38-47.9 55-26.7 13.8-59.6L149 50.6l55.2-26.4L218 83.9l55.1 26.7-38 47.9 13.4 59.7-61.2.2-38.3 47.8zm0-215.3c-48.6 0-88 39.4-88 88s39.4 88 88 88 88-39.4 88-88c.1-48.6-39.3-88-88-88 .1 0 .1 0 0 0z" fill="#d1b360"/><path class="st9" d="M202.4 28.4c.7 1 1.1 2.2 1.1 3.4 0 1.1-.2 2.2-.8 3.2.8.6 1.5 1.4 1.8 2.4.5 1.1.7 2.3.5 3.5-1.2-.9-2.6-1.4-4-1.4-1.2.1-2.4.4-3.4 1 .3.5.6 1 .8 1.5.2.5.3 1.1.3 1.6.4-.2.8-.4 1.1-.7.4-.4.7-.8 1-1.3.7.6 1.3 1.3 1.7 2 .4.9.7 1.8.9 2.7.3-.6.6-1.1.8-1.8.2-.6.3-1.2.4-1.8 1.3 1.5 2.1 3.3 2.3 5.2.2 1.5.1 3.1-.2 4.6.3 0 .5-.1.8-.2.3-.2.5-.3.7-.5 0 .9-.2 1.8-.5 2.7-.3.7-.7 1.3-1.2 1.8-.3.3-.1.7.4.6.7-.2 1.3-.5 1.8-1 .4.9.5 1.9.2 2.8-.2.8-.5 1.5-.9 2.2 1.3 1.4 2.3 3 2.9 4.8.8 2.5.9 5.2.3 7.7-.6-1.5-1.4-2.8-2.5-3.9-1.5-1.4-3.8-2.1-4.8-3.6-.6-1-1-2.1-1.2-3.3-.7.3-1.5.4-2.3.3-.8-.1-1.5-.4-2.2-.8.1-.5.1-.9 0-1.4 0-.5-.2-.9-.4-1.3-.8.1-1.7.2-2.5.1s-1.5-.3-2.2-.5c-.1-.8-.3-1.6-.6-2.3-.3-.7-.8-1.4-1.4-2-.6.3-1.2.6-1.8.8-.6.2-1.3.3-2 .3-.1-.8-.4-1.5-.7-2.1-.4-.7-1-1.4-1.7-1.8-.5 1.1-1.4 2-2.6 2.4-1.3-1.5-2.9-2.8-4.8-3.6-4.6-2-8.3 1.6-8.3 1.6l-1.3 1.3-7.9-1.5 1.2-2.2c1.2-1.4 2.7-2.6 4.3-3.5 3.4-1.9 8.6-2.1 11-3.4 1.6-.8 2.7-2.2 3.1-3.9.8.1 1.5.3 2.2.8.6.3 1.2.8 1.7 1.3.2-.6.3-1.2.2-1.8 0-.6-.1-1.1-.4-1.6.7-.3 1.4-.4 2.1-.5.9-.1 1.8 0 2.6.3.1-.3.1-.5.1-.8-.1-.3-.2-.5-.4-.7.7-.3 1.5-.4 2.3-.3.9.1 1.8.4 2.6.9.1-.4.1-.9-.1-1.3-.2-.5-.5-.9-.9-1.3 0 0 .2-.5 1.6-.7.9-.2 1.9-.2 2.9 0 .4-.9 1-1.6 1.8-2.2 1.3-1 2.1-.9 3.2-1.5.6-.7 1-1 1.3-1.3zm-8.9 16.2c-.8.1-1.4.7-1.4 1.5.1.7.9 1.1 2 1 1.1-.2 2.1-.6 2.9-1.3.5-.5.3-.7-.2-.9-1.1-.3-2.2-.4-3.3-.3zM95.7 28.5c1.2.1 2.4.5 3.4 1.3.9.7 1.6 1.6 2 2.6 1-.3 2-.3 3 0 1.2.3 2.2.9 3 1.8-1.4.4-2.7 1.1-3.6 2.3-.7 1-1.2 2.1-1.3 3.2.6 0 1.1.1 1.7.3.5.2 1 .4 1.4.8.1-.4.1-.9.1-1.3-.1-.5-.2-1.1-.4-1.6.9-.2 1.8-.2 2.7 0 .9.2 1.8.5 2.7.9-.2-.6-.5-1.2-.9-1.7-.3-.5-.7-1-1.2-1.4 1.9-.1 3.8.4 5.5 1.5 1.3.8 2.5 1.8 3.5 3 .2-.2.3-.5.3-.7v-.9c.7.5 1.3 1.3 1.7 2.1.3.6.5 1.3.6 2 0 .4.5.5.7 0 .3-.6.4-1.3.3-2 1 .2 1.8.8 2.4 1.6.5.6.9 1.3 1.1 2.1 1.9-.2 3.8.1 5.6.8 2.5.9 4.6 2.5 6.2 4.6-1.5-.5-3.1-.6-4.6-.5-2 .3-4 1.7-5.7 1.5-1.2-.2-2.3-.5-3.3-1.1-.2.8-.6 1.5-1.2 2s-1.3.9-2 1.2c-.3-.4-.7-.7-1.1-.9-.4-.3-.8-.4-1.3-.5-.4.7-.9 1.4-1.4 2-.5.5-1.1 1-1.8 1.4-.7-.4-1.4-.7-2.2-1-.8-.2-1.6-.2-2.4-.2-.1.7-.3 1.3-.5 1.9-.2.6-.6 1.2-1 1.8-.7-.4-1.4-.6-2.1-.8-.8-.1-1.7-.1-2.5.2.6 1.1.7 2.4.3 3.5-2 .1-4 .6-5.8 1.5-4.4 2.4-3.9 7.5-3.9 7.5l.2 1.8-6.1 5.2-1-2.3c-.4-1.8-.4-3.7-.1-5.6.6-3.9 3.7-8 4.2-10.7.4-1.7 0-3.5-1.1-4.9.6-.6 1.2-1 2-1.2.7-.3 1.4-.5 2.1-.5-.3-.5-.7-1-1.2-1.3-.4-.3-1-.6-1.5-.7.2-.7.5-1.4.9-2 .5-.7 1.1-1.4 1.8-1.9-.1-.2-.3-.4-.6-.6-.3-.1-.6-.2-.9-.1.2-.8.6-1.5 1.2-2 .7-.6 1.4-1.1 2.3-1.4-.3-.4-.6-.7-1.1-.8-.5-.2-1-.2-1.6-.1 0 0-.3-.5.4-1.7.4-.9 1-1.6 1.8-2.2-.4-.9-.6-1.8-.6-2.8 0-1.7.7-2.2.9-3.4v-1.6zm7.2 17c-.5.7-.3 1.6.3 2.1.6.3 1.4 0 2-.9.5-.9.8-2 .8-3.1 0-.7-.4-.6-.8-.4-1 .6-1.8 1.4-2.3 2.3zM29.4 111.6c.8-.9 1.9-1.6 3.1-1.8 1.1-.3 2.2-.3 3.3.1.4-1 1-1.8 1.9-2.3.9-.8 2.1-1.2 3.3-1.3-.6 1.3-.8 2.8-.5 4.2.3 1.2.9 2.2 1.7 3.1.4-.4.8-.8 1.3-1.2.5-.3 1-.5 1.5-.6-.3-.4-.6-.7-1-.9-.5-.3-1-.5-1.5-.7.4-.8 1-1.5 1.7-2.1.7-.6 1.5-1.1 2.4-1.5-.6-.2-1.3-.3-1.9-.4-.6-.1-1.3-.1-1.9 0 1.2-1.5 2.8-2.7 4.6-3.3 1.4-.5 3-.8 4.5-.8 0-.3-.2-.5-.3-.7-.2-.2-.4-.4-.7-.6.9-.2 1.8-.3 2.7-.1.7.1 1.4.4 2 .8.3.2.7-.1.5-.6-.3-.6-.8-1.2-1.4-1.6.8-.6 1.7-.9 2.7-.8.8 0 1.6.2 2.3.4 1-1.6 2.4-2.9 4.1-3.9 2.3-1.3 4.9-2 7.5-2-1.3.9-2.4 2-3.2 3.3-1 1.7-1.2 4.2-2.4 5.4-.9.8-1.9 1.5-3 1.9.5.6.7 1.4.8 2.1.1.8 0 1.6-.3 2.3-.5 0-.9.1-1.4.3-.4.1-.8.4-1.2.7.3.8.5 1.6.7 2.4.1.7.1 1.5 0 2.3-.7.3-1.4.6-2.1 1.1-.6.5-1.2 1.1-1.6 1.8.5.5.9 1 1.2 1.6.3.6.6 1.2.8 1.9-.7.3-1.4.7-1.9 1.2-.6.6-1.1 1.3-1.4 2.1 1.2.2 2.3.9 2.9 2-1.2 1.6-2.1 3.5-2.5 5.5-1 4.9 3.4 7.7 3.4 7.7l1.6 1 .2 8-2.5-.7c-1.7-.9-3.2-2-4.5-3.4-2.6-2.9-3.9-7.9-5.8-9.9-1.1-1.4-2.7-2.2-4.5-2.2-.1-.8 0-1.6.2-2.3.2-.7.5-1.4.9-2-.6-.1-1.2 0-1.8.2-.6.1-1.1.4-1.5.8-.4-.6-.8-1.3-1-2-.3-.8-.4-1.7-.3-2.6-.3 0-.5 0-.8.1-.3.1-.5.3-.6.6-.5-.6-.8-1.4-.8-2.2-.1-.9 0-1.8.3-2.7-.5 0-.9.1-1.3.4-.4.3-.8.7-1.1 1.1 0 0-.5-.1-1-1.4-.4-.9-.6-1.8-.6-2.8-.9-.2-1.8-.6-2.6-1.2-1.3-1.1-1.3-1.9-2.1-2.8-.4-.5-.7-.7-1.1-1zm17.8 5c.3.8 1.1 1.2 1.8 1 .6-.2.9-1.1.6-2.1-.4-1-1.1-1.9-1.9-2.5-.6-.4-.7-.1-.8.4-.3 1.1-.1 2.2.3 3.2zM53.2 215.3c-.2-1.2 0-2.5.5-3.6.5-1 1.2-1.9 2.1-2.5-.5-.9-.7-1.9-.6-2.9 0-1.2.4-2.4 1.1-3.4.7 1.3 1.7 2.3 3 3 1.1.5 2.3.7 3.5.6-.1-.6-.1-1.2-.1-1.7 0-.6.2-1.1.5-1.6-.4 0-.9.1-1.3.2-.5.2-1 .4-1.4.7-.4-.8-.6-1.7-.6-2.6 0-1 .1-1.9.3-2.8-.5.3-1.1.8-1.5 1.2l-1.2 1.5c-.5-1.9-.4-3.8.2-5.7.5-1.4 1.2-2.8 2.2-4-.2-.1-.5-.2-.8-.2-.3 0-.6.1-.9.2.4-.8.9-1.6 1.6-2.2.5-.5 1.2-.8 1.8-1.1.3-.1.4-.6-.1-.7-.7-.1-1.4-.1-2.1.1 0-1 .4-1.9 1-2.6.5-.6 1.1-1.1 1.8-1.6-.6-1.8-.8-3.7-.5-5.6.4-2.6 1.4-5 3.1-7.1-.1 1.6.1 3.1.6 4.6.7 1.9 2.5 3.5 2.7 5.3.1 1.2 0 2.4-.4 3.5.8 0 1.5.3 2.2.7.6.4 1.2 1 1.6 1.7-.3.4-.5.8-.6 1.2-.2.4-.2.9-.2 1.4.8.3 1.6.6 2.3 1 .7.4 1.2.9 1.8 1.4-.2.8-.4 1.5-.5 2.3 0 .8.1 1.6.4 2.4.7 0 1.3 0 2 .1s1.3.3 1.9.6c-.2.7-.3 1.5-.3 2.2.1.8.3 1.7.7 2.4.9-.8 2.1-1.2 3.4-1 .5 1.9 1.5 3.7 2.8 5.2 3.2 3.8 8.1 2.1 8.1 2.1l1.7-.6 6.4 4.8-2.1 1.5c-1.7.8-3.6 1.2-5.4 1.4-3.9.2-8.6-1.9-11.4-1.7-1.7 0-3.4.8-4.5 2.2-.7-.4-1.2-1-1.7-1.6-.4-.6-.8-1.2-1-1.9-.5.4-.8.9-1 1.5-.2.5-.4 1.1-.3 1.6-.7 0-1.4-.2-2.1-.5-.8-.3-1.6-.8-2.2-1.4-.2.2-.3.4-.4.7-.1.3-.1.6 0 .8-.8 0-1.6-.3-2.2-.7-.8-.5-1.4-1.2-1.9-1.9-.3.3-.5.8-.5 1.2 0 .5 0 1.1.2 1.6 0 0-.4.4-1.7 0-.9-.2-1.8-.7-2.6-1.3-.7.6-1.6 1-2.5 1.2-1.6.4-2.3-.1-3.5-.1-.5.3-1 .4-1.4.5zm15-10.7c.8.3 1.7 0 2-.8.2-.6-.3-1.4-1.3-1.8-1-.3-2.1-.3-3.2-.1-.7.2-.5.5-.2.9.8.9 1.7 1.4 2.7 1.8zM149 261.5c-1.1-.6-1.9-1.5-2.5-2.6-.5-1-.7-2.1-.7-3.2-1-.2-2-.6-2.7-1.3-1-.7-1.7-1.7-2-2.9 1.4.3 2.9.1 4.2-.5 1.1-.6 2-1.4 2.6-2.3-.5-.3-1-.6-1.4-1-.4-.4-.7-.8-.9-1.4-.3.3-.5.7-.7 1.1-.2.5-.3 1-.3 1.6-.9-.2-1.7-.6-2.4-1.1-.7-.6-1.4-1.3-2-2-.1.6-.1 1.3 0 1.9.1.6.2 1.2.4 1.8-1.8-.8-3.3-2.1-4.3-3.7-.8-1.3-1.5-2.7-1.8-4.2-.2.1-.5.3-.6.5-.2.3-.3.5-.4.8-.4-.8-.6-1.7-.7-2.6 0-.7.1-1.4.3-2.1.1-.4-.2-.7-.7-.4-.5.5-.9 1-1.2 1.7-.7-.6-1.2-1.5-1.4-2.5-.1-.8-.2-1.6-.1-2.4-1.8-.7-3.4-1.7-4.7-3.1-1.8-1.9-3-4.3-3.6-6.8 1.1 1.1 2.5 1.9 4 2.4 1.9.6 4.3.2 5.8 1.1 1 .7 1.8 1.5 2.5 2.5.5-.6 1.2-1 1.9-1.3.7-.2 1.5-.3 2.3-.2.1.5.3.9.6 1.3s.6.7 1 1c.7-.5 1.4-.9 2.2-1.2.7-.3 1.5-.4 2.2-.5.4.7 1 1.3 1.5 1.8.6.5 1.3.9 2.1 1.2.4-.5.8-1.1 1.3-1.5.5-.5 1.1-.9 1.7-1.1.4.6 1 1.2 1.6 1.6.7.5 1.5.8 2.3.9-.1-1.2.4-2.4 1.3-3.3 1.8.8 3.9 1.2 5.9 1.2 5-.1 6.8-5 6.8-5l.6-1.8 7.8-2-.1 2.6c-.5 1.8-1.3 3.6-2.3 5.1-2.2 3.2-6.8 5.6-8.4 7.9-1.1 1.4-1.5 3.2-1.1 4.9-.7.3-1.5.4-2.3.3-.7 0-1.4-.2-2.1-.5 0 .6.2 1.2.6 1.7.2.5.6 1 1.1 1.3-.5.5-1.1 1-1.7 1.4-.8.4-1.6.7-2.5.9 0 .3.1.5.2.7.2.2.4.4.7.5-.5.6-1.2 1.1-1.9 1.3-.9.3-1.8.4-2.7.3.1.5.3.9.6 1.2.4.4.8.6 1.3.8 0 0 0 .5-1.1 1.3-.8.6-1.7 1-2.6 1.2 0 1-.2 1.9-.6 2.8-.7 1.5-1.5 1.7-2.3 2.7l-.6 1.2zm1-18.5c.7-.4 1-1.3.6-2-.4-.6-1.3-.6-2.2-.1-.9.6-1.6 1.5-2 2.4-.3.6 0 .7.6.7 1.1 0 2.1-.3 3-1zM244.9 215.4c-1.1.5-2.4.6-3.6.3-1.1-.2-2.1-.8-2.9-1.5-.8.7-1.7 1.1-2.7 1.3-1.2.3-2.4.2-3.5-.3 1.1-.9 1.9-2.2 2.3-3.6.2-1.2.2-2.4-.2-3.5-.5.2-1.1.4-1.7.5-.6.1-1.1 0-1.6-.1.1.4.2.8.5 1.2.3.4.6.9 1 1.2-.7.5-1.5.9-2.4 1.2-.9.2-1.9.3-2.8.3.5.5 1 .9 1.5 1.2.5.3 1.1.6 1.7.8-1.7.9-3.7 1.2-5.6 1-1.5-.1-3-.6-4.4-1.2-.1.3-.1.5 0 .8.1.3.2.6.4.8-.9-.2-1.7-.6-2.5-1.1-.5-.4-1-.9-1.4-1.4-.2-.3-.7-.2-.7.3 0 .7.2 1.4.6 2-1 .2-1.9 0-2.8-.4-.7-.4-1.4-.9-1.9-1.4-1.6 1-3.5 1.6-5.4 1.7-2.6.2-5.2-.3-7.6-1.4 1.6-.2 3-.8 4.4-1.6 1.7-1.1 2.9-3.2 4.5-3.8 1.1-.4 2.3-.5 3.5-.4-.2-.8-.1-1.6.2-2.3.3-.7.7-1.4 1.3-1.9.4.2.9.3 1.3.3.5.1.9 0 1.4-.1.1-.8.2-1.7.4-2.5.2-.7.6-1.4 1-2 .8.1 1.6 0 2.4-.1.8-.2 1.5-.5 2.2-.9-.2-.6-.3-1.3-.4-1.9-.1-.7 0-1.3.1-2 .8.1 1.5 0 2.2-.2.8-.2 1.6-.7 2.2-1.2-1-.7-1.6-1.8-1.8-3 1.8-.9 3.4-2.2 4.6-3.9 3-4 .3-8.4.3-8.4l-1-1.6 3.3-7.3 2 1.7c1.1 1.5 2 3.2 2.5 5 1.1 3.8.1 8.8.9 11.5.4 1.7 1.5 3.1 3.1 3.9-.3.7-.7 1.4-1.2 2-.5.6-1 1-1.7 1.4.5.4 1.1.6 1.7.6.6.1 1.1.1 1.7 0 .1.7.1 1.5 0 2.2-.1.9-.4 1.7-.9 2.5.2.1.5.2.7.3.3 0 .6-.1.8-.2.2.8.1 1.6-.2 2.3-.3.9-.8 1.6-1.5 2.3.4.2.9.3 1.3.2.5-.1 1-.3 1.5-.6 0 0 .4.3.3 1.7 0 1-.2 1.9-.7 2.8.8.6 1.4 1.4 1.8 2.2.7 1.5.4 2.2.7 3.5.4.1.6.4.8.8zm-13.8-12.3c.1-.8-.4-1.6-1.2-1.8-.7-.1-1.3.6-1.4 1.7-.1 1.1.2 2.2.6 3.1.3.6.6.4.9 0 .6-.9 1-1.9 1.1-3zM268.6 111.7c-.3 1.2-1 2.2-2 3-.9.7-1.9 1.2-3 1.3.1 1-.2 2-.7 2.9-.5 1.1-1.4 2-2.4 2.6 0-1.4-.5-2.8-1.4-4-.8-.9-1.8-1.6-2.9-2-.1.6-.4 1.1-.7 1.6-.3.5-.7.9-1.1 1.2.4.2.8.3 1.3.4h1.6c0 .9-.2 1.8-.6 2.6-.4.9-.9 1.7-1.5 2.4.6-.1 1.3-.2 1.9-.5.6-.2 1.2-.5 1.7-.8-.4 1.9-1.3 3.6-2.7 5-1.1 1.1-2.3 2-3.7 2.7.2.2.4.4.6.5.3.1.6.2.9.2-.7.6-1.5 1-2.4 1.2-.7.2-1.4.2-2.1.2-.4 0-.6.4-.2.7.6.4 1.2.7 1.9.8-.4.9-1.2 1.5-2.1 1.9-.7.3-1.5.5-2.3.6-.3 1.9-.9 3.7-2 5.3-1.5 2.2-3.5 3.9-5.9 5 .8-1.4 1.3-2.9 1.5-4.4.2-2-.7-4.3-.2-5.9.4-1.1 1-2.1 1.9-3-.7-.4-1.3-.9-1.6-1.6-.4-.7-.6-1.4-.7-2.2.4-.2.8-.5 1.1-.8.3-.3.6-.7.8-1.2-.6-.6-1.2-1.2-1.7-1.9-.4-.6-.7-1.3-.9-2.1.5-.6 1-1.2 1.4-1.9.4-.7.6-1.5.7-2.3-.6-.2-1.2-.6-1.8-.9-.6-.4-1.1-.8-1.5-1.4.5-.6.9-1.2 1.2-1.9.3-.8.4-1.6.4-2.5-1.2.3-2.4.1-3.5-.5.4-2 .4-4-.1-6-1.2-4.8-6.4-5.5-6.4-5.5l-1.8-.2-3.7-7.2 2.5-.5c1.9.1 3.7.4 5.5 1.1 3.6 1.5 6.9 5.4 9.5 6.5 1.6.8 3.4.8 5 0 .4.7.7 1.4.8 2.2.1.7.1 1.5 0 2.2.6-.2 1.1-.5 1.6-.9.4-.4.8-.8 1-1.3.6.4 1.2.8 1.7 1.3.6.6 1.1 1.4 1.4 2.2.2-.1.5-.2.7-.4.2-.2.3-.5.3-.8.7.4 1.3.9 1.7 1.6.5.8.8 1.7.9 2.6.4-.2.8-.5 1-.9.3-.5.4-1 .5-1.5 0 0 .5-.2 1.5.8.8.6 1.4 1.4 1.8 2.3.9-.2 1.9-.2 2.9 0 1.6.4 2 1.1 3.2 1.6.3.3.8.4 1.2.5zm-18.2 3.2c-.6-.6-1.5-.7-2.1-.1-.5.5-.3 1.4.4 2.2.8.7 1.8 1.2 2.8 1.4.7.2.7-.2.6-.7-.3-1.1-.9-2.1-1.7-2.8z"/><path class="st10" d="M184.9 122.8l-.5-.5 5.9-2zM171.1 120.6l5.3-4-6.2 3.6-.5-.3 14.5-8.5-12.6 9.5"/><path d="M127.3 123.7l10.4 3c.3-.7.7-1.3 1.1-1.9L122 110.5l18.4 12.2c.5-.5 1-1.1 1.6-1.5l-10.3-17.4 12.5 15.9c.6-.4 1.3-.7 2-1L141.7 99l7.2 18.8c.7-.2 1.5-.3 2.2-.3l1.3-20.1 1.4 20.1c.7.1 1.5.2 2.2.3l7.7-18.9-5.1 19.7c.7.3 1.4.6 2 1l14.5-16.4-12.3 17.9.6.6-.6.2c-.1 0-.4-.4-.4-.4l-.3-.2 7.5-11-8.9 10-.2-.1c-.8-.4-1.5-.8-2.4-1.2l-.2-.1 3.1-12.1-4.7 11.7-.2-.1c-.9-.2-1.7-.3-2.6-.4h-.2l-.8-12.3-.8 12.3h-.2c-.9.1-1.7.2-2.6.4l-.2.1-4.4-11.6 2.9 12-.2.1c-.8.3-1.6.7-2.4 1.2l-.2.1-7.7-9.8 6.3 10.7-.2.2c-.7.5-1.3 1.1-1.9 1.8l-.2.2-11.3-7.4 10.3 8.7-.1.2c-.5.7-.9 1.5-1.3 2.3l-.1.2-10.4-3-.5-.7z"/><path class="st10" d="M114.4 120.2l-1.2-.5 1.3.4zM116.8 121.2l-1.5-.6.2-.3 1.3.4M122.7 123l-2-.3.4-.8 1.7.5zM128.1 125.1l5.2 2.1-.6.4-4.2-1.7zM126.8 125.2l-2.3-.9v-.6l2.3.9zM126.5 124.1l-2-.6.1-.6 1.6.5zM107.2 138.8c-.2.1-.4.2-.7.4l-.4.2c-.2.1-.3.2-.5.2-.2.2-.5.3-.7.4v-.5l.6-.3c.2-.1.2-.2.4-.2s.3-.2.4-.2c.3-.1.6-.3.8-.5l.1.5zM110.7 135.9l-.1.1-.3.3c-.7.5-1.4 1.1-2 1.7v-.7c.4-.4.9-.8 1.4-1.1.3-.3.7-.5.9-.8l.1.5zM104.1 140.4l-.1.1c-.1.1-.2.1-.4.1-.1 0-.2.1-.3.1-.6.3-1.3.6-1.9 1l.2-.6c.5-.3 1-.6 1.6-.8.1 0 .3-.1.4-.1.1 0 .2 0 .2-.1l.4-.3-.1.6zM113.8 133.4c-.2.1-.3.2-.4.3s-.5.4-.8.6l-.5.4-.7.5v-.6l.3-.3.5-.4c.3-.2.6-.4.8-.6s.2-.2.4-.3l.2-.1.2.5zM116.5 132.5c-.2.1-.4.1-.6.1-.4 0-.8.1-1.1.2l-.1-.5c.4-.1.8-.2 1.2-.2.2 0 .4-.1.6-.1v.5zM126.8 129.3c-.1 0-.1.1-.2.1-.3.2-.6.3-1 .4-.2.1-.3.2-.5.3l-.2-.4c.2-.1.4-.3.6-.3.3-.1.6-.2.8-.3.1-.1.3-.2.4-.2l.1.4zM129.4 128.9c-.2.2-.4.3-.7.4-.3.1-.6.1-.8-.1h-.2l.1-.5c.1 0 .2 0 .3.1h.1c.1.1.3.1.4.1l.6-.3.2.3z"/><path class="st10" d="M168.2 119.9c-.1.1-.3.2-.4.3-.4.3-.8.5-1.3.7-.1 0-.7.4-.9.5s-.3.1-.5.2c-.2.2-.5.2-.8.2-.4-.2-.9-.1-1.3.1-.3.2-.5.3-.8.5l-.2.2c-.2.1-.4.3-.6.4-.1.1-.3.2-.5.2l-.3.1c-.2.1-.5.1-.7.2-.1 0-.3 0-.4.1-.3.1-.6.1-.8.2h-.4c-.2 0-.3.1-.5.2-.1.1-.2.1-.3.2-.2.1-.3.1-.5.2-.3 0-.6.1-.9.2-.3.1-.7.2-1.1.3-.2.1-.4.1-.5.2-.2.1-.3.1-.5.2-.2 0-.4 0-.6.1h-.4c-.1 0-.2.1-.3.2-.1.1-.2.2-.3.2-.1.1-.3.1-.5.2-.1 0-.2 0-.3.1-.3.1-.6.2-.9.4-.1.1-.3.2-.4.3-.2.2-.4.3-.6.4l-1.2.6c-.4.2-.8.2-1.2.1h-.1c-.1-.1-.3-.1-.4 0l-.3.2c-.1.1-.3.1-.4.2-.2.1-.8.5-1.1.6-.3.2-.7.3-1.1.2-.2 0-.5.1-.7.2l-.2.1c-.2.1-.5.2-.7.4l-.1.1c-.4.3-.9.4-1.4.6-.2 0-.5-.1-.6-.3-.1-.1-.3-.2-.4-.2-.2-.1-.3-.2-.5-.2l-.3-.2-.4-.2-.6-.3c-.2 0-.4-.1-.6-.2l-.5-.2h-.4c-.2.1-.4 0-.5-.1l-.6-.3c-.2-.1-.8-.3-1.2-.6s-.3-.1-.4 0c-.1.1-.2.1-.3.1l-.3.1-.2.1c-.3.1-.5.2-.8.3l-.5.2c-.4.2-.9.3-1.4.3h-.2l-.3-.4c.1 0 .3-.1.4-.1.4 0 .8-.1 1.2-.2l.5-.2c.2-.1.5-.2.7-.3.2-.1.4-.2.6-.2.1 0 .1 0 .2-.1.3-.2.6-.2.9 0 .4.2 1 .5 1.2.5.3.1.6.3.8.4h.7c.2 0 .4.1.5.2.2.1.3.1.5.2.3.1.5.2.8.3l.4.2.4.2c.2.1.3.2.5.2.2.1.3.2.5.3.1.1.2.1.3.2.4-.1.8-.3 1.2-.5l.1-.1c.2-.2.5-.3.8-.5l.1-.1c.3-.1.6-.2.9-.2.3 0 .6 0 .8-.2.3-.1.9-.5 1.1-.6.1-.1.3-.2.4-.2l.3-.2c.2-.1.5-.2.7-.1h.1c.3.1.6.1.9 0l1.2-.6c.2-.1.4-.2.6-.4.1-.1.3-.2.4-.3.3-.2.7-.3 1-.4.1 0 .3-.1.4-.1.1 0 .2-.1.3-.1h.1c.1-.2.4-.3.6-.4h.4l.6-.1c.1 0 .3-.1.4-.2.2-.1.4-.2.6-.2.3-.1.7-.2 1-.3.4-.1.8-.2 1.1-.3.2 0 .3-.1.5-.2.2-.2.4-.2.7-.2h.4c.3 0 .5-.1.8-.1.2 0 .3-.1.5-.1s.4-.1.6-.1l.3-.1c.1 0 .3-.1.4-.2.2-.1.4-.2.5-.4l.2-.2c.4-.2 1.1-.6 1.5-.8.3-.1.6-.1.9 0 .3.1.5 0 .8-.1.2-.1.3-.1.5-.2l.4-.2c.1-.1 1.8-1.1 2.3-1.4.1-.1.2-.2.4-.2.3-.2.3-.1.6.1l.2.2c.2.1.4.3.6.4.2.1.3.1.5.2.1.1.2.1.3.2l.3.1c.1.1.3.2.5.2l.9.3c.3.2.6.3.8.6l.9.6.2.2c.1.1.2.2.4.2.2.1.4.2.5.4.1.1.2.1.3.1.4 0 .7.2 1 .4l.4.3c.1.1.2.2.3.2l.5.2.2.1c.1 0 .2-.1.4-.1.1-.1.3-.2.5-.3l.6-.3.2-.1c.2-.1.5-.2.7-.2.1 0 .2 0 .3.1h.4c.2-.1.5-.1.7-.2l.5-.2.6-.3.3-.2.3-.2c.1-.1.3-.1.4-.2h.1c.2-.1.5 0 .7.1.2.2.5.5.8.6l.2.2c.2.2.4.3.7.4h.2c.2.1.3.2.4.3.2.1.4.3.6.5l.1.1c.1.1.2.2.4.3.3.1.6.2.9.4l.2.1c.1.1.3.2.4.3l.1.1.2-.1.2-.1c.2-.1.5-.2.8-.2.2 0 .5 0 .7.1.1 0 .2.1.3.2.1.1.2.1.3.2.2.1.5.1.7.3.1.1.3.1.4.2l.3.1c.2.1.4.1.7.2l.4.1.3.1c.2.1.3.1.5.1h.8l-.1.5h-.6c-.2 0-.5 0-.7-.1l-.3-.1-.4-.1c-.3 0-.5-.1-.8-.2l-.2-.1c-.2-.1-.3-.1-.5-.2s-.4-.2-.6-.2c-.2 0-.3-.1-.4-.2l-.2-.1h-.5c-.2 0-.4.1-.6.2l-.2.1c-.2.2-.5.2-.7 0l-.1-.1c-.1-.1-.2-.2-.4-.2l-.2-.1c-.2-.1-.5-.3-.7-.3-.2-.1-.5-.2-.6-.4l-.1-.1c-.2-.2-.4-.3-.6-.4-.1-.1-.2-.2-.4-.2l-.2-.1c-.3-.1-.5-.3-.8-.5l-.2-.1c-.2-.2-.6-.5-.8-.7s-.1-.1-.2 0h-.1c-.1 0-.2.1-.4.2l-.4.2-.3.1-.6.3-.5.2c-.2.1-.5.2-.7.2-.2.1-.5 0-.7-.1-.1 0-.1 0-.2-.1-.2 0-.3.1-.4.1l-.2.1c-.2.1-.3.2-.4.3-.2.1-.4.2-.5.3-.2.2-.5.2-.7.1l-.2-.1-.5-.2c-.2-.1-.3-.2-.4-.3l-.4-.3c-.2-.2-.5-.3-.7-.3-.3 0-.5-.1-.6-.3-.1-.1-.2-.2-.3-.2-.2-.1-.3-.2-.5-.3l-.2-.1-.9-.6c-.2-.2-.5-.4-.7-.5-.2-.1-.4-.2-.7-.2-.2-.1-.4-.1-.6-.3l-.2-.1c-.1-.1-.3-.1-.4-.2-.1-.1-.3-.1-.4-.2-.3-.1-.5-.3-.7-.4l-.2-.2-.2-.1c-.1 0-.2.2-.2.2"/><path class="st10" d="M156.2 139.1s-.2 0-.4-.1c-.2 0-.3-.1-.5-.2-.1-.1-.3-.1-.4-.1-.3-.1-.6-.3-.9-.5-.3-.2-.6-.3-.9-.3-.4-.1-.7-.2-.9-.5-.1-.2-.3-.3-.5-.4l-.6-.3-.3-.2-.2-.1c-.3-.2-.7-.4-1-.6l-.1-.1c-.3-.2-.5-.4-.7-.7-.1-.2-.3-.3-.5-.4h-.1c-.4-.2-.7-.3-1.1-.4l-.5-.2c-.4-.2-.7-.4-1.1-.6l-.1-.1c-.1-.1-.3-.3-.4-.3-.2-.1-.3-.1-.4-.2-.1-.1-.2-.2-.4-.2-.3 0-.5-.2-.6-.4-.1-.1-.2-.1-.3-.2l-.3-.2c-.4-.2-.7-.5-.9-.9-.3-.3-.7-.5-1.1-.5l.1-.5c.5.1 1 .4 1.3.7.2.3.5.5.8.7l.3.2c.2.1.4.2.5.4.1.1.2.2.3.2.2.1.4.2.5.3.1.1.2.1.3.2.2.1.5.3.6.4l.1.1c.3.2.7.4 1 .5l.5.2c.4.1.8.3 1.2.4h.1c.2.1.5.3.6.5.2.2.4.4.7.6l.1.1.9.6.2.1.3.2c.1.1.2.2.4.2.3.1.5.3.7.5.2.2.4.3.7.3.4 0 .8.2 1.1.4.2.2.5.3.7.4.1 0 .3.1.4.2.1.1.2.1.3.1.2 0 .5.1.5.1v.6zM131.4 154.3c-.3 0-1.1-.1-1.4-.1-.3 0-.7 0-1-.2-.1 0-.3 0-.4.1-.1.1-.2.1-.3.1h-.8c-.2 0-.4 0-.6-.1h-.2c-.2 0-.4 0-.6.1h-.2c-.2 0-.4 0-.5-.1-.1 0-.3-.1-.4-.1h-.3v-.5h.4c.2 0 .3 0 .5.1h.5c.2-.1.5-.1.7-.1.1 0 .2 0 .3.1.1.1.3.1.4.1H128.5c.2-.1.5-.2.8-.1.2.1.5.2.8.2.3 0 1.3.1 1.4.1l-.1.4zM115.2 154.2c-.3 0-.6-.1-.9-.3-.1 0-.3 0-.4.1-.2.1-.4.1-.6.2-.3 0-.5 0-.8-.1l-.2-.1h-.3c-.1 0-.2.1-.2.1-.3 0-.6.1-.9.1h-1.5c-.3 0-.6-.1-.8-.2l-.2-.1c-.1 0-.2 0-.3.1-.2.1-.4.1-.5.1-.4.1-.8 0-1.2-.2-.2 0-.4 0-.6.1l-.2.1c-.3.1-.6.1-.9.1l-.4-.1-.7-.2c-.2 0-.3.1-.4.1-.1.1-.3.1-.4.1h-1.4v-.5h1.3c.1 0 .2-.1.3-.1.2-.1.5-.2.8-.2l.7.2.4.1c.2 0 .5 0 .7-.1l.2-.1c.3-.2.7-.2 1-.1.3.2.6.2.9.2.2 0 .3-.1.4-.1.2-.1.4-.1.6-.1l.2.1c.2.1.4.1.6.1h1.4c.3 0 .6 0 .9-.1h.2c.2-.1.4-.1.6 0l.2.1c.2.1.4.1.6.1.2 0 .3-.1.5-.1.2-.1.5-.2.8-.1.2.1.5.2.7.2H116.8v.5h-1.4l-.2.1zM197.5 136.1c-.1 0-.9-.4-1.3-.6-.4-.3-.9-.5-1.4-.6-.3-.1-.7-.2-1-.2H192c-.5-.1-1-.3-1.4-.6-.4-.3-.8-.5-1.2-.6-.2-.1-.5-.1-.7-.1-.2 0-.4-.1-.7-.2-.4-.1-.8-.3-1.1-.5l-.3-.1-.3-.1c-.1-.1-.2-.2-.1-.3.1-.1.2-.1.3-.1l.3.1.3.2c.3.2.6.3 1 .4.3.1.5.1.7.1.2 0 .5.1.7.2.5.1 1 .3 1.4.6.3.3.7.4 1.1.5h1.7c.4 0 .8.1 1.1.2.5.2 1 .4 1.4.7l1.2.6c.1.1.2.2.1.3.1 0 .1 0 0 .1zM184.5 132c-.1 0-.2-.1-.2-.3 0-.1.1-.2.1-.2h.7c.1 0 .2.1.2.2s-.1.2-.2.2h-.4c0 .1-.1.1-.2.1zM177.9 132.9c-.1 0-.2-.1-.2-.3 0-.1.1-.2.2-.2.3-.1.6-.1 1-.2.1 0 .2.1.2.2s-.1.2-.2.2c-.4.2-.7.2-1 .3z"/><path class="st10" d="M147.7 145.6c-.1 0-.2-.1-.2-.3 0-.1 0-.1.1-.2l.3-.2c.3-.1.6-.3.9-.4.3-.1.5-.2.8-.3.3-.2.6-.4 1-.6.3-.1.6-.3.8-.5.3-.2.5-.5.7-.7l.3-.3c.1-.1.2-.3.4-.5.4-.5.8-1 1.2-1.4.5-.4 1-.8 1.6-1.1.2-.1.4-.3.6-.5.2-.2.4-.3.6-.5.2-.1.4-.2.6-.2.1 0 .3-.1.4-.1.3-.2.5-.3.8-.5.2-.2.5-.4.8-.5.1-.1.3-.2.6-.3.3-.1.6-.3.8-.4l.2-.1c.5-.4 1.1-.7 1.7-.6.3.1.5.2.8.3.3.1.5.2.8.2.2 0 .8-.1 1.4-.1l.9-.1c.2 0 .5-.1.7-.1.3-.1.7-.1 1-.1H169.6c.4 0 .7-.1 1-.3.6-.4 1.4-.9 1.8-1.1.5-.3 1.1-.4 1.6-.5l.6-.1c.4-.1.7-.1 1.1-.2.2 0 .4-.1.6-.2l.2.4c-.3.1-.5.2-.8.2-.4 0-.7.1-1.1.2l-.6.1c-.5.1-1 .3-1.5.5-.4.2-1.1.6-1.8 1-.3.3-.8.4-1.2.4h-1.2c-.3 0-.6.1-.9.1-.3.1-.5.1-.8.1l-.9.1c-.6.1-1.1.1-1.4.1-.3 0-.7-.1-1-.3-.2-.1-.5-.2-.7-.3-.5 0-1 .2-1.3.5l-.2.1c-.3.2-.6.3-.9.4l-.5.2c-.2.1-.5.3-.7.5l-.9.6c-.2.1-.3.1-.5.2-.2 0-.3.1-.5.2s-.4.3-.6.4c-.2.2-.5.3-.7.5-.5.3-1 .7-1.5 1.1-.4.4-.8.9-1.1 1.3-.2.2-.3.4-.4.6l-.3.3c-.2.3-.5.6-.8.8-.3.2-.6.4-.9.5-.3.2-.6.3-.9.5-.3.2-.6.4-.9.4l-.9.3-.3.1c.1.3 0 .4-.1.4zM146.1 146.9l-.3-.4.3-.2c.1 0 .3-.1.4-.3 0-.1.1-.2.1-.2l.4.3-.1.1c-.1.2-.3.4-.6.5l-.2.2zM172.3 156.8h-1.4c-.1 0-.2 0-.3-.1-.1 0-.2-.1-.3-.1-.1 0-.2 0-.3.1-.2.1-.5.1-.8.1l-.7-.1H167c-.1 0-.2 0-.3-.1h-.3c-.3.1-.6.1-.9.1H163c-.1 0-.2 0-.4-.1-.1 0-.2-.1-.3-.1-.2.1-.5.2-.8.2-.3 0-.6 0-.9-.1h-1.5l-.2-.1-.5-.1-.2.1-.3.1H157c-.2-.1-.4-.1-.6 0-.2.1-.4.1-.6.1-.3 0-.8 0-1.2-.1h-5.5c-.1 0-.2 0-.2-.1-.1-.1-.2-.1-.4-.1l-.2.1c-.1 0-.3.1-.4.1h-.7c-.1 0-.3 0-.4-.1l-.2-.1c-.3 0-.6 0-.9.1h-5.2c-.2 0-.4-.1-.6-.1-.1 0-.3 0-.4.1-.2.1-.5.1-.7.1h-.2c-.3 0-.6-.1-.9-.2-.2 0-.4 0-.6.1-.2.1-.5.1-.7 0H132.5l-.4-.1c-.2-.1-.5-.1-.7 0-.2.1-.4.1-.6.1h-1.1c-.1 0-.3 0-.4-.1-.1 0-.1-.1-.1-.1-.1-.1-.1-.3.3-.7.3-.3.7-.5.9-.9l.5-.5.1-.1.2-.2c.1-.1.2-.2.4-.3.2-.2.5-.4.8-.4.4 0 .8-.1 1.1-.2.4-.1.8-.4 1.2-.6l.2-.2c.5-.4.9-.7 1.5-1l.7-.3c.5-.2 1-.4 1.4-.6.1-.1.3-.2.5-.3l.2-.1c.1 0 .3 0 .3.1s0 .2-.1.3l-.2.1c-.2.1-.3.2-.5.3-.5.3-1 .5-1.5.7l-.7.3c-.5.3-1 .6-1.4.9l-.1.4c-.4.3-.8.5-1.3.7-.4.1-.9.2-1.3.2-.2 0-.4 0-.5.2l-.4.4-.2.2-.2.1c-.2.1-.3.3-.4.4-.3.3-.6.6-1 .9h1.1c.1 0 .3 0 .4-.1.1 0 .3-.1.4-.1H136.7c.3-.2.7-.2 1-.1.2.1.5.1.7.1h.2c.2 0 .4 0 .5-.1.2-.1.5-.1.7-.1.1.1.3.1.4.1h5c.3-.1.7-.1 1-.1l.3.1c.1 0 .2.1.4.1h1l.3-.1c.2 0 .4 0 .6.1h5.5c.3 0 .8.1 1.1.1.2 0 .3 0 .4-.1.1-.1.3-.1.4-.1.2 0 .3 0 .5.1h.6l.2-.1c.1-.1.3-.1.4-.1l.6.1.2.1h1.4c.2.1.5.1.8.1.2 0 .4 0 .6-.1.2-.1.5-.1.7 0 .1 0 .1 0 .2.1h2.5c.3 0 .6 0 .8-.1.2-.1.4-.1.6 0h1.7l.7.1c.2 0 .4 0 .6-.1.1 0 .3-.1.4-.1.2 0 .3 0 .5.1H172.3c.3-.1.7-.2 1-.1h.1c.2.1.4.1.7.1h4c.1 0 .2.2.2.3 0 .1-.1.2-.2.2h-4c-.3 0-.6 0-.8-.1h-.1c-.2 0-.5 0-.7.1.2.2 0 .3-.2.4zM180.4 156.8c-.1 0-.3-.1-.3-.2s.1-.3.2-.3H180.6c.1 0 .2.1.2.2s-.1.2-.2.2h-.2zM182.9 156.6l-.6-.1c-.1 0-.2-.2-.2-.3 0-.1.2-.2.3-.2l.5.1c.1 0 .2.2.2.3 0 .2-.1.3-.2.2zM194.3 156.9h-3.8c-.2 0-.7 0-1.1.1h-4.8c-.1 0-.2-.2-.2-.3 0-.1.1-.2.2-.2h4.8c.4 0 .9-.1 1.1-.1h3.8c.1 0 .2.2.2.3 0 .1-.1.2-.2.2zM122.2 129.2c0 .1-.1.2-.2.2h-3c-.1 0-.2-.1-.2-.2V126c0-.1.1-.2.2-.2h3c.1 0 .2.1.2.2v3.2zm0 8.4c0 .1-.1.2-.2.2h-3c-.1 0-.2-.1-.2-.2v-4.8c0-.1.1-.2.2-.2h3c.1 0 .2.1.2.2v4.8zm-3.1-5.4c-.2 0-.3.2-.3.3v-2.8h3.7v2.8c0-.2-.2-.3-.3-.3h-3.1zm-.4 8.2v-2.2h3.7v2.2h-3.7zm3 .7c.2 0 .4.2.4.4v5.8H119v-5.7c0-.2.1-.4.3-.4h.5v-.3h1.5v.3h.4v-.1zm-3.1 18.1v.7h-2.3v-.7h.4v-8.9h1.5v9l.4-.1zm6 4c-.3-.1-.7-.1-1-.1-.5.1-1 .2-1.5.1-.4-.1-.7-.1-1.1 0-.3.1-.6.1-.9 0-.6 0-1.2 0-1.8-.1-.5-.1-1-.1-1.4 0-.3.1-.6.1-.9 0v-3.2h9.2v3.1c-.2.2-.4.2-.6.2zm-8.1-35.2v1.4h-.3v18.2h.6v-17.8h.2v-2.4l-.5.6zm.6-11.3h1v6.2l.2.4v.9l.4-.6v-.4h.3l.3-.4h-.5c-.1 0-.2-.1-.2-.2v-3c0-.1.1-.2.2-.2h2.9l.2-.3h-3.2c-.2 0-.3.1-.3.2v-1.9h4.5l.2.1.1-.2v-.8h1v6.5h.1v6.6h.2v17.9h.6v.5h-.7v11.1h.4v.7h-2.5v-.7h.4V150h.3v-1.9h-.7v-.4h.8v-24.5l.2-.4v-4.2l-.6.9v3c0 .1-.1.2-.2.2h-1.9l-.2.4h2.1v2.6c0-.2-.2-.3-.3-.4h-3c-.2 0-.3.2-.3.4v-.7l-.4.6v21.9h3.4v.9h.6v1.2l-6.2.3v.2l-.1 2.1v6.4h-.4v.9h-.5v3.5l-.7.1.1.2.2.2c.4 0 .7-.1 1.1-.1.3.1.6.1.9 0 .5-.1 1-.1 1.4 0 .6.1 1.2.1 1.8.1.3.1.6.1.9 0 .4-.1.8-.1 1.2 0 .5.1 1 0 1.5-.1.3-.1.6-.1.9 0h1.8v-.1l.1-.2h-.6v-3.5h-.4v-.9h-.4v-8.6l-.1-.4v-1.4h.6v-1h-.6v-18h-.3v-6.6h-.2v-6.5h-.7v-.4l-.2-.2-.2.2v.4h-.7v.7h-4.2v-.7h-.7v-.4l-.2-.2-.2.2v.4h-.7v.7l.4-.2zm-.4 1.9v4.2h-.2v3.7l.5-.6v-2.7h.1V118l-.4.6zm2 22.8v-.6h.5c-.1.1-.2.1-.3.2-.1.1-.2.2-.2.4zm3.7-.4c-.1-.1-.2-.2-.3-.2h.5v.6c0-.2-.1-.3-.2-.4zm-2.8 9.2l.7.7.7-.7h.6l-.7.9v.6l1 1.2v1.3l-.9 1.1v.8l.9 1v1.1h-3.1v-1.1l.9-1v-.8l-.9-1.1v-1.4l1-1.2v-.6l-.7-.8h.5zm2 3.1l-1.3-1.5-1.3 1.5h2.6zm-1.8-.4l.5-.5.5.5h-1zm1.7 4.9l-1.2-1.5-1.3 1.5h2.5zm-1.7-.4l.5-.5.5.5h-1zm-.8-3.7l1.4 1.5 1.3-1.5H119zm1.8.4l-.5.5-.5-.5h1zm.6 1.4l.6-.7v1.7l-.6-.7v-.3zm-2.2.3l-.6.7v-1.7l.6.7v.3zm2.2-4.8l.6-.7v2l-.6-.7v-.6zm-2.2.6l-.6.7v-1.8l.6.5v.6zm-.1 8.1v-.9h-.4v-.2h3.3v.2h-.4v.9h-2.5z"/><path class="st12" d="M119.3 162.6v-2.5"/><path class="st10" d="M119.2 160.1h.2v2.6h-.2z"/><path class="st12" d="M119.9 162.6v-2.5"/><path class="st10" d="M119.8 160.1h.2v2.6h-.2z"/><path class="st12" d="M120.4 160.1v2.5"/><path class="st10" d="M120.4 160.1h.2v2.6h-.2z"/><path class="st12" d="M121 160.1v2.5"/><path class="st10" d="M120.9 160.1h.2v2.6h-.2z"/><path class="st12" d="M121.6 162.6v-2.5"/><path class="st10" d="M121.5 160.1h.2v2.6h-.2zM180.7 159.5h.1v1.9h-.1zM181.1 159.5h.1v1.9h-.1zM181.5 159.5h.1v1.9h-.1zM182 159.5h.1v1.9h-.1zM182.4 159.5h.1v1.9h-.1z"/><path class="st10" d="M182.9 136.7c0 .1-.1.2-.2.2h-2.1c-.1 0-.2-.1-.2-.2v-2l.3-.4h1.9c.1 0 .2.1.2.2v2.2h.1zm0 5.9c0 .1-.1.2-.2.2h-2.1c-.1 0-.2-.1-.2-.2v-3c0-.1.1-.2.2-.2h2.1c.1 0 .2.1.2.2v3zm-2.3-3.6c-.2 0-.3.2-.3.3v-2.1h2.7v2.1c0-.2-.2-.3-.3-.3h-2.1zm-.2 5.8v-1.6h2.7v1.6h-2.7zm2 .7c.2 0 .4.2.4.4v3.6l-2.2-.1V146c0-.2.1-.4.3-.4h.4v-.3h.8v.3h.3zm-2 13.2v.5h-2v-.5h.4v-6.8l1.2.1v6.7h.4zm4 3c-.2-.1-.5-.1-.7-.1-.3.1-.6.2-.8.1-.3-.1-.6-.1-.9 0-.3.1-.6.1-.9 0-.4.1-.8.1-1.1-.1-.3-.2-.7-.2-1 0-.3.1-.6.1-.9 0v-2.2h7.1v2.2c-.3.1-.6.1-.8.1zm-5.5-31.7v2h-.2v3.6l.4-.5v-2.8h.1v-3l-.3.7zm.3-2.2v-.4h.6v4.8l.3.4v1.3l.3-.4v-1h.6l.2-.4h-.9c-.1 0-.2-.1-.2-.2v-2.4c0-.1.1-.2.2-.2h2.4l1.1-1.8v-.2h.4v5.1h.1v4.7h.2v12.8h.4v.4l-.6-.1v8.3h.4v.6h-2v-.5h.4v-6.5h.3v-1.9h-.7v-.5l.6.1v-17.3l.2-.3v-2.9l-.4.9v1.6c0 .1-.1.2-.2.2h-.9l-.2.4h1v1.8c0-.2-.2-.3-.3-.4H181l-1.2 1.8v13.6l-1.2-.1v-12h.2v-.4l-.5.7v11.9l3.8.3v.8l.7.1v1.4l-4.6-.3v6.7h-.4v.8h-.4v2.6l-.6.1.1.2.2.2c.2-.1.5-.1.7-.1.3.1.6.1.9 0 .3-.2.7-.2 1 0 .4.1.8.1 1.1.1.3.1.6.1.9 0 .3-.1.6-.1.9 0 .3.1.6.1.8-.1.2-.1.5-.1.7.1h1.5v-.1l.1-.2h-.5v-2.6h-.4v-.8h-.4v-5.9l-.1-.3v-1.4h.6v-1h-.4V137h-.1v-5h-.2v-5h-.3v-.4l-.2-.2-.2.2v.4h-.3v.4h-3.5v-.4h-.2v-.4l-.2-.2-.2.2v.4h-.3v1.3l.1-.2.3-.3zm3.6 1.3h-2.5c-.1 0-.2.1-.2.2v.1-1.4h3.3l-.6 1.1zm-2.6 16.7v-.6h.5c-.1.1-.2.1-.3.2 0 .1-.1.2-.2.4zm2.6-.4c-.1-.1-.2-.2-.3-.2h.5v.6c0-.1-.1-.3-.2-.4zm-1.4 6.8l.2.3.2-.3h.5l-.3.4v.5l.8 1v.8l-.8.9v.5l.8.9v.6h-2.3v-.6l.8-.9v-.5l-.8-.9v-.9l.8-1v-.5l-.5-.4.6.1zm1.2 2l-.9-1.1-.9 1 1.8.1zm-1.3-.2l.3-.4.3.4h-.6zm1.3 3.5l-.9-1.1-.9 1.1h1.8zm-1.3-.3l.3-.4.3.4h-.6zm-.6-2.6l.9 1.1.9-1.1h-1.8zm1.2.3l-.3.4-.3-.4h.6zm.5 1l.4-.5v1.4l-.4-.5v-.4zm-1.6.3l-.4.5v-1.4l.4.5v.4zm1.6-3.5l.4-.5v1.4l-.4-.5v-.4zm-1.6.4l-.4.5v-1.4l.4.5v.4zm0 6v-.8h-.4v-.3h2.4v.2h-.4v.8l-1.6.1z"/><path class="st10" d="M184.4 152.4c4.6.4 8.7.8 11.7 1.3v-2.8c-2.9-.4-7.2-.9-11.6-1.3v.4h.4v.4h-.6l.1 2zm.7-2.4c4.2.4 7.8.7 10.7 1.2v.4c-2.8-.4-6.4-.8-10.6-1.2l-.1-.4zm0 .7c4.4.4 7.8.7 10.7 1.2v1.4c-3-.4-6.8-.9-11.3-1.2v-1.3l.6-.1z"/><path class="st10" d="M195.6 151.7h.2v.8h-.2zM194.6 151.6h.2v.8h-.2zM193.7 151.5h.2v.8h-.2zM192.8 151.4h.2v.8h-.2zM191.8 151.2h.2v.8h-.2zM190.9 151.1h.2v.9h-.2zM190 151h.2v.8h-.2zM189.1 151h.2v.8h-.2zM188.1 150.9h.2v.8h-.2zM187.2 150.7h.2v.9h-.2zM186.3 150.6h.2v.9h-.2zM185.3 150.6h.2v.8h-.2zM151.4 147.7c-11.7-.4-22.2-.6-27-.6v.4h.6v.4h-.7v2c9.2 0 39.1.6 59.1 2.2v-2l-.7.1v-.4l.6.1v-.4c-6.7-.5-14.5-.9-22.2-1.3l-1.4.3c7.8.3 15.7.8 22.6 1.3v.4c-19.9-1.6-47.8-2.2-57-2.1v-.4c5 0 15.5.2 27.2.6l-1.1-.6zm31.7 4c-20-1.6-49-2.2-58.2-2.2v-1.3c9.2 0 38.3.6 58.2 2.2v1.3z"/><path class="st10" d="M182.2 150.2h.2v.9h-.2zM181.3 150.1h.2v1h-.2zM180.4 150.1h.2v.9h-.2zM179.5 150h.2v1h-.2zM178.6 150h.2v1h-.2zM177.6 149.9h.2v1h-.2zM176.7 149.8h.2v1h-.2zM175.8 149.8h.2v1h-.2zM174.9 149.8h.2v1h-.2zM174 149.7h.2v1h-.2zM173.1 149.7h.2v.9h-.2zM172.1 149.6h.2v1h-.2zM171.2 149.5h.2v1h-.2zM170.3 149.4h.2v1h-.2zM169.4 149.4h.2v1h-.2zM168.5 149.4h.2v1h-.2zM167.6 149.3h.2v1h-.2zM166.6 149.3h.2v1h-.2zM165.7 149.2h.2v1h-.2zM164.8 149.2h.2v1h-.2zM163.9 149.1h.2v1h-.2zM163 149.1h.2v1h-.2zM162 149h.2v1.1h-.2zM161.1 149h.2v1h-.2zM160.2 149h.2v1.1h-.2zM159.3 148.9h.2v1.1h-.2zM158.4 148.9h.2v1.1h-.2zM157.4 148.9h.2v1h-.2zM156.5 148.8h.2v1.1h-.2zM155.6 148.8h.2v1.1h-.2zM154.7 148.7h.2v1.1h-.2zM153.8 148.7h.2v1.1h-.2zM152.9 148.6h.2v1.1h-.2zM151.9 148.6h.2v1.1h-.2zM151 148.6h.2v1.1h-.2zM149.2 148.5h.2v1.1h-.2zM150.1 148.6h.2v1.1h-.2zM148.3 148.5h.2v1.1h-.2zM147.4 148.5h.2v1.1h-.2zM146.4 148.4h.2v1.1h-.2zM145.5 148.4h.2v1.1h-.2zM144.6 148.4h.2v1.1h-.2zM143.7 148.4h.2v1h-.2zM142.8 148.4h.2v1h-.2zM141.9 148.4h.2v1h-.2zM140.9 148.3h.2v1.1h-.2zM140 148.3h.2v1.1h-.2zM139.1 148.3h.2v1h-.2zM138.2 148.3h.2v1h-.2zM137.3 148.3h.2v1h-.2zM136.4 148.2h.2v1.1h-.2zM135.4 148.2h.2v1.1h-.2zM134.5 148.2h.2v1.1h-.2zM133.6 148.2h.2v1.1h-.2zM132.7 148.1h.2v1.1h-.2zM131.8 148.1h.2v1h-.2zM130.8 148.1h.2v1h-.2zM129.9 148.1h.2v1h-.2zM129 148.1h.2v1h-.2zM128.1 148.1h.2v1h-.2zM127.2 148.1h.2v1h-.2zM125.3 148.1h.2v1h-.2zM126.3 148.1h.2v1h-.2zM122.4 149.8l.3-.1v-1.5h-.7v-.5h.7v-.3c-7.1 0-14.1.4-21.2 1.2v2.8c6.9-.8 13.9-1.2 20.9-1.2v-.4zm-.6-1.7c-6.7 0-13.4.4-20 1.2v-.4c6.6-.8 13.3-1.2 20-1.2v.4zm.7 1.6c-6.9 0-13.8.4-20.6 1.2v-1.4c6.8-.8 13.7-1.2 20.6-1.2v1.4z"/><path class="st10" d="M121.7 148.2h.2v1h-.2zM120.8 148.3h.2v1h-.2zM119.8 148.3h.2v1h-.2zM118.9 148.3h.2v1h-.2zM118 148.3h.2v1h-.2zM117.1 148.3h.2v1h-.2zM116.2 148.3h.2v1h-.2zM115.2 148.4h.2v1h-.2zM114.3 148.4h.2v1h-.2zM113.4 148.4h.2v1h-.2zM112.5 148.5h.2v1h-.2zM111.6 148.5h.2v1h-.2zM110.6 148.6h.2v1h-.2zM109.7 148.6h.2v1h-.2zM108.8 148.8h.2v.9h-.2zM107.9 148.7h.2v1h-.2zM106.9 148.8h.2v.9h-.2zM106 148.9h.2v.9h-.2zM105.1 149h.2v.9h-.2zM104.2 149.1h.2v.9h-.2zM103.3 149.2h.2v.9h-.2zM102.3 149.2h.2v.9h-.2zM124.1 117c2.8 7.6 7.2 14.5 12.8 20.3 6.5 6.8 13.5 10.5 19.7 10.5 6.9 0 13.6-2.8 18.4-7.7 3.6-3.5 6.5-7.7 8.6-12.4l-.4-.1c-2 4.6-4.9 8.7-8.4 12.2-4.8 4.9-11.3 7.6-18.2 7.6-6.1 0-13-3.7-19.4-10.4-5.6-5.8-9.9-12.6-12.7-20.2l-.2-.1-.2.3z"/><path class="st10" d="M160.7 148.5l.5-.1c5.5-1 10.6-3.7 14.6-7.6 3.4-3.3 6.2-7.2 8.2-11.4v-.9c-2 4.5-4.9 8.6-8.5 12.1-4.3 4.3-9.9 7-16 7.7-.6.1-.3.2-.3.2h1.5zM153.1 148.2c.2-.1.1-.1-.4-.2-2.3-.5-4.5-1.4-6.6-2.6-3.6-2.1-6.8-4.6-9.6-7.6-5.1-5.3-9.3-11.6-12.1-18.4l-.1-.4v1l.2.3c2.9 6.6 6.9 12.6 11.9 17.8 2.8 3 6.1 5.6 9.7 7.7 1.8 1 3.6 1.8 5.6 2.3l.3.1h1.1zM123 117.5l-.3-.2c-.1.2-8.4 14.8-21.2 21.7l.2.4c12.8-7 21.3-21.7 21.3-21.9z"/><path class="st10" d="M123.5 117.8c-1.7 2.9-3.7 5.7-5.9 8.4-3.4 4.2-8.9 10-15.8 13.7l-.3.6.5-.3c6.9-3.7 12.4-9.6 15.9-13.8 2-2.5 3.9-5.1 5.6-7.9v-.7zM117.4 117c-.1.1-6.7 10.8-16 17.2l.2.3c8.2-5.6 14.3-14.6 15.8-16.8v-.7z"/><path class="st10" d="M116.9 116.8l-.3-.3c-.1.1-6.7 10.8-15.8 17l.2.3c9.3-6.3 15.9-17 15.9-17zM127.8 133.2l2.1 2.4v.6c-.7-.7-1.3-1.5-2-2.3l-.1-.7zM126.8 132.6c-.7-.9-1.5-1.9-2.2-2.9-.1-.1 0-.2 0-.3s.2 0 .3 0c.6.9 1.3 1.7 1.9 2.6v.6zM132.9 139.2l-2.1-2.1v-.5l2.1 2.1v.5zM135.9 141.8c-.7-.6-1.4-1.1-2.1-1.8v-.5l2.1 1.8v.5zM138.9 143.9c-.7-.4-1.4-.9-2.1-1.4v-.5c.7.5 1.4 1 2.1 1.4v.5zM142 145.7c-.7-.3-1.3-.7-2-1.1v-.5l2.1 1.2-.1.4zM145 147c-.7-.2-1.4-.5-2.1-.9v-.4l2.1.9v.4zM148 147.4c-.7-.1-1.4-.3-2.1-.6l-.1.4 2.1.6M119.7 121.9c-.4-.8-.9-1.7-1.3-2.6l.5-.2c.4.8.8 1.7 1.3 2.6l-.5.2zM142.9 146.7c.7.3 1.5.6 2.2.8.1 0 .4.1.3.2-.1.1-.2.1-.4.1-.2-.1-.4 0-.6-.1l-1.5-.6v-.4zM139.9 145.2c.7.4 1.4.8 2.1 1.1v.4c-.7-.3-1.4-.7-2.1-1.1v-.4zM136.8 143.2c.7.5 1.4 1 2.1 1.4v.4c-.7-.4-1.4-.9-2.1-1.4v-.4zM133.8 140.8c.7.6 1.4 1.2 2.1 1.7v.5c-.7-.5-1.4-1.1-2.1-1.7v-.5zM130.8 137.9c.7.7 1.4 1.4 2.1 2v.5c-.7-.7-1.4-1.3-2.1-2v-.5zM126.7 134c-.7-.9-1.5-1.9-2.2-2.9-.1-.1 0-.2 0-.3s.2 0 .3 0c.7.9 1.3 1.7 2 2.6l-.1.6zM127.8 134.7c.7.8 1.4 1.6 2.1 2.3v.6c-.7-.8-1.5-1.6-2.2-2.4l.1-.5zM122.3 128.1l-1.5-2.4.4-.3 1.5 2.4-.4.3zM119.1 122.7c-.4-.6-.5-1.1-1-2l.2-.5c.4.9.8 1.6 1.2 2.3l-.4.2zM161.9 147.3l-1.6.1 1.4-.5c4.1-1.5 7.9-4 10.9-7.3 3-3.2 5.2-7 6.7-11.1v1.1c-1.5 3.8-3.6 7.2-6.4 10.2-3 3.4-6.7 5.9-11 7.5z"/><path class="st10" d="M157 147.7l-2-.1 2-.2c5.1-.9 9.8-3.3 13.6-6.9 3.9-3.6 6.8-8.2 8.4-13.3l.1.2v.7c-1.7 4.9-4.5 9.3-8.3 12.8-3.8 3.4-8.7 5.9-13.8 6.8zM194 147.3c.9.7 1.8 1.3 2.8 1.9l-.2.4c-.9-.5-1.8-1.1-2.6-1.8v-.5zM186.9 140.9c-.8-1-1.5-2-2.3-3.1v-.2l.1-.1.1-.1c.7 1 1.4 2 2.1 2.9v.6zM190 144.3c-.7-.7-1.4-1.5-2.1-2.3v-.6c.7.8 1.4 1.6 2.1 2.3v.6zM193 147l-2.1-1.8v-.5c.7.7 1.4 1.3 2.1 1.8v.5zM182.9 135.1c-.2-.3-.4-.7-.6-1l.4-.2c.2.3.4.7.6 1l-.4.2zM181.2 131.7c-.4-.8-.7-1.7-1-2.5l.4-.2c.3.8.7 1.7 1 2.5l-.4.2zM193.9 148.4c.7.5 1.5 1 2.2 1.5l-.2.4c-.7-.4-1.3-.9-2-1.3v-.6zM187 142.4c-.8-1-1.6-2-2.3-3 0-.1.1-.1 0-.2l-.1-.1.2-.1c.7 1 1.4 1.9 2.1 2.8l.1.6zM189.9 145.6l-2.1-2.1v-.6c.7.8 1.4 1.5 2.1 2.2v.5zM193 148.2c-.7-.5-1.4-1.1-2.1-1.7v-.5l2.1 1.8v.4zM182.9 136.8c-.5-.8-1-1.6-1.4-2.6l.4-.2c.5 1 1 1.8 1.4 2.6l-.4.2zM180.6 132.3c-.4-.9-.3-.6-.6-1.4v-1c.3.8.6 1.4 1 2.3l-.4.1zM197.3 145.3c-5.2-3.4-9.6-9.2-13-17.1 0-.1.1-.3 0-.4l.1-.5.1.3c3.3 8.1 7.7 13.9 12.9 17.3l-.1.4z"/><path class="st10" d="M196.6 145.9c-4.9-3.2-9-8.4-12.3-15.6-.1-.1.1-.2 0-.3v-.2l.1-.1c3.2 7.3 7.4 12.7 12.3 15.9l-.1.3z"/><path class="st10" d="M194.2 150.7h-.5v-7.1l.5.3zM193.2 150.7l-.4-.1v-7.9l.4.3zM191.1 150.5l-.4-.1v-9.9l.4.4zM190.2 150.3h-.4v-11.1l.4.4zM188.1 150.1h-.4v-13.9l.4.6zM187.2 150h-.5v-15.5l.5.8zM177.4 149.1h-.4v-9.8l.4-.5zM176.5 149.1h-.4v-8.9l.4-.5zM174.4 148.9h-.4v-6.8l.4-.4zM173.5 148.9h-.5v-6.1l.5-.3zM171.4 148.8h-.5v-4.4l.5-.3zM170.4 148.7h-.4v-3.8l.4-.2zM168.3 148.5h-.4V146l.4-.2zM167.4 148.5h-.4v-2l.4-.2zM165.3 148.5h-.4v-1.2l.4-.1zM164.4 148.5l-.5-.1v-.9l.5-.1zM177.4 137.3l-.4.5v-3.7l.4-.8zM176.5 138.3l-.4.5v-3.3l.4-.7zM174.4 140.4l-.4.4v-2.4l.4-.4zM173.5 141.3l-.5.4v-2.2l.5-.5zM171.4 142.9l-.5.3v-1.7l.5-.3zM170.4 143.6l-.4.2v-1.5l.4-.2zM168.3 144.8l-.4.2v-1.1l.4-.2zM167.4 145.2l-.4.2v-.8l.4-.2zM165.3 146.2h-.4v-.4l.4-.3zM164.4 146.5h-.5v-.3l.5-.2zM149.2 147.8h-.4v-.9l.4.1zM148.3 147.6h-.5v-1.1l.5.2zM146.2 147.9l-.5-.2v-2.3l.5.2zM145.2 147.8l-.4-.2v-2.8l.4.2zM143.1 147.7h-.4v-4.3l.4.2zM142.2 147.7h-.4v-5l.4.2zM137.1 147.5h-.5V138l.5.4zM136.1 147.5h-.4v-10.4l.4.5zM140.1 147.5h-.4V141l.4.3zM139.2 147.5h-.5v-7.3l.5.2zM134 147.4h-.4v-12.6l.4.4zM133.1 147.4h-.4v-13.7l.4.4zM131 147.4h-.4v-16.6l.4.5zM130.1 147.4h-.5v-18l.5.6zM128 147.4h-.5V126l.5.8zM127 147.4h-.4v-22.9l.4.7zM114.9 147.7h-.4v-17.5l.4-.5zM114 147.7h-.5v-16.6l.5-.4zM111.7 147.9h-.5v-14.6l.5-.4zM110.8 147.9h-.5v-13.7l.5-.4zM108.5 148.1h-.5v-12l.5-.4zM107.5 148.1h-.4v-11.3l.4-.4zM105.2 148.4h-.4v-10l.4-.3zM104.3 148.4h-.4v-9.5l.4-.2zM114.9 128.3l-.4.4v-7.1l.4-.5zM114 129.2l-.5.5v-7l.5-.5zM111.7 131.6l-.5.4v-6.5l.5-.5zM110.8 132.5l-.5.4v-6.2l.5-.6zM108.5 134.5l-.5.3V129l.5-.5zM107.5 135.2l-.4.4v-5.7l.4-.5zM105.2 137l-.4.1v-5.3l.4-.3zM104.3 137.6l-.4.2v-5.1l.4-.4zM93.1 69.6c-.4-2.2.4-6.4 3.8-8.2 1.8-1 3.9-1.5 5.9-1.6.2-.4.4-.9.4-1.4 0-.5-.1-1.1-.4-1.6-.2-.4-.2-.5.2-.6.9-.3 1.8-.4 2.7-.2.7.1 1.4.3 2 .6.3-.4.5-.9.7-1.4.2-.6.4-1.2.5-1.8 0-.2.2-.4.4-.5.8-.1 1.7-.1 2.5.2.7.2 1.4.5 2.1.9.5-.3 1-.7 1.4-1.1.5-.6 1-1.3 1.4-2l.1-.2h.3c.5.1 1 .2 1.5.5.4.2.7.5 1 .8l.2-.1c.5-.2.9-.5 1.3-.9.5-.5.8-1.1 1-1.8.1-.5.3-.6.7-.3.9.6 2 1 3.1 1.1 1 0 2.1-.3 3-.7.9-.3 1.8-.6 2.7-.7 1.1-.1 2.3-.1 3.4.1-1.4-1.5-3.2-2.7-5.1-3.4-1.7-.7-3.5-.9-5.4-.7-.3 0-.3.1-.5-.2-.3-.7-.6-1.4-1.1-2-.4-.6-1-1-1.6-1.3.1.6-.1 1.2-.3 1.7-.2.5-.7.7-1.2.6-.2-.2-.4-.5-.4-.8-.1-.7-.3-1.3-.6-1.9-.3-.5-.6-1-1-1.5 0 .4-.1.8-.3 1.1-.1.2-.4.4-.7-.1-.9-1.2-2-2.2-3.3-2.9-1.3-.9-2.9-1.4-4.5-1.5l.8.8c.4.6.8 1.3 1 2 .2.7.1 1-.5.5-.8-.6-1.8-.9-2.7-1-.7-.1-1.4-.1-2.1 0 .2.4.3.8.3 1.2.1.5.1 1 0 1.5-.1.3-.3.5-.6.2-.4-.4-.9-.6-1.4-.8-.5-.2-1-.2-1.5-.2-.3 0-.6 0-.5-.5.1-1.3.6-2.5 1.3-3.5.7-.9 1.5-1.6 2.5-2 .2-.1.6-.2.8-.3-.7-.5-1.5-.9-2.4-1.1-1-.3-2.1-.2-3.2.1 0 0-.1-1.3-2-2.8-.8-.6-1.7-1-2.6-1.1 0 .3 0 .7-.1 1-.1.5-.2.9-.4 1.4-.3.6-.4 1.3-.4 2-.1.9.1 1.8.6 2.6.1.2.1.4-.1.5h-.1c-.8.4-1.3 1.1-1.7 1.9-.2.4-.3.7-.4 1.1.4 0 .9.1 1.3.2.6.1 1.1.5 1.4 1 0 .2-.1.5-.3.6-.2.1-.2 0-.4.2-.6.3-1.2.7-1.7 1.2-.4.4-.7.8-.9 1.3.2 0 .3.1.4.2.3.2.6.4.8.7.2.2.2.4-.2.6-.7.4-1.3 1-1.7 1.8-.3.4-.5.9-.7 1.4l1.2.6c.6.3 1.2.8 1.5 1.5.1.2.1.5-.2.6-.1.1-.2.1-.3.1-.7 0-1.4.1-2 .4-.6.2-1.1.5-1.5.9 1 1.4 1.3 3.2 1 4.9-.4 1.6-1 3.1-1.8 4.6-1 2-1.8 4.1-2.2 6.2-.2 1.9 0 3.9.7 5.8l-1.2 1.2c-.9-2.3-1.1-4.8-.6-7.3.5-2.1 1.3-4.1 2.3-6 .8-1.5 1.5-3 2-4.6.4-1.6 0-3.2-1-4.5-.2-.2-.2-.4 0-.6.6-.7 1.3-1.1 2.1-1.4.5-.2 1.1-.3 1.6-.4-.3-.2-.5-.5-.8-.7-.4-.3-.9-.5-1.5-.7-.4-.1-.4-.2-.3-.6.2-.7.6-1.4 1-2 .5-.6 1-1.2 1.6-1.7-.3-.2-.7-.3-1-.2-.1.1-.3 0-.4-.1 0-.1-.1-.2 0-.2.2-.9.8-1.8 1.5-2.5.6-.5 1.3-.9 2-1.3-.1-.1-.3-.3-.5-.3-.4-.2-.9-.3-1.3-.2-.3.2-.7.1-.7-.1 0-.8.2-1.5.5-2.2.5-.8 1.1-1.5 1.8-2.1-.4-.9-.6-1.8-.7-2.7.1-.8.3-1.6.6-2.4.2-.4.3-.8.3-1.2.1-.4.1-.8 0-1.1-.2-.3.1-.5.5-.4 1.3 0 2.5.5 3.6 1.3.8.7 1.5 1.5 1.9 2.5 1-.2 2-.2 3 0 1.3.3 2.5 1 3.4 2 .2.3 0 .5-.3.5-.5.1-.9.3-1.3.5-.8.4-1.5.9-2.1 1.6-.6.8-1 1.7-1.1 2.7.4 0 .9.1 1.3.2s.7.3 1 .5c0-.3 0-.5-.1-.8-.1-.5-.2-.9-.4-1.3-.1-.3-.2-.5.3-.6.9-.2 1.9-.2 2.9 0 .7.1 1.3.4 1.9.7-.1-.2-.3-.5-.4-.7-.3-.6-.8-1.1-1.3-1.5-.5-.5-.5-.7.3-.7 2-.2 4.1.4 5.8 1.5 1.2.7 2.2 1.7 3.1 2.7.1-.4.1-.7 0-1.1-.3-.6-.1-.7.8-.2.9.5 1.5 1.3 1.9 2.2.3.7.6 1.4.7 2.2.3-.6.4-1.3.3-2-.1-.5.2-.5.5-.3 1 .3 1.9.9 2.5 1.8.4.6.7 1.2 1 1.9 1.9-.1 3.8.1 5.5.8 2.5.8 4.8 2.4 6.3 4.6.2.3 0 .7-.4.5-1.4-.4-2.9-.4-4.4-.2-.9.2-1.7.4-2.5.8-1 .5-2.2.8-3.3.8-1.1 0-2.1-.3-3-.9-.2.6-.6 1.2-1.1 1.7-.5.4-1 .8-1.5 1-.2.1-.4.2-.6.2l-.3.1-.2-.3c-.3-.3-.6-.6-.9-.8-.3-.2-.5-.3-.8-.4-.4.7-.8 1.3-1.3 1.8-.6.6-1.3 1.1-2.1 1.6l-.2.1-.2-.1c-.6-.5-1.3-.8-2.1-1.1-.6-.1-1.3-.1-1.9 0-.1.5-.3 1.1-.5 1.6-.3.7-.6 1.3-1.1 1.9l-.2.3-.3-.2c-.6-.3-1.3-.6-2-.7-.6-.1-1.2-.1-1.8 0 .2.6.4 1.1.4 1.8.1.6 0 1.3-.3 1.9h-.5c-2 0-4 .6-5.8 1.7-2.2 1.4-3.4 3.9-3 6.5l-1.8 1.2z"/><path class="st10" d="M105.2 43.7c.5-.4.6-.3.5.3-.1.9-.4 1.8-.8 2.6-.5.6-1 .9-1.4.6-.6-.5-.6-1.4 0-2l.1-.1c.4-.5 1-1 1.6-1.4zm-2.6 1.7c-.5.8-.3 2 .5 2.6.7.5 1.7.1 2.5-.9.6-1.1.9-2.4.9-3.7 0-.8-.5-.8-1-.5-1.3.5-2.3 1.4-2.9 2.5z"/><path class="st10" d="M89.2 72.9c-.6-3.1-.4-5.7 1.5-9.8 1.5-3.2 3.5-5.3 4.8-7.2.8-1.1 1.3-2.2 1.8-3.5.1-.9-.2-1.8-.7-2.5-1-1.4-1.4-1-1.4-1-.1.2-.4.2-.6.1-.1-.1-.2-.2-.2-.3-.1-.4.5-.8 1.3-.6 1.4.5 2 3 2 3 .3-.8.5-1.5.7-2.3.1-.6.2-1.3.2-1.9-.1-.5-.3-1-.6-1.5-.9-1.2-1.1-.5-1.6-.7s-.5-.8.2-.9c.7 0 1.4.4 1.8 1 .2.3.5.6.6 1 .1-1.1.1-2.2.1-3.2l-.2-2.3c-.1-.4-.4-.7-.8-1-.8-.4-.6.1-1.1.2-.2.1-.8-.3-.2-.8.8-.6 1.9.5 1.9.5s-.3-1.7-.8-4.1-1-3.5-1.1-3.9.1-.6.5-.3.8.7 1.1 1.1c.3.3.4.9.1 1.3-.3.3-.4.8-.3 1.2.3 1.1 1 4.8 1 4.8.2-1 .6-1.9 1.2-2.7.4-.6.9-1.2 1.4-1.7-.1-.3.1-.7.4-.8 1-.4 1.7-.3 1.1.2-1.1.8-2.1 1.8-2.7 3-.5.9-.9 2-1.2 3V44.2c.3-.8.8-1.5 1.4-2 .9-.8 1.9-.7 1.9-.1s-.7.2-.7.2c-.7.2-1.3.7-1.6 1.2-.4.5-.7 1.1-.9 1.7 0 0-.2 2.1-.5 3.7s-.8 3.1-1.4 4.6c-.2.5-.2.6.2.3 2.1-1.6 4.4-3 6.9-4.1 4.7-2.1 9.3-2.8 15.3-3.5 3.5-.5 7.1-.2 10.6.8.4.2.5.3.2.5s-.7.3-1 .3c-.2 0-.3 0-.4-.2-.1-.2 0-.4-1-.5-4.7-.4-9.4-.2-14 .8-4 .7-7.8 1.9-13.7 5.3-1.9 1.2-3.6 2.7-5.1 4.3-2.1 2.2-3.7 4.8-4.8 7.7-1.4 4.3-.5 6.4-.5 6.4l-1.1 1.3z"/><path class="st12" d="M29.4 111.8c.8-.9 1.9-1.6 3.1-1.9 1.1-.3 2.2-.3 3.3.1.4-1 1-1.8 1.9-2.3.9-.8 2.1-1.2 3.3-1.3-.6 1.3-.8 2.8-.5 4.2.3 1.1.9 2.2 1.7 3.1.4-.4.8-.8 1.3-1.2.5-.3 1-.5 1.5-.6-.3-.4-.6-.7-1-.9-.5-.3-1-.5-1.5-.7.4-.8.9-1.5 1.6-2.1.7-.6 1.5-1.1 2.4-1.5-.6-.2-1.3-.3-1.9-.4-.6-.1-1.3-.1-1.9 0 1.2-1.5 2.7-2.7 4.6-3.3 1.4-.5 3-.8 4.5-.8 0-.3-.2-.5-.4-.7-.2-.2-.5-.4-.7-.6.9-.2 1.8-.3 2.7-.1.7.1 1.4.4 2 .8.3.2.7-.1.5-.6-.3-.6-.8-1.1-1.4-1.5.8-.6 1.8-.9 2.7-.8.8 0 1.6.2 2.3.4 1-1.6 2.4-2.9 4-3.9 2.3-1.3 4.8-2 7.5-2-1.3.9-2.4 2-3.2 3.4-1 1.8-1.2 4.2-2.4 5.4-.9.8-1.9 1.5-3 1.9.5.6.8 1.4.8 2.1.1.8 0 1.6-.3 2.3-.5 0-.9.1-1.4.3-.4.1-.8.4-1.2.7.3.8.5 1.6.7 2.4.1.7.1 1.5 0 2.3-.7.3-1.5.7-2.1 1.1-.6.5-1.2 1.1-1.6 1.8.5.5.9 1 1.2 1.6.3.6.6 1.2.8 1.9-.7.3-1.4.7-1.9 1.2-.6.6-1.1 1.3-1.4 2.1 1.2.2 2.3.9 2.9 2-1.2 1.6-2.1 3.5-2.5 5.5-.9 4.9 3.4 7.7 3.4 7.7l-.6 8.4c-1.7-.9-3.2-2-4.5-3.4-2.7-2.9-3.9-7.9-5.8-9.9-1.1-1.4-2.8-2.2-4.5-2.1-.1-.8 0-1.6.2-2.3.2-.7.5-1.4.9-2-.6-.1-1.2 0-1.8.2-.6.1-1.1.4-1.5.8-.4-.6-.8-1.3-1-1.9-.3-.8-.4-1.7-.3-2.6-.3 0-.5 0-.8.1-.3.1-.5.3-.6.6-.5-.6-.8-1.4-.8-2.2-.1-.9 0-1.8.3-2.7-.5 0-.9.1-1.3.4-.4.3-.8.7-1.1 1.1 0 0-.5-.1-1-1.4-.4-.9-.6-1.8-.6-2.8-.9-.2-1.8-.6-2.6-1.2-1.3-1.1-1.3-1.9-2.2-2.8 0-.9-.4-1.2-.8-1.4z"/><path class="st10" d="M60 139.4c-2-1-4.8-4.3-4-8.1.4-2 1.2-4 2.4-5.7-.2-.4-.5-.8-.8-1.1-.4-.3-.9-.6-1.5-.7-.4-.1-.5-.2-.4-.5.3-.9.8-1.7 1.5-2.3.5-.5 1.1-.9 1.7-1.1-.2-.5-.4-1-.6-1.4-.3-.5-.7-1-1.1-1.5-.2-.2-.2-.4-.1-.6.4-.7 1-1.4 1.7-1.9.6-.4 1.3-.8 2-1.1.1-.6.1-1.2 0-1.8-.1-.8-.4-1.6-.7-2.3l-.1-.3.2-.2c.4-.4.8-.7 1.3-.8l1.2-.3.1-.2c.1-.5.2-1.1.1-1.6-.1-.7-.4-1.4-.8-1.9-.3-.4-.3-.6.2-.7 1.1-.3 2-.9 2.8-1.7.6-.8 1.1-1.8 1.3-2.8.3-.9.7-1.8 1.2-2.6.6-1 1.4-1.9 2.2-2.6-2.1.2-4.1.8-5.8 1.9-1.6.9-2.9 2.2-3.9 3.7-.1.2-.1.3-.5.2-.7-.2-1.5-.4-2.3-.4-.7 0-1.4.1-2 .4.5.3.9.8 1.2 1.3.3.4.2 1-.2 1.3-.3.1-.6 0-.9-.2-.6-.3-1.2-.6-1.8-.7-.6-.1-1.2-.1-1.8-.1.3.3.5.6.7.9.1.2 0 .6-.5.5-1.5 0-3 .2-4.3.8-1.5.5-2.9 1.4-4 2.6.3 0 .8-.1 1.2-.1.7 0 1.5.2 2.2.4.7.3.8.6.1.8-.9.3-1.8.8-2.5 1.5-.5.5-1 1-1.3 1.7.4.1.8.3 1.1.4.4.3.8.6 1.2 1 .2.3.2.6-.2.7-.5.1-1 .3-1.5.6-.4.3-.8.6-1.1 1.1-.2.3-.4.4-.8.1-.9-.9-1.5-2-1.8-3.3-.3-1.1-.3-2.2 0-3.2.1-.3.2-.6.3-.8-.9.2-1.7.6-2.4 1.2-.9.6-1.5 1.5-1.9 2.5 0 0-1.1-.7-3.5-.2-1 .2-1.8.7-2.5 1.4.3.2.5.4.7.7.3.4.6.8.8 1.2.3.6.8 1.2 1.3 1.6.6.6 1.5 1 2.4 1.1.2 0 .4.2.4.4v.1c-.1.9 0 1.7.5 2.5.2.4.4.7.7 1 .3-.3.6-.6 1-.9.5-.4 1-.5 1.6-.4.2.1.3.4.3.6 0 .2-.1.2-.1.4-.1.7-.2 1.3-.2 2 0 .5.2 1 .5 1.5.1-.1.3-.2.4-.2.3-.1.7-.2 1-.2.3 0 .4.1.3.6-.1.8 0 1.6.3 2.4.2.5.4 1 .7 1.4.4-.2.8-.4 1.2-.5.7-.3 1.4-.4 2.1-.3.3 0 .4.3.4.5 0 .1-.1.2-.2.3-.4.5-.7 1.1-.9 1.8-.2.6-.3 1.2-.3 1.8 1.7.2 3.3 1 4.4 2.3 1 1.3 1.9 2.8 2.5 4.3.9 2 2.1 3.9 3.5 5.6 1.4 1.4 3.1 2.5 4.9 3.1l.2 1.7c-2.4-.7-4.5-2.1-6.1-4-1.3-1.7-2.4-3.6-3.3-5.6-.6-1.6-1.4-3-2.4-4.4-1-1.3-2.5-2-4.1-2-.2 0-.4-.1-.5-.3-.2-.9-.1-1.7.2-2.5.2-.5.4-1 .7-1.5-.3 0-.7.1-1 .2-.5.2-1 .4-1.4.7-.3.2-.4.2-.7-.1-.4-.6-.7-1.4-1-2.1-.2-.8-.3-1.5-.3-2.3-.3.1-.6.3-.8.6 0 .2-.2.3-.3.3-.1 0-.2-.1-.2-.1-.6-.8-.9-1.7-1-2.7 0-.8.1-1.6.3-2.3-.2 0-.4.1-.6.2-.4.2-.8.6-.9 1 0 .4-.3.6-.5.5-.6-.5-1.1-1.1-1.4-1.8-.3-.9-.5-1.8-.5-2.7-.9-.2-1.8-.6-2.6-1.2-.6-.6-1.1-1.2-1.5-1.9-.2-.4-.5-.7-.8-1-.2-.3-.5-.6-.9-.7-.4-.1-.3-.3 0-.6.8-1 2-1.7 3.2-2 1-.2 2.1-.2 3.2 0 .4-.9 1.1-1.7 1.9-2.3 1-.9 2.3-1.3 3.7-1.3.3 0 .3.3.2.6-.2.4-.3.9-.4 1.3-.2.9-.2 1.8 0 2.7.3 1 .7 1.9 1.4 2.6.3-.3.6-.6 1-.9.3-.2.6-.3 1-.5-.2-.2-.4-.3-.6-.4-.4-.2-.8-.4-1.2-.5-.3-.1-.5-.2-.3-.6.4-.9 1-1.6 1.8-2.2.5-.4 1.1-.7 1.7-1-.2 0-.6-.1-.8-.1-.7-.1-1.3-.1-2 .1-.7.1-.8 0-.4-.7 1.1-1.7 2.8-2.9 4.8-3.6 1.3-.4 2.7-.7 4.1-.7-.2-.3-.5-.5-.9-.7-.6-.1-.6-.4.3-.7.9-.4 2-.4 2.9-.1.7.2 1.4.4 2.1.8-.3-.7-.8-1.2-1.4-1.5-.5-.2-.3-.5.1-.6.9-.6 1.9-1 3-.9.7.1 1.4.2 2.1.4 1.1-1.5 2.4-2.8 4-3.8 2.2-1.5 4.9-2.2 7.6-2 .4 0 .5.4.2.7-1.2.9-2.1 2-2.8 3.3-.4.8-.8 1.6-1 2.4-.3 1.1-.8 2.2-1.4 3.1-.7.9-1.6 1.5-2.6 1.8.3.6.5 1.2.6 1.9.1.6 0 1.3-.1 1.9-.1.2-.1.4-.2.6l-.1.3h-.3c-.4 0-.8.1-1.2.2-.3.1-.6.2-.8.4.3.7.5 1.5.6 2.2.1.8.1 1.7.1 2.5v.2l-.2.1c-.8.2-1.5.6-2.1 1-.5.4-.9.9-1.2 1.5.4.4.7.9.9 1.3.4.6.6 1.3.8 2l.1.4-.3.1c-.7.3-1.2.6-1.8 1.1-.4.4-.8.9-1.1 1.4.6.2 1.1.4 1.6.8.6.3 1 .8 1.3 1.4l-.1.1-.2.2c-1.3 1.6-2.1 3.5-2.3 5.6-.3 2.6.9 5.1 3.2 6.4l-.8 1.4z"/><path class="st10" d="M60.2 144.4c-2.8-1.5-4.7-3.2-6.7-7.3-1.6-3.2-2-6.1-2.6-8.2-.4-1.3-.9-2.5-1.6-3.6-.7-.6-1.5-.9-2.4-1-1.8-.1-1.6.4-1.6.4.1.2-.1.5-.3.5h-.3c-.4-.1-.3-.9.4-1.4 1.2-.8 3.6.3 3.6.3-.4-.7-.9-1.4-1.4-2-.4-.5-.9-.9-1.4-1.3-.5-.3-1-.4-1.5-.4-1.5 0-1 .6-1.5.8s-1-.1-.6-.7c.4-.5 1.1-.7 1.8-.7.4 0 .8 0 1.2.1-.8-.8-1.6-1.4-2.5-2.1l-1.9-1.3c-.4-.2-.8-.2-1.2 0-.8.4-.3.5-.5 1-.1.2-.7.4-.7-.4 0-1 1.6-1.2 1.6-1.2s-1.5-.8-3.7-1.9-3.3-1.4-3.7-1.6-.4-.5.1-.6c.5-.2 1.1-.2 1.6-.2s.9.2 1.1.7c0 .5.4.9.8 1 1.1.5 4.4 2.2 4.4 2.2-.6-.8-1.1-1.7-1.4-2.6-.2-.7-.4-1.5-.5-2.2-.3-.1-.5-.5-.3-.9.3-1 .8-1.5.8-.7-.1 1.4.1 2.7.6 4 .4 1 1 1.9 1.6 2.7 0 0 1 .9 1.7 1.3s1.5 1.1 1.5 1.1c-.4-.7-.6-1.5-.7-2.3 0-1.2.7-1.9 1.1-1.5s-.2.7-.2.7c-.2.7-.2 1.4 0 2.1.2.6.4 1.2.7 1.8 0 0 1.5 1.4 2.6 2.7 1 1.2 1.9 2.6 2.7 3.9.2.4.4.5.4 0 .1-2.7.4-5.3 1.1-7.9 1.3-5 3.6-9.1 6.8-14.2 1.8-3 4.3-5.7 7.2-7.8.4-.2.6-.2.5.2-.1.3-.2.7-.4 1-.1.2-.1.2-.4.2-.2 0-.3-.2-1 .5-3.3 3.4-6 7.3-8.1 11.5-2 3.6-3.4 7.2-4.4 14-.2 2.2-.2 4.5.2 6.7.4 3 1.5 5.9 3 8.5 2.5 3.8 4.7 4.4 4.7 4.4l-.3 1.7z"/><path class="st10" d="M47.2 113.9c0-.7.2-.7.6-.2.7.6 1.2 1.4 1.6 2.2.2.8.1 1.3-.4 1.5-.8.1-1.5-.4-1.6-1.2v-.1c-.2-.8-.2-1.5-.2-2.2zm-.3 3.1c.3 1 1.4 1.5 2.3 1.2.8-.3 1.2-1.3.8-2.5-.5-1.2-1.4-2.2-2.4-2.9-.7-.5-.9-.1-1 .5-.3 1.2-.1 2.5.3 3.7z"/><path class="st12" d="M53.2 215.4c-.2-1.2 0-2.5.5-3.6.5-1 1.2-1.9 2.1-2.5-.5-.9-.7-1.9-.6-2.9 0-1.2.3-2.4 1-3.4.7 1.3 1.7 2.3 3 3 1.1.5 2.3.7 3.5.6-.1-.6-.1-1.2-.1-1.7 0-.6.2-1.1.5-1.6-.4 0-.9.1-1.3.2-.5.2-1 .5-1.4.7-.4-.8-.6-1.7-.6-2.6 0-1 .1-1.9.3-2.8-.5.4-1 .8-1.5 1.3-.4.5-.8 1-1.1 1.5-.5-1.9-.4-3.8.2-5.7.5-1.5 1.2-2.8 2.2-4.1-.2-.1-.5-.2-.8-.2-.3 0-.6.1-.9.2.4-.8.9-1.6 1.6-2.2.5-.5 1.2-.8 1.8-1.1.3-.1.4-.6-.1-.7-.7-.1-1.4-.1-2.1.1 0-1 .4-1.9 1-2.6.5-.6 1.1-1.1 1.8-1.6-.6-1.8-.8-3.7-.5-5.6.4-2.6 1.4-5.1 3.1-7.1-.1 1.6.1 3.1.6 4.6.7 1.9 2.5 3.5 2.8 5.3.1 1.2 0 2.4-.3 3.5.8 0 1.5.3 2.2.7.7.4 1.2 1 1.6 1.7-.3.4-.5.8-.6 1.2-.2.4-.2.9-.2 1.4.8.3 1.6.6 2.3 1 .7.4 1.2.9 1.8 1.4-.2.8-.4 1.5-.5 2.3 0 .8.1 1.6.4 2.4.7-.1 1.3 0 2 .1s1.3.3 1.9.6c-.2.7-.3 1.5-.3 2.2.1.8.3 1.7.8 2.4.9-.8 2.1-1.2 3.4-1 .5 1.9 1.4 3.7 2.7 5.2 3.2 3.8 8.1 2.1 8.1 2.1l6.1 5.7c-1.7.8-3.6 1.2-5.4 1.4-3.9.3-8.6-1.8-11.4-1.6-1.7 0-3.4.8-4.5 2.2-.7-.4-1.2-1-1.7-1.6-.4-.6-.8-1.2-1-1.9-.5.4-.8.9-1 1.5-.2.5-.4 1.1-.3 1.6-.7 0-1.4-.2-2.1-.5-.8-.3-1.6-.8-2.2-1.4-.2.2-.3.4-.4.7-.1.3-.1.6 0 .8-.8 0-1.6-.3-2.2-.7-.8-.5-1.4-1.2-1.9-1.9-.3.3-.5.8-.5 1.2 0 .5 0 1.1.2 1.6 0 0-.4.4-1.7 0-.9-.2-1.8-.7-2.6-1.3-.8.6-1.6 1-2.6 1.2-1.6.4-2.3-.1-3.5-.1-.7.2-1.2.3-1.6.4z"/><path d="M94 208.8c-2 .9-6.4 1.1-8.8-1.9-1.4-1.6-2.3-3.4-2.9-5.4-.5-.1-1-.2-1.4-.1-.5.1-1 .4-1.5.7-.3.2-.5.3-.6 0-.5-.8-.8-1.7-.8-2.6 0-.7 0-1.3.2-2-.5-.2-1-.3-1.5-.4-.6-.1-1.3-.1-1.9-.1-.2 0-.4-.1-.5-.3-.3-.8-.4-1.6-.4-2.5 0-.8.2-1.5.4-2.2-.4-.5-.9-.8-1.4-1.2-.7-.4-1.4-.7-2.2-.9l-.3-.1v-.3c-.1-.5 0-1.1.2-1.6.1-.4.3-.8.5-1.1l-.2-.2c-.3-.4-.7-.8-1.2-1.1-.6-.4-1.3-.6-2-.6-.6 0-.6-.1-.4-.6.4-1 .6-2.1.4-3.2-.3-1-.7-2-1.4-2.8-.5-.8-1-1.6-1.3-2.5-.4-1.1-.6-2.2-.7-3.4-1.1 1.7-1.9 3.7-2.2 5.8-.3 1.8-.1 3.7.5 5.4.1.2.2.3-.1.5-.7.4-1.3.9-1.8 1.5-.5.5-.8 1.2-1 1.9.6-.2 1.2-.2 1.8-.1.5.1.9.5.9 1-.1.3-.4.5-.7.6-.6.2-1.2.6-1.7 1-.4.4-.8.8-1.2 1.3.4-.1.8-.1 1.2 0 .2.1.5.4.1.7-1 1.1-1.7 2.5-2.1 3.9-.5 1.5-.7 3.1-.4 4.7.2-.2.4-.7.6-1 .5-.6 1.1-1 1.7-1.4.7-.4.9-.3.6.4-.4.9-.5 1.9-.4 2.9.1.7.2 1.4.5 2.1.3-.2.6-.4 1-.6.5-.2 1-.3 1.5-.3.3 0 .6.2.4.6-.3.5-.4 1-.4 1.5-.1.5 0 1 .2 1.6.1.3.1.6-.4.6-1.3.1-2.6-.1-3.7-.6-1-.4-1.8-1.1-2.5-2-.2-.2-.3-.5-.5-.7-.4.8-.6 1.7-.6 2.6 0 1.1.3 2.1.8 3 0 0-1.2.4-2.3 2.6-.4.9-.6 1.9-.5 2.8.3-.1.7-.1 1-.1.5 0 1 0 1.4.1.7.1 1.4.1 2 0 .9-.1 1.7-.5 2.3-1.2.1-.2.4-.2.5-.1l.1.1c.6.6 1.4 1.1 2.2 1.2.4.1.8.1 1.2.1-.1-.4-.1-.9-.1-1.3 0-.6.2-1.1.7-1.6.2-.1.5 0 .7.1.1.2.1.1.3.4.4.5.9 1 1.5 1.4.4.3.9.5 1.5.6 0-.2 0-.3.1-.5.1-.4.2-.7.5-1 .2-.2.3-.2.7.1.6.6 1.3 1 2.1 1.3.5.2 1 .3 1.6.4.1-.4.2-.9.3-1.3.2-.7.6-1.3 1.1-1.8.2-.2.5-.2.7 0 .1.1.1.2.1.3.1.7.4 1.3.8 1.8.3.5.7.9 1.2 1.3 1.2-1.2 2.8-2 4.6-2 1.7 0 3.3.3 4.9.7 2.1.6 4.4.8 6.6.8 2-.2 3.8-.9 5.5-1.9l1.4.9c-2.1 1.4-4.5 2.2-7 2.2-2.2 0-4.3-.3-6.4-.9-1.6-.5-3.3-.8-4.9-.9-1.6 0-3.1.7-4.2 2-.1.2-.4.3-.6.2-.8-.4-1.4-1-1.8-1.8-.3-.5-.5-1-.7-1.5-.2.3-.3.7-.5 1-.2.5-.3 1-.3 1.6 0 .4-.1.4-.5.4-.8-.1-1.5-.3-2.2-.6-.7-.3-1.4-.7-2-1.2-.2.3-.2.7 0 1 .1.1.1.3 0 .4-.1.1-.2.1-.2.1-1 0-1.9-.3-2.7-.9-.6-.5-1.1-1.1-1.5-1.7-.1.2-.2.4-.2.6-.1.5 0 1 .2 1.4.3.3.3.6.1.7-.7.2-1.5.2-2.2 0-.9-.3-1.7-.7-2.4-1.3-.7.6-1.6 1-2.5 1.2-.8.1-1.6.1-2.5 0-.4-.1-.9-.1-1.3-.1s-.8 0-1.1.3c-.3.2-.5 0-.5-.4-.3-1.3-.1-2.6.5-3.8.5-1 1.1-1.8 2-2.4-.4-.9-.7-1.9-.6-2.9 0-1.4.4-2.7 1.2-3.7.2-.2.4-.1.6.2.2.4.5.8.8 1.2.5.7 1.2 1.2 2 1.6.9.4 1.9.6 2.9.5-.1-.4-.1-.9-.1-1.3s.1-.7.3-1.1c-.2 0-.5.1-.7.2l-1.2.6c-.3.2-.4.3-.7-.1-.4-.9-.6-1.8-.6-2.8 0-.7.1-1.3.2-2-.2.1-.4.4-.6.6-.5.5-.9 1-1.2 1.6-.3.6-.5.6-.8-.1-.6-2-.6-4.1.2-6 .5-1.3 1.2-2.5 2-3.6-.4 0-.8.1-1.1.3-.5.4-.7.2-.4-.7.3-.9.9-1.7 1.7-2.3.6-.5 1.3-.9 2-1.1-.7-.2-1.4-.1-2.1.2-.5.2-.5-.1-.5-.4 0-1.1.5-2.1 1.2-2.9.5-.5 1-1 1.6-1.4-.5-1.8-.7-3.7-.5-5.6.2-2.7 1.3-5.2 3.1-7.2.3-.2.6-.2.6.3 0 1.5.2 2.9.8 4.3.3.8.8 1.6 1.3 2.3.7.9 1.2 2 1.5 3.1.3 1.1.2 2.2-.2 3.2.7.1 1.3.3 1.9.7.5.4 1 .8 1.4 1.3.1.2.3.4.4.6l-.1.3-.2.2c-.2.3-.4.7-.5 1.1-.1.3-.2.6-.2.9.7.2 1.4.5 2.1.9.7.4 1.4.9 2 1.5l.2.1-.1.2c-.3.7-.5 1.5-.6 2.3 0 .6.1 1.3.4 1.9.5 0 1.1 0 1.6.1.7.1 1.4.3 2.1.6l.3.2-.1.4c-.2.7-.3 1.4-.2 2.1.1.6.2 1.2.4 1.8.5-.3 1-.6 1.6-.8.6-.2 1.3-.3 1.9-.1l.1.1.1.3c.5 2 1.5 3.8 2.9 5.2 1.8 1.9 4.6 2.5 7 1.5l1.2 1.3z"/><path d="M97.9 211.8c-2.9 1.2-5.4 1.7-9.9.7-3.5-.8-6-2.3-8-3.1-1.2-.5-2.5-.8-3.8-1-.9.1-1.7.6-2.3 1.2-1.2 1.3-.7 1.5-.7 1.5.2.1.3.4.2.6 0 .1-.1.2-.2.2-.3.2-.9-.3-.8-1.1.2-1.5 2.5-2.6 2.5-2.6-.8-.1-1.6-.2-2.4-.1-.6 0-1.3.1-1.9.2-.5.2-.9.5-1.3.9-.9 1.2-.2 1.2-.3 1.7s-.7.7-.9 0c-.1-.7.1-1.3.6-1.8.2-.3.5-.6.8-.8-1.1.1-2.1.4-3.2.6l-2.2.7c-.4.2-.6.5-.8.9-.2.9.2.6.5 1 .1.2-.2.8-.8.3-.8-.7.1-1.9.1-1.9s-1.6.6-3.8 1.7-3.2 1.7-3.6 1.9-.6 0-.4-.5c.2-.5.5-1 .8-1.4.3-.4.8-.6 1.2-.4.4.3.9.3 1.3 0 1-.5 4.5-2.1 4.5-2.1-1 0-2-.2-2.9-.5-.7-.3-1.4-.6-2-1-.3.2-.7.1-.9-.3-.6-.8-.6-1.6-.1-1.1 1 .9 2.2 1.6 3.5 2 1 .3 2.1.4 3.1.5 0 0 1.3-.2 2.1-.5s1.8-.4 1.8-.4c-.8-.1-1.6-.4-2.2-.9-.9-.7-1.1-1.7-.5-1.8s.4.6.4.6c.3.6.9 1.1 1.5 1.3.6.3 1.2.4 1.8.5 0 0 2.1-.3 3.7-.4 1.6 0 3.2.1 4.8.3.5.1.6 0 .3-.3-2.1-1.7-3.9-3.7-5.5-5.8-3.1-4.2-4.8-8.5-6.8-14.2-1.2-3.3-1.8-6.9-1.6-10.5.1-.5.2-.6.5-.3.2.3.4.6.5.9.1.2.1.2-.1.4s-.4.1-.2 1.1c.6 4.6 1.9 9.2 3.9 13.4 1.6 3.8 3.6 7.1 8.2 12.2 1.6 1.6 3.4 2.9 5.3 4 2.6 1.6 5.5 2.6 8.6 3 4.5.4 6.3-1 6.3-1l1.3 1.5z"/><path d="M66 202.9c-.5-.4-.4-.6.2-.6.9-.1 1.8-.1 2.7.1.7.3 1.1.7.9 1.2-.4.7-1.3.9-1.9.5l-.1-.1c-.7-.2-1.3-.6-1.8-1.1zm2.2 2.1c1 .3 2-.2 2.4-1.1.3-.8-.3-1.7-1.5-2.2-1.2-.3-2.5-.3-3.8.1-.8.2-.7.6-.2 1.1.8 1.1 1.9 1.8 3.1 2.1z"/><path class="st12" d="M149.1 261.6c-1.1-.6-2-1.5-2.5-2.6-.5-1-.7-2.1-.7-3.2-1-.1-2-.6-2.7-1.3-1-.7-1.7-1.7-2-2.9 1.4.3 2.9.1 4.2-.5 1.1-.6 2-1.4 2.6-2.4-.5-.3-1-.6-1.4-1-.4-.4-.7-.8-.9-1.4-.3.3-.5.7-.7 1.1-.2.5-.3 1-.3 1.6-.9-.2-1.7-.6-2.4-1.1-.7-.6-1.4-1.3-2-2-.1.6-.1 1.3 0 1.9.1.6.2 1.2.5 1.8-1.8-.8-3.3-2.1-4.3-3.7-.8-1.3-1.5-2.7-1.8-4.2-.2.1-.5.3-.6.5-.2.3-.3.5-.4.8-.4-.8-.7-1.7-.7-2.6 0-.7.1-1.4.3-2.1.1-.4-.2-.7-.7-.4-.5.5-.9 1-1.2 1.7-.7-.6-1.2-1.5-1.4-2.5-.1-.8-.2-1.6-.1-2.4-1.8-.7-3.4-1.7-4.7-3.1-1.8-1.9-3.1-4.3-3.6-6.8 1.2 1.1 2.5 1.9 4 2.4 1.9.6 4.3.2 5.8 1.1 1 .6 1.8 1.5 2.5 2.5.5-.6 1.2-1 1.9-1.3.7-.2 1.5-.3 2.3-.2.1.5.3.9.6 1.3s.6.7 1 1c.7-.5 1.4-.9 2.2-1.2.7-.3 1.5-.4 2.2-.5.4.7 1 1.3 1.5 1.8.6.5 1.3.9 2.1 1.2.4-.5.8-1.1 1.3-1.5.5-.5 1.1-.9 1.7-1.2.4.6 1 1.2 1.6 1.6.7.5 1.5.8 2.3.9-.1-1.2.4-2.4 1.3-3.3 1.8.8 3.9 1.2 5.9 1.2 5-.2 6.7-5.1 6.7-5.1l8.3-1.2c-.5 1.8-1.3 3.6-2.3 5.1-2.2 3.2-6.8 5.6-8.4 7.9-1.1 1.4-1.5 3.2-1.1 4.9-.7.3-1.5.4-2.3.3-.7 0-1.4-.2-2.1-.4 0 .6.2 1.2.6 1.7.3.5.6.9 1.1 1.3-.5.5-1.1 1-1.7 1.4-.8.4-1.6.7-2.4.9 0 .3.1.5.3.7.2.2.4.4.7.5-.5.6-1.2 1.1-1.9 1.3-.9.3-1.8.4-2.7.3.1.5.3.9.6 1.2.4.4.8.6 1.3.8 0 0 0 .5-1.1 1.3-.8.6-1.7 1-2.6 1.2 0 1-.2 1.9-.6 2.8-.7 1.5-1.5 1.7-2.3 2.7-.4.5-.6.9-.8 1.4z"/><path class="st10" d="M134.2 243.4c0 .6-.3.7-.8-.1-.6-.8-.8-1.8-.7-2.8 0-.8.1-1.5.4-2.2-.6.4-1 1-1.2 1.7-.1.5-.4.4-.6.1-.8-.7-1.3-1.7-1.5-2.7-.1-.7-.1-1.4-.1-2.1-1.7-.7-3.3-1.8-4.6-3.1-1.9-1.9-3.2-4.3-3.6-6.9 0-.4.2-.6.6-.3 1.1.9 2.5 1.6 3.9 2.1.8.2 1.7.4 2.6.4 1.2 0 2.3.3 3.4.8 1 .5 1.8 1.2 2.3 2.1.5-.5 1.1-.8 1.7-1 .6-.2 1.2-.3 1.9-.3.2 0 .4 0 .7.1l.3.1v.3c.1.4.3.8.5 1.1.2.3.4.5.6.7.6-.4 1.3-.8 2-1.1.8-.3 1.6-.5 2.4-.6h.2l.1.2c.4.7.9 1.3 1.4 1.9.5.4 1.1.7 1.7.9.3-.4.7-.8 1.1-1.2.5-.5 1.1-.9 1.8-1.2l.3-.1.2.3c.4.6.9 1.1 1.5 1.5.5.3 1.1.6 1.7.8 0-.6.2-1.2.4-1.8.2-.6.6-1.2 1.1-1.6h.1l.2.1c1.8.9 3.9 1.2 5.9 1 2.6-.2 4.8-2 5.6-4.5l1.7-.1c-.6 2.2-3.1 5.6-7 5.7-2.1.1-4.1-.3-6-1.1-.4.3-.7.6-.9 1.1-.2.5-.4 1-.3 1.6 0 .4-.1.5-.4.5-.9-.1-1.8-.5-2.6-1-.6-.4-1.1-.9-1.5-1.4-.4.3-.9.6-1.2.9-.5.4-.9.9-1.2 1.4-.1.2-.3.3-.6.2-.8-.3-1.6-.7-2.2-1.2-.6-.5-1.1-1.1-1.5-1.7-.6 0-1.2.2-1.8.4-.7.3-1.4.7-2.1 1.2l-.2.2-.2-.1c-.5-.3-.9-.6-1.1-1.1-.2-.3-.4-.7-.6-1.1h-.2c-.5 0-1.1.1-1.6.2-.7.2-1.3.7-1.7 1.2-.3.4-.5.4-.7 0-.5-1-1.3-1.8-2.3-2.4-1-.4-2-.6-3.1-.6-.9-.1-1.9-.2-2.8-.5-1.1-.4-2.1-.9-3.1-1.6.6 2 1.7 3.8 3.2 5.3 1.2 1.4 2.8 2.4 4.5 3 .2.1.4 0 .3.4-.1.8-.1 1.6.1 2.3.1.7.4 1.4.9 1.9.2-.6.5-1 1-1.4.4-.3.9-.4 1.3-.1.1.3.1.6 0 .9-.2.6-.3 1.3-.3 1.9 0 .6.1 1.2.3 1.8.2-.3.5-.6.8-.9.2-.1.6-.1.6.4.3 1.5.9 2.8 1.8 4.1.8 1.4 2 2.5 3.4 3.3-.1-.3-.3-.8-.4-1.1-.1-.7-.1-1.5 0-2.2.1-.8.4-.9.7-.2.5.9 1.2 1.6 2 2.1.6.4 1.2.7 1.9.9 0-.4.1-.8.2-1.2.1-.5.4-.9.7-1.3.2-.3.5-.3.7.1.2.5.5.9.9 1.3s.8.7 1.3.9c.3.1.5.3.2.7-.7 1.1-1.6 1.9-2.8 2.5-1 .5-2.1.7-3.1.7-.3 0-.6-.1-.8-.1.4.8 1 1.5 1.7 2.1.8.7 1.8 1.1 2.9 1.2 0 0-.4 1.2.6 3.4.4.9 1.1 1.6 1.9 2.2.1-.3.3-.6.5-.8.3-.4.6-.7 1-1.1.5-.5 1-1 1.3-1.6.5-.8.7-1.7.6-2.6 0-.2.1-.4.3-.4h.1c.9-.1 1.7-.4 2.4-1 .3-.2.6-.5.8-.9-.4-.2-.8-.4-1.1-.7-.5-.4-.7-.9-.8-1.5.1-.2.3-.4.5-.4h.5c.7 0 1.4-.1 2-.3.5-.2 1-.4 1.4-.8l-.3-.3c-.2-.3-.4-.6-.5-1 0-.3 0-.4.5-.5.8-.1 1.6-.4 2.3-.8.5-.3.9-.6 1.3-1-.3-.3-.6-.7-.8-1.1-.4-.6-.7-1.3-.7-2 0-.3.2-.5.4-.5.1 0 .2 0 .3.1.6.3 1.3.5 1.9.5.6 0 1.2 0 1.8-.1-.2-1.7.2-3.4 1.3-4.8 1.1-1.3 2.3-2.4 3.6-3.4 1.8-1.3 3.4-2.9 4.7-4.7 1.1-1.6 1.7-3.5 1.9-5.5l1.6-.5c-.2 2.5-1.1 4.8-2.6 6.8-1.4 1.7-3 3.2-4.7 4.4-1.4.9-2.7 2.1-3.8 3.3-1 1.3-1.4 2.9-1.1 4.5.1.2 0 .4-.2.5-.8.3-1.7.5-2.5.3-.5-.1-1.1-.2-1.6-.4.1.3.3.7.4 1 .3.5.6.9 1 1.2.3.3.3.4 0 .7-.5.6-1.2 1-1.8 1.4-.7.4-1.4.6-2.2.8.2.3.4.5.8.6.2 0 .3.1.4.3 0 .1 0 .2-.1.3-.6.7-1.5 1.3-2.4 1.6-.8.2-1.6.3-2.4.3.1.2.2.4.3.5.3.4.7.6 1.2.7.4 0 .6.2.6.4-.3.7-.8 1.3-1.4 1.8-.8.5-1.6.9-2.5 1.1 0 .9-.2 1.9-.6 2.8-.4.7-.9 1.4-1.6 1.9-.3.3-.6.6-.9 1-.3.3-.4.6-.5 1 0 .4-.3.4-.6.2-1.2-.6-2.1-1.5-2.6-2.7-.5-1-.7-2-.7-3.1-1-.2-1.9-.7-2.6-1.3-1.1-.8-1.8-2-2.1-3.3-.1-.3.2-.4.5-.4.5.1.9.1 1.4.1.9 0 1.8-.2 2.6-.6.9-.5 1.6-1.1 2.2-1.9-.4-.2-.7-.5-1.1-.8-.3-.3-.5-.6-.7-.9-.1.2-.2.5-.3.7-.1.4-.2.9-.2 1.3s0 .5-.5.4c-.9-.2-1.8-.6-2.6-1.2-.5-.4-1-.9-1.4-1.4v.8c.1.7.2 1.3.5 1.9.3.6.1.8-.6.5-1.9-.7-3.5-2.1-4.5-3.9"/><path class="st10" d="M174.2 224.3c-.8 3-2.1 5.3-5.6 8.2-2.8 2.3-5.5 3.3-7.4 4.4-1.2.6-2.2 1.4-3.1 2.4-.4.8-.6 1.7-.5 2.5.3 1.7.8 1.5.8 1.5.2-.1.5 0 .6.2.1.1.1.2 0 .3-.1.4-.8.5-1.4 0-1-1-.5-3.6-.5-3.6-.6.6-1.1 1.2-1.6 1.8-.4.5-.7 1.1-1 1.6-.1.5-.2 1-.1 1.6.3 1.5.8.9 1.1 1.3s.1 1-.5.7c-.6-.3-1-.9-1.1-1.6-.1-.4-.1-.8-.1-1.1-.6.9-1.1 1.9-1.5 2.9l-.8 2.1c-.1.4 0 .8.3 1.2.6.7.6.2 1.1.3.3 0 .6.6-.2.8-1 .2-1.5-1.3-1.5-1.3s-.5 1.6-1 4-.7 3.6-.7 4-.4.5-.6 0c-.3-.5-.4-1-.5-1.5-.1-.5 0-.9.4-1.2.4-.1.7-.5.8-1 .2-1.1 1.2-4.8 1.2-4.8-.6.8-1.4 1.4-2.2 1.9-.6.4-1.3.7-2 .9-.1.4-.4.6-.8.5-1 0-1.6-.5-.9-.6 1.3-.2 2.6-.7 3.8-1.5.9-.6 1.6-1.3 2.3-2.2 0 0 .6-1.2.9-1.9s.8-1.7.8-1.7c-.6.6-1.3 1-2.1 1.2-1.1.3-2-.2-1.7-.7s.7.1.7.1c.7.1 1.4-.1 2-.4.6-.3 1.1-.7 1.5-1.1 0 0 1.1-1.8 2-3.1 1-1.3 2.1-2.4 3.2-3.5.4-.3.4-.5 0-.4-2.6.5-5.3.8-8 .7-5.2-.2-9.6-1.5-15.3-3.5-3.4-1.1-6.5-2.9-9.2-5.3-.3-.4-.3-.5.1-.5s.7 0 1.1.1c.2.1.2.1.2.3s-.2.4.7.9c4 2.4 8.4 4.2 12.9 5.4 3.9 1.1 7.8 1.7 14.6 1.2 2.2-.3 4.4-.8 6.5-1.7 2.8-1.1 5.4-2.7 7.6-4.9 3.1-3.2 3.2-5.6 3.2-5.6l1.5-.3z"/><path class="st10" d="M147.3 243.8c-.6.1-.7 0-.3-.5.5-.8 1.1-1.5 1.8-2 .7-.3 1.3-.4 1.5 0 .3.7 0 1.6-.7 1.9-.1 0-.1 0-.2.1-.7.1-1.4.3-2.1.5zm3-.5c.8-.5 1.1-1.7.6-2.5-.5-.7-1.5-.8-2.6-.2-1 .8-1.8 1.8-2.3 3-.3.8.1.9.7.9 1.4 0 2.6-.5 3.6-1.2z"/><path class="st12" d="M245 215.4c-1.1.5-2.4.6-3.6.3-1.1-.2-2.1-.8-2.9-1.5-.8.7-1.7 1.1-2.7 1.3-1.2.3-2.4.2-3.5-.3 1.1-.9 1.9-2.2 2.3-3.6.2-1.2.2-2.4-.2-3.5-.5.2-1.1.4-1.7.5-.6.1-1.1 0-1.6-.1.1.4.3.8.5 1.2.3.4.6.9 1 1.2-.7.5-1.5.9-2.4 1.2-.9.2-1.9.3-2.8.3.5.5 1 .9 1.5 1.2.5.3 1.1.6 1.7.8-1.7.9-3.7 1.3-5.6 1.1-1.5-.1-3-.5-4.4-1.2-.1.3-.1.5 0 .8.1.3.2.6.4.8-.9-.2-1.7-.6-2.5-1.1-.6-.4-1.1-1-1.4-1.6-.2-.3-.7-.2-.7.3 0 .7.2 1.4.6 2-1 .2-1.9 0-2.8-.4-.7-.4-1.4-.8-1.9-1.4-1.6 1-3.4 1.6-5.3 1.8-2.6.2-5.2-.3-7.6-1.4 1.6-.2 3-.8 4.4-1.6 1.7-1.1 2.9-3.2 4.5-3.9 1.1-.4 2.3-.5 3.5-.4-.2-.8-.1-1.6.2-2.3.3-.7.7-1.4 1.3-1.9.4.2.9.3 1.4.4.5.1.9 0 1.4-.1.1-.8.2-1.7.4-2.5.2-.7.6-1.4 1-2 .8.1 1.6 0 2.4-.1.8-.2 1.5-.5 2.2-.9-.2-.6-.3-1.3-.4-1.9-.1-.7 0-1.3.1-2 .8.1 1.5 0 2.2-.2.8-.2 1.6-.7 2.2-1.3-1-.7-1.6-1.8-1.8-3 1.8-.9 3.4-2.2 4.6-3.9 3-4 .2-8.4.2-8.4l4.2-7.2c1.1 1.5 2 3.2 2.6 5 1.1 3.8.1 8.8.9 11.5.4 1.7 1.5 3.1 3.1 3.9-.3.7-.7 1.4-1.2 2-.5.6-1 1-1.7 1.4.5.4 1.1.6 1.7.6.6.1 1.1.1 1.7 0 .1.7.1 1.5 0 2.2-.1.9-.4 1.7-.8 2.5.2.1.5.2.7.3.3 0 .6-.1.8-.2.2.8.1 1.6-.2 2.3-.3.9-.8 1.6-1.5 2.3.4.2.9.3 1.3.2.5-.1 1-.3 1.5-.6 0 0 .4.3.4 1.7 0 1-.2 1.9-.7 2.8.8.6 1.4 1.4 1.8 2.2.7 1.5.4 2.2.7 3.5 0 .1.2.5.5.9z"/><path class="st10" d="M229.5 177.1c1.4 1.8 2.4 6 .1 9-1.2 1.7-2.8 3-4.7 4 0 .5 0 1 .3 1.4.2.5.6.9 1 1.3.3.2.4.4.1.6-.7.7-1.5 1.1-2.4 1.4-.6.2-1.3.3-2 .3-.1.5-.1 1-.1 1.5.1.6.2 1.2.4 1.8.1.2 0 .4-.2.6-.7.5-1.5.8-2.3 1-.8.1-1.5.2-2.3.1-.3.5-.6 1-.8 1.6-.2.8-.3 1.6-.4 2.4v.3l-.3.1c-.5.2-1 .2-1.6.2-.4 0-.8-.1-1.2-.3l-.2.2c-.3.4-.6.9-.8 1.4-.2.7-.3 1.4-.1 2.1.1.5 0 .6-.4.6-1.1-.2-2.2-.1-3.2.3-.9.5-1.8 1.2-2.4 2-.6.7-1.4 1.3-2.1 1.8-1 .6-2 1.1-3.1 1.4 1.9.7 4 1 6.1.8 1.8-.1 3.6-.7 5.1-1.7.2-.1.2-.3.5 0 .6.5 1.2 1 1.9 1.4.6.3 1.3.5 2 .5-.3-.5-.5-1.1-.4-1.7 0-.5.3-.9.8-1.1.3.1.6.3.7.6.4.6.8 1 1.3 1.4.5.3 1 .6 1.6.9-.1-.4-.2-.8-.2-1.1 0-.2.2-.5.7-.3 1.3.7 2.8 1.1 4.3 1.1 1.6.2 3.2 0 4.7-.6-.2-.1-.8-.2-1.1-.4-.7-.3-1.2-.8-1.8-1.4-.5-.6-.5-.9.2-.7 1 .2 2 .1 2.9-.2.7-.2 1.3-.5 1.9-.9-.3-.3-.6-.6-.8-.9-.3-.4-.5-.9-.6-1.4-.1-.3.1-.6.5-.5.5.2 1.1.2 1.6.1s1-.2 1.5-.5c.3-.2.6-.2.7.3.4 1.2.5 2.5.2 3.8-.2 1.1-.7 2.1-1.4 2.9l-.6.6c.9.2 1.8.2 2.7 0 1.1-.2 2-.7 2.8-1.5 0 0 .6 1.1 3 1.7 1 .2 2 .2 2.9-.1-.1-.3-.3-.6-.4-.9-.1-.5-.2-.9-.2-1.4 0-.7-.2-1.4-.5-2-.3-.9-.9-1.6-1.7-2.1-.2-.1-.3-.3-.2-.5v-.1c.5-.7.7-1.6.7-2.5 0-.4 0-.8-.2-1.2-.4.2-.8.3-1.2.4-.6.1-1.2 0-1.7-.3-.1-.2-.1-.5 0-.7.1-.2.1-.1.3-.4.4-.5.8-1.1 1-1.8.2-.5.3-1 .2-1.6h-.5c-.3 0-.7-.1-1-.2-.2-.1-.3-.3-.1-.7.4-.7.7-1.5.8-2.3.1-.5.1-1.1 0-1.6-.5 0-.9 0-1.4-.1-.7 0-1.4-.3-2-.7-.2-.1-.3-.4-.1-.6.1-.1.2-.2.3-.2.6-.3 1.2-.7 1.6-1.2.4-.4.7-.9 1-1.5-1.5-.9-2.6-2.3-3-4-.4-1.6-.5-3.3-.4-5 .1-2.2-.2-4.4-.7-6.6-.6-1.9-1.7-3.5-3.1-4.9l.6-1.6c1.8 1.7 3.1 3.9 3.7 6.3.5 2.1.6 4.3.5 6.4-.1 1.7 0 3.3.2 5 .3 1.6 1.4 2.9 2.8 3.6.2.1.3.3.3.5-.2.8-.7 1.6-1.3 2.2-.4.4-.8.7-1.3 1 .3.1.7.2 1 .2.5.1 1.1.1 1.6 0 .4-.1.5 0 .5.4.1.8.1 1.5-.1 2.3-.1.8-.4 1.5-.8 2.2.3.1.7 0 .9-.2.1-.1.3-.2.4-.1.1 0 .1.1.1.2.2 1 .1 1.9-.3 2.9-.3.7-.7 1.4-1.3 2 .2.1.4.1.6.1.5 0 .9-.2 1.3-.5.2-.3.5-.4.6-.2.3.7.5 1.4.5 2.2-.1.9-.3 1.8-.7 2.6.7.6 1.3 1.3 1.8 2.2.3.8.5 1.6.5 2.4 0 .4.1.8.2 1.3 0 .4.2.7.5 1 .3.2.1.4-.2.6-1.2.5-2.5.7-3.8.4-1-.2-2-.7-2.8-1.4-.8.6-1.7 1.1-2.7 1.2-1.3.3-2.7.2-3.9-.4-.3-.1-.2-.4 0-.6.4-.3.7-.6 1-1 .6-.7 1-1.5 1.2-2.4.2-1 .1-2-.1-2.9-.4.2-.8.3-1.3.4h-1.1c.1.2.2.4.4.6.3.4.6.7.9 1 .3.2.4.4 0 .7-.8.6-1.6 1-2.6 1.2-.7.2-1.3.2-2 .2.2.1.5.4.7.5.6.4 1.2.6 1.8.8.7.2.7.4 0 .8-1.8 1-3.8 1.4-5.9 1.1-1.4-.2-2.7-.5-4-1.1.1.4.2.7.5 1 .5.4.4.6-.6.5-1-.1-1.9-.5-2.7-1.2-.6-.5-1.1-1-1.5-1.7 0 .7.2 1.4.6 2 .4.4.1.6-.3.6-1.1.2-2.1 0-3.1-.5-.6-.4-1.2-.8-1.7-1.3-1.6.9-3.4 1.5-5.3 1.7-2.7.4-5.3-.1-7.7-1.4-.3-.2-.3-.6.1-.7 1.4-.3 2.8-.9 4-1.7.7-.5 1.3-1.1 1.9-1.8.7-.9 1.6-1.6 2.7-2.1 1-.5 2.1-.7 3.1-.5-.1-.7 0-1.4.3-2 .2-.6.5-1.1.9-1.6.1-.2.3-.3.4-.5l.2-.2.3.2c.4.2.8.3 1.2.3h.9c.1-.8.2-1.5.4-2.3.3-.8.6-1.6 1-2.3l.1-.2h.2c.8.1 1.6.2 2.3.1.6-.1 1.2-.4 1.7-.8-.1-.5-.2-1.1-.3-1.6-.1-.7 0-1.5.1-2.2l.1-.4h.4c.7 0 1.4 0 2.1-.2.6-.1 1.3-.4 1.8-.7-.4-.4-.8-.9-1.1-1.4-.4-.5-.6-1.2-.5-1.8l.1-.1.2-.1c1.8-.9 3.4-2.3 4.5-4 1.4-2.2 1.4-5-.1-7.2l1.9-1.5z"/><path class="st10" d="M231.5 172.6c1.9 2.5 2.8 4.9 2.9 9.5 0 3.6-.9 6.3-1.2 8.5-.2 1.3-.3 2.6-.1 3.9.3.8.9 1.5 1.7 2 1.5.9 1.6.3 1.6.3 0-.2.3-.4.5-.4.1 0 .2.1.3.2.3.3-.1 1-.9 1.1-1.5.2-3.1-1.9-3.1-1.9.1.8.2 1.6.4 2.4l.6 1.8c.3.4.7.8 1.2 1 1.4.6 1.2-.1 1.7-.1s.8.5.2.9c-.6.2-1.3.2-1.9-.1-.4-.2-.7-.4-1-.6.4 1 .8 2 1.3 3l1.2 2c.3.3.7.5 1.1.5.9 0 .5-.3.9-.7.2-.2.8 0 .5.7-.5.9-1.9.4-1.9.4s1 1.4 2.5 3.3 2.4 2.8 2.6 3.1.2.6-.4.5c-.5-.1-1.1-.3-1.5-.5-.4-.2-.7-.6-.7-1.1.2-.4 0-.9-.3-1.2-.8-.9-3-3.9-3-3.9.2 1 .3 2 .1 2.9-.1.7-.3 1.5-.5 2.2.2.3.2.7-.1.9-.7.8-1.4 1-1 .3.7-1.2 1.1-2.5 1.2-3.9.1-1.1 0-2.1-.2-3.2 0 0-.5-1.2-.9-1.9s-.8-1.7-.8-1.7c.1.8-.1 1.6-.4 2.4-.5 1.1-1.4 1.4-1.6.9s.5-.5.5-.5c.5-.5.8-1.1.9-1.8.1-.6.2-1.3.1-1.9 0 0-.8-2-1.2-3.5-.4-1.6-.6-3.1-.7-4.7 0-.5-.1-.6-.3-.2-1.2 2.4-2.7 4.6-4.4 6.7-3.4 3.9-7.2 6.6-12.3 9.8-3 1.9-6.3 3.2-9.9 3.9-.5 0-.6-.1-.4-.4.2-.3.5-.5.8-.7.2-.1.2-.1.4 0s.2.4 1.1 0c4.4-1.6 8.5-3.9 12.2-6.7 3.3-2.4 6.2-5.1 10.1-10.7 1.2-1.9 2.1-4 2.7-6.1.9-2.9 1.3-6 1-9-.6-4.5-2.3-6-2.3-6l.7-1.7z"/><path class="st10" d="M229.9 205.7c-.3.6-.4.5-.6-.1-.3-.8-.5-1.8-.5-2.7.2-.8.4-1.2 1-1.2.8.2 1.2 1 .9 1.8 0 .1 0 .1-.1.2-.1.7-.4 1.4-.7 2zm1.6-2.7c.1-1-.6-1.9-1.6-2.1-.9-.1-1.6.7-1.8 1.9 0 1.3.3 2.5.9 3.7.4.7.8.5 1.2 0 .7-1 1.2-2.2 1.3-3.5z"/><path class="st12" d="M268.7 111.6c-.3 1.2-1 2.2-2 3-.9.7-1.9 1.2-3 1.4.1 1-.2 2-.7 2.9-.5 1.1-1.3 2-2.4 2.6 0-1.4-.5-2.8-1.4-4-.8-.9-1.8-1.6-2.9-2-.1.6-.4 1.1-.7 1.6-.3.5-.7.9-1.1 1.2.4.2.8.3 1.3.4h1.6c0 .9-.2 1.8-.6 2.6-.4.9-.9 1.7-1.5 2.4.6-.1 1.3-.2 1.9-.5.6-.2 1.1-.5 1.7-.8-.4 1.9-1.3 3.6-2.6 5-1.1 1.1-2.3 2-3.7 2.7.2.2.4.4.6.5.3.1.6.2.9.2-.7.6-1.5 1-2.4 1.2-.7.2-1.4.2-2.1.2-.4 0-.6.4-.2.7.6.4 1.2.7 1.9.8-.4.9-1.2 1.6-2.1 1.9-.7.3-1.5.5-2.3.6-.3 1.9-.9 3.7-2 5.3-1.5 2.2-3.5 3.9-5.9 5.1.8-1.4 1.3-2.9 1.5-4.4.2-2-.7-4.3-.2-5.9.4-1.1 1-2.1 1.8-3-.7-.4-1.3-.9-1.7-1.6-.4-.7-.6-1.4-.7-2.2.4-.2.8-.5 1.1-.8.3-.3.6-.7.8-1.2-.6-.6-1.2-1.2-1.7-1.9-.4-.6-.8-1.3-1-2.1.5-.6 1-1.2 1.4-1.9.3-.7.6-1.5.7-2.3-.6-.2-1.2-.6-1.8-.9-.6-.4-1.1-.8-1.5-1.4.5-.6.9-1.2 1.2-1.9.3-.8.4-1.6.4-2.5-1.2.3-2.4.1-3.5-.5.4-2 .3-4-.2-6-1.3-4.8-6.4-5.4-6.4-5.4l-3-7.8c1.9 0 3.7.4 5.5 1.1 3.6 1.5 7 5.4 9.5 6.4 1.6.8 3.4.8 5 0 .4.7.7 1.4.8 2.2.1.7.1 1.5 0 2.2.6-.2 1.1-.5 1.5-.9.4-.4.8-.8 1-1.3.6.4 1.2.8 1.7 1.3.6.6 1.1 1.4 1.4 2.2.2-.1.5-.2.7-.4.2-.2.3-.5.3-.8.7.4 1.3.9 1.7 1.6.5.8.8 1.7.9 2.6.4-.2.8-.5 1-.9.3-.5.4-1 .5-1.5 0 0 .5-.2 1.5.8.8.6 1.4 1.4 1.8 2.3.9-.2 1.9-.2 2.9 0 1.6.4 2 1.1 3.2 1.6.6.1 1.1.2 1.6.2z"/><path class="st10" d="M229.1 99.9c2.2.1 6.2 1.8 7.1 5.6.5 2 .6 4.1.2 6.2.4.3.8.6 1.3.7.5.1 1.1.1 1.6 0 .4-.1.5-.1.6.3.1.9 0 1.9-.4 2.7-.2.6-.6 1.2-1 1.8.4.4.7.7 1.2 1 .5.3 1.1.6 1.7.9.2.1.4.3.4.5-.1.8-.3 1.7-.7 2.4-.4.7-.8 1.3-1.3 1.9.2.6.4 1.1.7 1.6.5.7 1 1.2 1.6 1.8l.2.2-.1.3c-.2.5-.5 1-.9 1.3-.3.3-.6.6-1 .8v.2c.1.5.3 1 .6 1.5.4.6.9 1.1 1.6 1.4.5.2.5.4.2.7-.8.7-1.4 1.7-1.8 2.7-.2 1-.2 2.1 0 3.1.1.9.2 1.9.1 2.8-.1 1.1-.4 2.3-.9 3.3 1.8-1.1 3.3-2.5 4.4-4.2 1-1.5 1.7-3.2 1.9-5.1 0-.3 0-.4.3-.4.8-.1 1.5-.3 2.2-.6.7-.3 1.2-.7 1.7-1.3-.6-.1-1.1-.3-1.6-.7-.4-.3-.6-.8-.3-1.3.3-.2.6-.3.9-.2.7.1 1.3 0 2-.1.6-.2 1.1-.4 1.6-.7-.4-.1-.7-.3-1.1-.5-.2-.1-.2-.5.2-.7 1.4-.6 2.6-1.5 3.6-2.6 1.1-1.1 2-2.5 2.5-4-.2.1-.7.5-1 .6-.7.3-1.4.5-2.1.5-.8.1-1-.2-.4-.6.7-.7 1.3-1.5 1.6-2.4.3-.7.4-1.4.5-2.1-.4.1-.8.1-1.2.1-.5 0-1-.2-1.5-.4-.3-.2-.4-.4-.1-.7.4-.3.8-.7 1.1-1.2.3-.4.5-.9.5-1.5.1-.3.2-.6.6-.4 1.2.4 2.3 1.2 3.1 2.2.7.8 1.2 1.8 1.4 2.9.1.3.1.6.1.8.7-.6 1.2-1.3 1.7-2.1.5-1 .7-2 .6-3.1 0 0 1.3.2 3.2-1.3.8-.6 1.4-1.4 1.7-2.3l-.9-.3c-.4-.2-.9-.4-1.2-.7-.6-.4-1.2-.7-1.9-.9-.9-.3-1.8-.3-2.6 0-.2.1-.4 0-.5-.2v-.1c-.3-.8-.8-1.6-1.5-2.1-.3-.3-.6-.5-1-.6-.1.4-.3.8-.5 1.2-.3.5-.7.9-1.3 1.1-.2 0-.5-.2-.6-.4 0-.2 0-.2-.1-.5-.2-.7-.4-1.3-.8-1.9-.3-.5-.6-.8-1.1-1.2-.1.1-.2.3-.3.4-.2.3-.5.5-.8.7-.3.1-.4.1-.6-.4-.3-.8-.7-1.4-1.3-2-.4-.4-.8-.7-1.2-1-.3.4-.6.7-.9 1-.5.5-1.1.9-1.8 1.1-.2.1-.5 0-.6-.3v-.3c.2-.7.2-1.3 0-2-.1-.6-.3-1.2-.5-1.7-1.6.6-3.4.6-5-.2-1.5-.7-2.9-1.7-4.1-2.8-1.7-1.4-3.6-2.6-5.6-3.5-1.8-.7-3.8-.9-5.8-.6l-.9-1.4c2.5-.4 5 0 7.2 1 1.9 1 3.7 2.2 5.4 3.6 1.2 1.1 2.6 2.1 4.1 2.9 1.5.7 3.1.7 4.6 0 .2-.1.4-.1.6.1.5.7.8 1.5.9 2.4.1.5.1 1.1 0 1.6.3-.2.6-.4.8-.7.4-.4.7-.8 1-1.3.2-.3.3-.3.6-.2.7.4 1.3.9 1.8 1.5s.9 1.3 1.3 2c.3-.2.4-.5.4-.9-.1-.2 0-.3.2-.4h.3c.9.5 1.6 1.2 2.1 2 .4.7.6 1.5.8 2.2.2-.1.3-.2.4-.4.3-.4.4-.8.4-1.3-.1-.4 0-.7.2-.6.7.2 1.4.5 2 1 .7.6 1.2 1.4 1.6 2.2.9-.2 1.9-.2 2.8 0 .8.2 1.5.6 2.2 1.1.4.2.7.5 1.1.6.3.2.7.3 1.1.2.4-.1.4.2.3.5-.3 1.3-1 2.4-2.1 3.2-.8.7-1.8 1.1-2.9 1.3 0 1-.3 1.9-.8 2.7-.6 1.2-1.5 2.2-2.8 2.8-.3.1-.4-.1-.5-.4 0-.5-.1-.9-.2-1.4-.2-.9-.6-1.7-1.1-2.4-.7-.7-1.5-1.3-2.4-1.7-.1.4-.3.8-.5 1.2-.2.3-.4.6-.7.8.2.1.5.1.8.1.5 0 .9 0 1.4-.1.4-.1.5-.1.5.4 0 1-.2 1.9-.6 2.8-.3.6-.7 1.2-1.1 1.7.2-.1.6-.1.8-.2.6-.2 1.2-.5 1.7-.9.6-.4.8-.3.6.5-.3 2-1.3 3.9-2.8 5.3-1 1-2.1 1.8-3.4 2.4.3.2.7.3 1.1.2.6-.2.7.1.1.8-.7.7-1.6 1.2-2.6 1.4-.7.2-1.5.2-2.2.1.5.5 1.2.7 1.9.8.6 0 .5.3.2.6-.5.9-1.3 1.7-2.3 2.1-.7.3-1.4.4-2.1.5-.3 1.9-1 3.6-2 5.2-1.4 2.3-3.4 4.1-5.9 5.1-.3.1-.6-.1-.4-.5.7-1.3 1.1-2.8 1.2-4.2 0-.9 0-1.7-.2-2.6-.2-1.1-.2-2.3 0-3.4s.8-2 1.6-2.7c-.6-.4-1-.9-1.4-1.4-.3-.5-.5-1.1-.7-1.7-.1-.2-.1-.4-.1-.7v-.3l.3-.1c.4-.2.7-.4 1-.7.2-.2.4-.5.5-.7-.6-.5-1.1-1.1-1.5-1.7-.5-.7-.8-1.4-1.1-2.2l-.1-.2.2-.2c.6-.5 1.1-1.1 1.5-1.8.3-.6.4-1.2.5-1.8-.5-.2-1-.5-1.4-.8-.6-.4-1.1-.9-1.6-1.5l-.2-.3.2-.3c.5-.5.9-1.1 1.1-1.8.2-.6.3-1.2.4-1.8-.6.1-1.2.1-1.8 0-.7 0-1.3-.3-1.8-.7v-.2l.1-.3c.4-2 .3-4.1-.3-6-.8-2.5-3.1-4.2-5.7-4.4l-.3-1.7z"/><path class="st10" d="M226.8 95.4c3.1.1 5.6.9 9.2 3.7 2.8 2.2 4.4 4.6 5.9 6.3.9 1 1.9 1.8 3 2.6.8.3 1.8.2 2.6-.1 1.6-.7 1.3-1.1 1.3-1.1-.2-.2-.1-.5.1-.6.1-.1.2-.1.3-.1.4 0 .7.7.3 1.4-.8 1.2-3.4 1.3-3.4 1.3.7.5 1.4.9 2.1 1.2.6.3 1.2.5 1.8.6.5 0 1.1-.1 1.6-.3 1.4-.7.7-1 1-1.4s.9-.3.8.4c-.2.6-.7 1.1-1.3 1.4-.3.2-.7.3-1.1.4 1 .3 2.1.6 3.1.8l2.2.3c.4 0 .8-.2 1.1-.5.6-.7.1-.6 0-1.1 0-.3.5-.7.8 0 .4.9-.9 1.7-.9 1.7s1.7.1 4.2.1 3.6-.2 4-.2.6.2.2.6c-.4.4-.9.7-1.4.9-.4.2-.9.2-1.3-.2-.2-.4-.7-.6-1.1-.5-1.2 0-4.9-.1-4.9-.1.9.4 1.7 1 2.4 1.7.5.5 1 1.1 1.4 1.8.4 0 .7.3.7.6.2 1-.1 1.7-.4 1-.5-1.3-1.3-2.4-2.3-3.3-.8-.7-1.7-1.3-2.6-1.8 0 0-1.3-.3-2.1-.5s-1.8-.4-1.8-.4c.7.5 1.2 1.1 1.6 1.8.5 1 .2 2-.3 1.8s-.1-.7-.1-.7c-.1-.7-.4-1.4-.9-1.9-.4-.5-.9-.9-1.4-1.3 0 0-2-.7-3.5-1.3-1.4-.7-2.8-1.5-4.2-2.4-.4-.3-.6-.3-.4.1 1.1 2.4 1.9 5 2.5 7.6.9 5.1.7 9.7 0 15.7-.4 3.5-1.4 7-3.1 10.1-.3.4-.4.4-.5.1-.1-.3-.1-.7-.1-1.1 0-.2 0-.3.3-.3s.4.1.7-.9c1.5-4.4 2.3-9.1 2.4-13.8.2-4.1-.1-8-2.1-14.5-.7-2.1-1.8-4.1-3-5.9-1.7-2.5-3.9-4.7-6.4-6.4-3.8-2.3-6.1-1.9-6.1-1.9l-.9-1.4z"/><path class="st10" d="M251.7 117.4c.3.6.1.7-.4.4-.9-.3-1.7-.7-2.4-1.3-.5-.6-.7-1.1-.3-1.5.6-.4 1.5-.3 2 .4l.1.1c.4.6.7 1.2 1 1.9zm-1.1-2.9c-.7-.7-1.9-.7-2.6 0-.6.6-.5 1.7.4 2.6 1 .8 2.2 1.4 3.4 1.6.8.1.9-.3.7-.9-.2-1.3-.9-2.4-1.9-3.3z"/><path class="st12" d="M202.4 28.4c.7 1 1.1 2.2 1.1 3.4 0 1.1-.2 2.2-.8 3.2.8.6 1.5 1.4 1.8 2.4.5 1.1.7 2.3.5 3.5-1.2-.9-2.6-1.4-4-1.4-1.2.1-2.4.4-3.4 1 .3.5.6 1 .8 1.5.2.5.3 1.1.3 1.6.4-.2.8-.4 1.1-.7.4-.4.7-.8 1-1.3.7.6 1.3 1.3 1.7 2 .4.9.7 1.8.9 2.7.3-.6.6-1.1.8-1.8.2-.6.3-1.2.4-1.8 1.3 1.5 2.1 3.3 2.3 5.2.2 1.5.1 3.1-.2 4.6.3 0 .5-.1.8-.2.3-.2.5-.3.7-.5 0 .9-.2 1.8-.5 2.7-.3.7-.7 1.3-1.2 1.8-.3.3-.1.7.4.6.7-.2 1.3-.5 1.8-1 .4.9.5 1.9.2 2.8-.2.8-.5 1.5-.9 2.2 1.3 1.4 2.3 3 2.9 4.8.8 2.5.9 5.2.3 7.7-.6-1.5-1.4-2.8-2.5-3.9-1.5-1.4-3.8-2.1-4.8-3.6-.6-1-1-2.1-1.2-3.3-.7.3-1.5.4-2.3.3-.8-.1-1.5-.4-2.2-.8.1-.5.1-.9 0-1.4 0-.5-.2-.9-.4-1.3-.8.1-1.7.2-2.5.1s-1.5-.3-2.2-.5c-.1-.8-.3-1.6-.6-2.3-.3-.7-.8-1.4-1.4-2-.6.3-1.2.6-1.8.8-.6.2-1.3.3-2 .3-.1-.8-.4-1.5-.7-2.1-.4-.7-1-1.4-1.7-1.8-.5 1.1-1.4 2-2.6 2.4-1.3-1.5-2.9-2.8-4.8-3.6-4.6-2-8.3 1.6-8.3 1.6l-8-2.5c1.2-1.4 2.7-2.6 4.3-3.5 3.4-1.9 8.6-2.1 11-3.4 1.6-.8 2.7-2.2 3.1-3.9.8.1 1.5.3 2.2.8.6.3 1.2.8 1.7 1.3.2-.6.3-1.2.2-1.8 0-.6-.1-1.1-.4-1.6.7-.3 1.4-.4 2.1-.5.9-.1 1.8 0 2.6.3.1-.3.1-.5.1-.8-.1-.3-.2-.5-.4-.7.7-.3 1.5-.4 2.3-.3.9.1 1.8.4 2.6.9.1-.4.1-.9-.1-1.3-.2-.5-.5-.9-.9-1.3 0 0 .2-.5 1.6-.7.9-.2 1.9-.2 2.9 0 .4-.9 1-1.6 1.8-2.2 1.3-1 2.1-.9 3.2-1.5.6-.6 1-.9 1.3-1.2z"/><path class="st10" d="M168.5 52c1.4-1.7 5.3-3.7 8.8-2.1 1.9.8 3.6 2.1 5 3.7.5-.1.9-.3 1.3-.6s.8-.8 1-1.3c.2-.4.3-.5.6-.2.8.5 1.4 1.2 1.9 2 .3.6.6 1.2.7 1.9.5 0 1-.1 1.5-.3.6-.2 1.2-.4 1.7-.8.2-.1.4-.1.6 0 .6.6 1.1 1.3 1.4 2.1.3.7.5 1.4.6 2.2.6.2 1.1.4 1.8.5.8 0 1.6 0 2.4-.1h.3l.2.2c.3.5.5 1 .5 1.5.1.4.1.8 0 1.2l.2.1c.5.2 1 .4 1.5.5.7.1 1.4 0 2.1-.4.5-.2.6-.1.6.3.1 1.1.4 2.2 1 3.1.7.8 1.5 1.5 2.5 1.9.8.5 1.6 1 2.3 1.7.8.8 1.5 1.7 2.1 2.8.3-2.1.1-4.2-.5-6.1-.5-1.8-1.5-3.3-2.8-4.6-.2-.2-.3-.2-.1-.5.4-.7.7-1.4.9-2.1.2-.7.2-1.4.1-2.1-.4.4-1 .7-1.6.8-.5.1-1-.1-1.2-.5 0-.3.1-.6.4-.8.5-.5.8-1 1.1-1.6.2-.6.4-1.1.5-1.7-.3.2-.7.4-1.1.5-.2 0-.6-.1-.4-.6.4-1.4.4-3 .2-4.4-.2-1.6-.7-3.1-1.6-4.4-.1.3-.1.8-.2 1.2-.2.7-.5 1.4-.9 2-.4.7-.7.7-.8-.1-.1-1-.4-1.9-.9-2.8-.4-.6-.8-1.2-1.3-1.7-.2.4-.4.7-.7 1-.3.4-.7.7-1.2.9-.3.2-.6.1-.6-.3 0-.5-.1-1.1-.3-1.6-.2-.5-.4-1-.8-1.3-.2-.3-.3-.5.1-.8 1.1-.7 2.3-1 3.6-1 1.1 0 2.2.2 3.1.8.2.1.5.3.7.4 0-.9-.2-1.8-.6-2.6-.4-1-1.2-1.8-2.1-2.4 0 0 .9-.9 1-3.3 0-1-.3-1.9-.8-2.8-.3.2-.5.4-.8.5-.4.2-.9.4-1.3.5-.7.2-1.3.5-1.8.9-.8.5-1.3 1.2-1.6 2.1-.1.2-.3.3-.5.3h-.1c-.8-.3-1.7-.4-2.6-.1-.4.1-.8.2-1.1.4.3.3.5.7.6 1.1.3.5.3 1.1.1 1.7-.2.2-.4.3-.7.2-.2-.1-.1-.1-.4-.2-.6-.3-1.3-.5-2-.6-.5-.1-1.1 0-1.6.1.1.1.1.3.1.5.1.4.1.7 0 1.1-.1.3-.2.4-.7.2-.8-.3-1.6-.4-2.4-.2-.5 0-1.1.2-1.6.3.1.4.2.9.2 1.3.1.7.1 1.4-.2 2.1-.1.2-.3.4-.6.3-.1 0-.2-.1-.3-.2-.4-.5-.9-1-1.6-1.3-.5-.3-1.1-.5-1.7-.7-.5 1.6-1.7 3-3.2 3.8-1.5.7-3.1 1.2-4.8 1.5-2.2.4-4.3 1.2-6.2 2.2-1.7 1-3.1 2.4-4.1 4.1l-1.6-.2c1.3-2.1 3.1-3.9 5.3-5 2-.9 4-1.6 6.2-1.9 1.7-.3 3.3-.7 4.8-1.3 1.5-.7 2.6-2 2.9-3.6 0-.2.2-.4.4-.4.9 0 1.7.3 2.4.8.5.3.9.6 1.3 1v-1.1c0-.5-.2-1.1-.4-1.5-.1-.4-.1-.5.3-.6.7-.3 1.5-.4 2.3-.5.8 0 1.6 0 2.3.2 0-.3-.2-.7-.4-.9-.2-.1-.2-.2-.2-.4 0-.1.1-.1.2-.2.9-.4 1.9-.5 2.8-.4.8.2 1.5.4 2.2.8 0-.2 0-.4-.1-.6-.1-.5-.4-.9-.8-1.1-.4-.1-.5-.4-.4-.6.6-.5 1.3-.8 2-1 .9-.1 1.8-.1 2.7.1.4-.9 1-1.6 1.7-2.2.7-.5 1.4-.8 2.2-1 .4-.1.8-.3 1.2-.5.4-.1.7-.4.9-.7.2-.3.4-.2.6.1.8 1 1.2 2.3 1.2 3.6 0 1.1-.3 2.1-.7 3.1.8.6 1.4 1.4 1.8 2.3.6 1.2.8 2.6.5 3.9-.1.3-.4.3-.6.1-.4-.3-.8-.5-1.2-.7-.8-.4-1.7-.6-2.6-.6-1 0-2 .3-2.8.8.3.4.5.7.6 1.2.1.4.2.7.2 1.1.2-.1.4-.3.6-.5.3-.3.6-.7.8-1.1.2-.3.3-.5.6-.2.8.6 1.4 1.4 1.8 2.2.3.6.5 1.2.6 1.9.1-.2.2-.5.3-.8.2-.6.4-1.3.4-1.9 0-.7.2-.8.7-.2 1.4 1.5 2.2 3.4 2.4 5.5.1 1.4.1 2.8-.2 4.1.4-.1.6-.4.8-.7.2-.6.5-.5.7.4.1 1-.1 2-.6 2.9-.3.7-.8 1.3-1.3 1.8.7-.1 1.3-.5 1.8-1 .3-.4.5-.2.6.2.4 1 .5 2.1.2 3.1-.2.7-.5 1.4-.9 2 1.3 1.4 2.2 3 2.8 4.8.9 2.5 1 5.2.3 7.8-.1.3-.5.4-.7 0-.6-1.4-1.5-2.6-2.6-3.6-.7-.6-1.4-1.1-2.1-1.5-1-.5-2-1.2-2.7-2.1-.7-.8-1.1-1.9-1.2-2.9-.6.2-1.3.3-2 .2-.6-.1-1.2-.3-1.8-.6l-.6-.3-.3-.2.1-.3c.1-.4.1-.8 0-1.2 0-.3-.1-.6-.2-.9-.8.1-1.5.1-2.3.1-.8-.1-1.7-.2-2.4-.5l-.2-.1v-.2c0-.8-.2-1.5-.5-2.3-.3-.6-.7-1.1-1.1-1.5-.5.3-1 .5-1.5.6-.7.2-1.4.3-2.1.3h.2v-.4c-.1-.7-.3-1.4-.7-2-.3-.5-.7-1-1.2-1.4-.3.5-.7 1-1.1 1.4-.4.5-1 .8-1.7.9l-.1-.1-.2-.2c-1.3-1.6-3-2.8-4.9-3.5-2.5-.9-5.2-.3-7 1.7l-1.6-1.1z"/><path class="st10" d="M163.6 51c2.1-2.4 4.2-3.9 8.6-4.9 3.5-.8 6.4-.5 8.6-.7 1.3-.1 2.6-.3 3.9-.8.7-.5 1.3-1.2 1.6-2.1.5-1.7-.1-1.7-.1-1.7-.2 0-.5-.2-.5-.4 0-.1 0-.2.1-.3.2-.3 1-.1 1.2.7.5 1.4-1.1 3.5-1.1 3.5.8-.2 1.5-.6 2.2-.9.6-.3 1.1-.6 1.6-1 .4-.4.6-.9.8-1.4.3-1.5-.3-1.2-.5-1.7s.3-.9.8-.4c.4.5.5 1.2.3 1.9-.1.4-.2.7-.4 1.1.9-.6 1.8-1.3 2.6-2l1.6-1.6c.2-.3.3-.8.3-1.2-.2-.9-.4-.5-.8-.7-.2-.2-.2-.8.5-.6 1 .3.8 1.8.8 1.8s1.1-1.2 2.7-3.2 2.1-2.9 2.4-3.3.6-.3.6.2 0 1.1-.2 1.6c-.1.5-.4.8-.9.9-.5-.1-.9.2-1.1.6-.7.9-3.1 3.8-3.1 3.8.9-.4 1.9-.7 2.8-.8.7-.1 1.5-.1 2.2 0 .2-.3.6-.4.9-.1.9.5 1.3 1.2.5 1-1.3-.4-2.7-.5-4-.3-1 .2-2 .5-3 .9 0 0-1.1.8-1.7 1.3s-1.4 1.2-1.4 1.2c.8-.2 1.6-.3 2.4-.1 1.1.2 1.7 1.1 1.3 1.4s-.6-.4-.6-.4c-.6-.4-1.3-.6-2-.5-.6 0-1.3.1-1.9.3 0 0-1.8 1.2-3.2 1.9-1.4.7-2.9 1.3-4.4 1.8-.5.1-.6.3-.1.3 2.6.7 5 1.6 7.4 2.8 4.6 2.4 8 5.5 12.3 9.9 2.6 2.5 4.6 5.5 5.9 8.8.1.5 0 .6-.3.5-.3-.1-.6-.3-.9-.6-.2-.2-.2-.2-.1-.4s.3-.2-.2-1.1c-2.6-3.9-5.7-7.4-9.3-10.4-3.1-2.7-6.3-4.9-12.6-7.5-2.1-.7-4.3-1.2-6.5-1.3-3-.3-6.1.1-9 1-4.2 1.5-5.3 3.6-5.3 3.6l-1.7-.4z"/><path class="st10" d="M196.4 45.2c.6.1.6.3.1.6-.8.5-1.6.9-2.5 1-.8 0-1.3-.2-1.4-.7.1-.8.7-1.4 1.5-1.3h.2c.7.1 1.4.2 2.1.4zm-3-.9c-1 .1-1.7 1-1.7 2 .1.8 1 1.4 2.3 1.3 1.3-.2 2.4-.8 3.4-1.7.6-.6.3-.9-.3-1.1-1.2-.6-2.5-.7-3.7-.5z"/><path class="st13" d="M220.2 149.2c0 1.7-1.4 3.1-3.1 3.1s-3.1-1.4-3.1-3.1 1.4-3.1 3.1-3.1 3.1 1.4 3.1 3.1M83.8 149.2c0 1.7-1.4 3.1-3.1 3.1s-3.1-1.4-3.1-3.1c0-1.7 1.4-3.1 3.1-3.1s3.1 1.4 3.1 3.1"/><path class="st10" d="M174.1 88.4L177 90c1.6.9 3 1.7 3 1.7l11.8-20.9c-1-.7-2-1.3-3-1.8-1.9-1-3.7-1.9-3.7-1.9l-11 21.3zM199.7 114.4c.5.8.9 1.7 1.3 2.6.8 1.7 1.2 3 1.2 3l7.3-2.6c.8 2.2 1.5 4.5 2 6.9.7 2.8 1.1 5.7 1.4 8.6l5-.4c-.3-2.9-.7-5.8-1.3-8.7-.5-2.7-1.3-5.4-2.2-8.1l5.5-1.9c1.2 3 2.1 6.1 2.7 9.2.6 3 1.1 6.1 1.4 9.2l5-.3s-.1-4.4-2.2-13.4c-1.2-4.5-2.8-9-4.8-13.2l-22.3 9.1zM183.8 94.8c.8.6 1.5 1.1 2.3 1.8 1.4 1.2 2.4 2.2 2.4 2.2l5.4-5.5c1.7 1.7 3.3 3.4 4.8 5.3 1.9 2.3 3.5 4.7 5 7.2l4.4-2.5c-1.5-2.5-3.2-4.9-4.9-7.3-1.7-2.2-3.5-4.4-5.5-6.3l4.1-4.2c2.4 2.2 4.5 4.6 6.4 7.2 1.9 2.5 3.6 5 5.2 7.7l4.4-2.5s-2-4-7.8-11.2c-3-3.6-6.4-6.9-10-9.8l-16.2 17.9zM124.3 77.4c2.2-1 4.4-1.8 6.7-2.4 2.4-.7 4.9-1.3 7.4-1.7l-.8-4.9c-2.8.3-5.5.9-8.1 1.7-2.3.7-4.6 1.5-6.9 2.4l-1.5-4.1s2.4-1 7.1-2.4c3.7-1.1 7.5-1.8 11.4-2.2l-.6-4.9s-4.5.1-13.3 2.7c-4.6 1.4-9.1 3.2-13.4 5.4l10.1 21.8c3.2-1.5 6.4-2.8 9.8-3.9 3.4-1 6.9-1.8 10.4-2.4l-.5-5.3c-2.9.4-5.8.9-8.7 1.6-2.7.6-5.2 1.5-7.7 2.7l-1.4-4.1zM104 72s-1.4.9-3.1 2.2-3 2.4-3 2.4l6.4 7.7c-1.7 1.6-4.1 3.6-5.1 4.7-1.2 1.4-3.2 3.6-4.2 4.8l-7.6-6.5c-.9 1-1.7 2-2.5 3.1-.7 1-1.4 2.1-2.1 3.2l18.9 14.4s.7-1 1.8-2.5 2.1-2.6 2.1-2.6l-6.9-5.8c1-1.2 3.1-3.4 4.2-4.5 1.6-1.6 3.3-3 4.8-4.2l5.6 6.6s1-.9 2.5-2 2.7-1.8 2.7-1.8L104 72z"/><path d="M78.4 173.4l18.3-12.1 2 3.2-7.6 11.3 12.4-3.6 2.8 3.4-16.4 13.5-2.6-2.8 11.3-9-15.2 4.3 7.6-12.2-10.7 7.4zM108.9 185.8c-1.3-1.3-3.9-2.9-6.1-2.8-.7.6-2.2 2.2-2.3 2.2 1.7-.1 3.5.5 4.8 1.6.8.5 1.1 1.6.6 2.4-.1.1-.1.2-.2.3-1.7 1.7-2.3-.5-6-1.3-1.5-.4-6.6.4-5.4 5.3.7 2.3 3.1 3.7 5.5 3.1l-.8.9 3 2.4s6-7 7.2-8.6 1.5-3.6-.3-5.5m-8.7 8.9c-.5 0-3-.2-2.4-2.4.3-.7 1-1.1 1.7-.9 1.6.2 2.5 1.2 4.2 1.2-.1 0-1.7 2.2-3.5 2.1M113.5 189.7l-8.1 12.3 2.9 1.9 4.9-7.8c.6-1.1 2-1.4 3.1-.8.1 0 .2.1.2.1 1.7 1 1.6 1.7 1.6 1.7l1.8-3s0-1.2-2.1-1.9c-.9-.2-1.8 0-2.5.5l1-1.4-2.8-1.6zM121.8 194.7l3.2 1.4-5.8 13.5-3.7-1.7zM159 195l.1 4.1s-5.3-3.1-7.9 2.1c-1.3 2.9-1.1 6.2.5 8.9 0 0 3.1 4.9 8.2 1.2l.2 3.6s-6.5 4.9-12.1-2.8c0 0-4.4-5.9.1-13.4.1-.1 3.3-5.8 10.9-3.7M174.6 204.5c-1.2-4.2-5.2-6.6-8.9-5.5s-5.6 5.4-4.4 9.6 5.2 6.6 8.9 5.5 5.6-5.4 4.4-9.6m-5.2 6.8c-1.9.6-4-1.1-4.8-3.8s.1-5.2 1.9-5.8 4 1.1 4.8 3.8 0 5.2-1.9 5.8M173.2 196.7l3.3-1.6 4.7 8.1s1 2.1 2.8 1.2c1-.5 1.4-1.7 1-2.7-.1-.1-.2-.3-.3-.4l-4.6-8 3-1.9 7.7 12.8-3.2 1.9-1.2-2.1s-.5 6.2-5.2 4.5c-1.5-.7-2.7-1.9-3.4-3.4l-4.6-8.4zM185.4 190l2.7-2.4 1.2 1.3s-.6-4.2 3.7-4.6c0 0 1.7-.4 4.4 2.6l6.6 6.6-2.6 2.6-6.4-6.8s-1.5-1.8-3.1-.4c-.8.6-.9 1.6-.4 2.4.1.1.1.2.2.3l6.3 7.3-3.2 2.7-9.4-11.6zM127.9 197.2l3.5.9-.4 1.7s3.1-2.8 5.9.5c0 0 1.3 1.2.4 5.1l-1.8 9.2-3.6-.7 2-9.1s.7-2.2-1.4-2.8c-.9-.3-1.9.1-2.2 1 0 .1-.1.2-.1.3l-2.5 9.4-4-1.3 4.2-14.2zM192.7 175.7l2.1-2.3 3.9 3.4 1.6-1.8 2.3 2-1.5 1.6 8.9 7.6-2.4 2.8-8.8-7.8-1.7 1.8-2.2-2 1.7-1.8zM200.8 173.7l1.8-2.7 9 1.5-5.7-7 1.7-3.7 14.2 17.3-2.1 3.5-5-6.3zM126.5 192.4c0 1.1-.9 1.9-1.9 1.9-1.1 0-1.9-.9-1.9-1.9 0-1.1.9-1.9 1.9-1.9 1.1 0 1.9.8 1.9 1.9M167.6 60.3c-6.6-1.2-13.4-1.9-20.1-2.1l-.4 23.9 6.4.3.3-6.7c2.8.2 5.6.6 8.4 1.1 4.9.9 2.6 7.7 2.6 7.7 2 .6 5.5 2 5.5 2 4-8.1-1.8-10.4-1.8-10.4 3.5-.6 6.2-3.4 6.7-6.9.9-7.4-7.6-8.9-7.6-8.9M165.1 72s-6.5-.9-10.8-1.4l.3-7.2s8.5 1 10.6 1.4c0 0 3.8.3 3.6 3.8 0 0-.2 3.7-3.7 3.4M76.8 115.6c-.6 1.5-1.1 3-1.4 4.5-.4 2.2 1.2 2.7 1.2 2.7 1.1.4 2.4-.1 2.8-1.3.5-1.5 1.1-3.1 1.6-4.4l1-2.5c.9-2.2 1.4-3.8 1.4-3.8 1.9-4.6 6.3-6 9.8-4.5 3.7 1.4 5.6 5.6 4.1 9.3 0 .1-.1.2-.1.3-.3.7-1 3.1-1.3 3.8l-1 2.4c-1.5 4.9-2.8 10.5-2.8 10.5l-5.6-.9c.3-3.1 2-8.1 3.2-11.5l.9-2.5c.6-1.4.9-2.4.9-2.4.7-1.8.5-2.7-1.1-3.3s-2.3.3-2.8 1.3c-.2.3-.6 1.5-1.1 2.9l-.9 2.5c-1 2.8-2 5.9-2 5.9-2.4 7.4-9.6 4.7-9.6 4.7-6-2.5-4.1-9.1-4.1-9.1.5-2.2 1.2-4.4 2-6.5l1-2.5c1.5-3.8 3.3-7.5 5.2-11.1l4.4 2.6c-1.8 3.3-3.4 6.8-4.8 10.3l-.9 2.6z"/><path d="M149 268.4l-39-48.6-62.3-.2 13.7-60.8L22.7 110l56.1-27.2 14-60.7 56.2 27 56.2-26.9 14 60.7 56.1 27.2-38.7 48.8 13.7 60.8-62.3.2-39 48.5zm-97.7-51.6l60.1.2 37.6 46.9 37.6-46.9 60.1-.2-13.2-58.6 37.3-47.1-54.1-26.2-13.5-58.5L149 52.2 94.8 26.3 81.3 84.9l-54.1 26.2 37.3 47.1-13.2 58.6z"/><path class="st10" d="M149.1 189c-27.7 0-50.1-22.4-50.1-50.1 0-27.7 22.4-50.1 50.1-50.1 27.7 0 50.1 22.4 50.1 50.1-.1 27.6-22.5 50-50.1 50.1zm0-97.3c-26.1 0-47.2 21.1-47.2 47.2s21.1 47.2 47.2 47.2 47.2-21.1 47.2-47.2c-.1-26.1-21.2-47.2-47.2-47.2z"/><circle class="st12" cx="149.1" cy="138.9" r="56.4"/><path d="M149.1 228.3c-49.4 0-89.4-40.1-89.4-89.5s40.1-89.4 89.5-89.4 89.4 40.1 89.4 89.5c0 23.7-9.4 46.4-26.2 63.2a88.712 88.712 0 01-63.3 26.2zm0-176c-47.8 0-86.6 38.7-86.6 86.6s38.7 86.6 86.6 86.6 86.6-38.7 86.6-86.6c-.1-47.8-38.9-86.5-86.6-86.6z"/></svg>